G04 #@! TF.GenerationSoftware,KiCad,Pcbnew,10.0.3*
G04 #@! TF.CreationDate,2026-06-15T00:59:42+02:00*
G04 #@! TF.ProjectId,zHeat_PCB,7a486561-745f-4504-9342-2e6b69636164,rev?*
G04 #@! TF.SameCoordinates,Original*
G04 #@! TF.FileFunction,Soldermask,Top*
G04 #@! TF.FilePolarity,Negative*
%FSLAX46Y46*%
G04 Gerber Fmt 4.6, Leading zero omitted, Abs format (unit mm)*
G04 Created by KiCad (PCBNEW 10.0.3) date 2026-06-15 00:59:42*
%MOMM*%
%LPD*%
G01*
G04 APERTURE LIST*
G04 Aperture macros list*
%AMRoundRect*
0 Rectangle with rounded corners*
0 $1 Rounding radius*
0 $2 $3 $4 $5 $6 $7 $8 $9 X,Y pos of 4 corners*
0 Add a 4 corners polygon primitive as box body*
4,1,4,$2,$3,$4,$5,$6,$7,$8,$9,$2,$3,0*
0 Add four circle primitives for the rounded corners*
1,1,$1+$1,$2,$3*
1,1,$1+$1,$4,$5*
1,1,$1+$1,$6,$7*
1,1,$1+$1,$8,$9*
0 Add four rect primitives between the rounded corners*
20,1,$1+$1,$2,$3,$4,$5,0*
20,1,$1+$1,$4,$5,$6,$7,0*
20,1,$1+$1,$6,$7,$8,$9,0*
20,1,$1+$1,$8,$9,$2,$3,0*%
G04 Aperture macros list end*
%ADD10C,0.010000*%
%ADD11R,1.600000X3.200000*%
%ADD12RoundRect,0.250000X-0.262500X-0.450000X0.262500X-0.450000X0.262500X0.450000X-0.262500X0.450000X0*%
%ADD13RoundRect,0.250000X0.450000X-0.262500X0.450000X0.262500X-0.450000X0.262500X-0.450000X-0.262500X0*%
%ADD14RoundRect,0.250000X0.250000X0.475000X-0.250000X0.475000X-0.250000X-0.475000X0.250000X-0.475000X0*%
%ADD15RoundRect,0.250000X0.262500X0.450000X-0.262500X0.450000X-0.262500X-0.450000X0.262500X-0.450000X0*%
%ADD16RoundRect,0.243750X0.243750X0.456250X-0.243750X0.456250X-0.243750X-0.456250X0.243750X-0.456250X0*%
%ADD17RoundRect,0.200000X-0.300000X-0.200000X0.300000X-0.200000X0.300000X0.200000X-0.300000X0.200000X0*%
%ADD18R,1.250000X0.500000*%
%ADD19R,1.500000X0.900000*%
%ADD20R,0.800000X0.800000*%
%ADD21RoundRect,0.250000X-0.250000X-0.475000X0.250000X-0.475000X0.250000X0.475000X-0.250000X0.475000X0*%
%ADD22RoundRect,0.150000X0.512500X0.150000X-0.512500X0.150000X-0.512500X-0.150000X0.512500X-0.150000X0*%
%ADD23C,2.500000*%
%ADD24RoundRect,0.250000X0.475000X-0.250000X0.475000X0.250000X-0.475000X0.250000X-0.475000X-0.250000X0*%
%ADD25RoundRect,0.225000X-0.375000X0.225000X-0.375000X-0.225000X0.375000X-0.225000X0.375000X0.225000X0*%
%ADD26RoundRect,0.250000X1.000000X0.900000X-1.000000X0.900000X-1.000000X-0.900000X1.000000X-0.900000X0*%
%ADD27C,1.800000*%
%ADD28R,1.400000X1.600000*%
%ADD29RoundRect,0.087500X-0.425000X-0.087500X0.425000X-0.087500X0.425000X0.087500X-0.425000X0.087500X0*%
%ADD30RoundRect,0.375000X0.625000X0.375000X-0.625000X0.375000X-0.625000X-0.375000X0.625000X-0.375000X0*%
%ADD31RoundRect,0.500000X0.500000X1.400000X-0.500000X1.400000X-0.500000X-1.400000X0.500000X-1.400000X0*%
%ADD32R,1.525000X0.650000*%
%ADD33C,0.770000*%
%ADD34RoundRect,0.060000X-0.300000X-0.575000X0.300000X-0.575000X0.300000X0.575000X-0.300000X0.575000X0*%
%ADD35RoundRect,0.060000X-0.150000X-0.575000X0.150000X-0.575000X0.150000X0.575000X-0.150000X0.575000X0*%
%ADD36RoundRect,0.102000X-1.090000X-1.000000X1.090000X-1.000000X1.090000X1.000000X-1.090000X1.000000X0*%
%ADD37RoundRect,0.243750X-0.243750X-0.456250X0.243750X-0.456250X0.243750X0.456250X-0.243750X0.456250X0*%
%ADD38RoundRect,0.250000X-0.450000X0.262500X-0.450000X-0.262500X0.450000X-0.262500X0.450000X0.262500X0*%
%ADD39RoundRect,0.225000X0.375000X-0.225000X0.375000X0.225000X-0.375000X0.225000X-0.375000X-0.225000X0*%
%ADD40RoundRect,0.250000X0.550000X-1.500000X0.550000X1.500000X-0.550000X1.500000X-0.550000X-1.500000X0*%
%ADD41RoundRect,0.250000X-1.000000X-0.650000X1.000000X-0.650000X1.000000X0.650000X-1.000000X0.650000X0*%
%ADD42RoundRect,0.200000X0.200000X-0.300000X0.200000X0.300000X-0.200000X0.300000X-0.200000X-0.300000X0*%
G04 APERTURE END LIST*
D10*
G04 #@! TO.C,U4*
X75715000Y-90600000D02*
X75715000Y-87900000D01*
X78415000Y-87900000D01*
X78415000Y-90600000D01*
X75715000Y-90600000D01*
G36*
X78415000Y-90600000D02*
G01*
X75715000Y-90600000D01*
X75715000Y-87900000D01*
X78415000Y-87900000D01*
X78415000Y-90600000D01*
G37*
X74732000Y-87820000D02*
X75528000Y-87820000D01*
X75532000Y-87820000D01*
X75537000Y-87820000D01*
X75541000Y-87821000D01*
X75545000Y-87822000D01*
X75549000Y-87823000D01*
X75553000Y-87824000D01*
X75557000Y-87825000D01*
X75561000Y-87827000D01*
X75565000Y-87829000D01*
X75569000Y-87831000D01*
X75573000Y-87833000D01*
X75576000Y-87836000D01*
X75580000Y-87838000D01*
X75583000Y-87841000D01*
X75586000Y-87844000D01*
X75589000Y-87847000D01*
X75592000Y-87850000D01*
X75594000Y-87854000D01*
X75597000Y-87857000D01*
X75599000Y-87861000D01*
X75601000Y-87865000D01*
X75603000Y-87869000D01*
X75605000Y-87873000D01*
X75606000Y-87877000D01*
X75607000Y-87881000D01*
X75608000Y-87885000D01*
X75609000Y-87889000D01*
X75610000Y-87893000D01*
X75610000Y-87898000D01*
X75610000Y-87902000D01*
X75610000Y-88098000D01*
X75610000Y-88102000D01*
X75610000Y-88107000D01*
X75609000Y-88111000D01*
X75608000Y-88115000D01*
X75607000Y-88119000D01*
X75606000Y-88123000D01*
X75605000Y-88127000D01*
X75603000Y-88131000D01*
X75601000Y-88135000D01*
X75599000Y-88139000D01*
X75597000Y-88143000D01*
X75594000Y-88146000D01*
X75592000Y-88150000D01*
X75589000Y-88153000D01*
X75586000Y-88156000D01*
X75583000Y-88159000D01*
X75580000Y-88162000D01*
X75576000Y-88164000D01*
X75573000Y-88167000D01*
X75569000Y-88169000D01*
X75565000Y-88171000D01*
X75561000Y-88173000D01*
X75557000Y-88175000D01*
X75553000Y-88176000D01*
X75549000Y-88177000D01*
X75545000Y-88178000D01*
X75541000Y-88179000D01*
X75537000Y-88180000D01*
X75532000Y-88180000D01*
X75528000Y-88180000D01*
X74732000Y-88180000D01*
X74728000Y-88180000D01*
X74723000Y-88180000D01*
X74719000Y-88179000D01*
X74715000Y-88178000D01*
X74711000Y-88177000D01*
X74707000Y-88176000D01*
X74703000Y-88175000D01*
X74699000Y-88173000D01*
X74695000Y-88171000D01*
X74691000Y-88169000D01*
X74687000Y-88167000D01*
X74684000Y-88164000D01*
X74680000Y-88162000D01*
X74677000Y-88159000D01*
X74674000Y-88156000D01*
X74671000Y-88153000D01*
X74668000Y-88150000D01*
X74666000Y-88146000D01*
X74663000Y-88143000D01*
X74661000Y-88139000D01*
X74659000Y-88135000D01*
X74657000Y-88131000D01*
X74655000Y-88127000D01*
X74654000Y-88123000D01*
X74653000Y-88119000D01*
X74652000Y-88115000D01*
X74651000Y-88111000D01*
X74650000Y-88107000D01*
X74650000Y-88102000D01*
X74650000Y-88098000D01*
X74650000Y-87902000D01*
X74650000Y-87898000D01*
X74650000Y-87893000D01*
X74651000Y-87889000D01*
X74652000Y-87885000D01*
X74653000Y-87881000D01*
X74654000Y-87877000D01*
X74655000Y-87873000D01*
X74657000Y-87869000D01*
X74659000Y-87865000D01*
X74661000Y-87861000D01*
X74663000Y-87857000D01*
X74666000Y-87854000D01*
X74668000Y-87850000D01*
X74671000Y-87847000D01*
X74674000Y-87844000D01*
X74677000Y-87841000D01*
X74680000Y-87838000D01*
X74684000Y-87836000D01*
X74687000Y-87833000D01*
X74691000Y-87831000D01*
X74695000Y-87829000D01*
X74699000Y-87827000D01*
X74703000Y-87825000D01*
X74707000Y-87824000D01*
X74711000Y-87823000D01*
X74715000Y-87822000D01*
X74719000Y-87821000D01*
X74723000Y-87820000D01*
X74728000Y-87820000D01*
X74732000Y-87820000D01*
G36*
X75541000Y-87821000D02*
G01*
X75545000Y-87822000D01*
X75549000Y-87823000D01*
X75553000Y-87824000D01*
X75557000Y-87825000D01*
X75561000Y-87827000D01*
X75565000Y-87829000D01*
X75569000Y-87831000D01*
X75573000Y-87833000D01*
X75576000Y-87836000D01*
X75580000Y-87838000D01*
X75583000Y-87841000D01*
X75586000Y-87844000D01*
X75589000Y-87847000D01*
X75592000Y-87850000D01*
X75594000Y-87854000D01*
X75597000Y-87857000D01*
X75599000Y-87861000D01*
X75601000Y-87865000D01*
X75603000Y-87869000D01*
X75605000Y-87873000D01*
X75606000Y-87877000D01*
X75607000Y-87881000D01*
X75608000Y-87885000D01*
X75609000Y-87889000D01*
X75610000Y-87893000D01*
X75610000Y-87898000D01*
X75610000Y-87902000D01*
X75610000Y-88098000D01*
X75610000Y-88102000D01*
X75610000Y-88107000D01*
X75609000Y-88111000D01*
X75608000Y-88115000D01*
X75607000Y-88119000D01*
X75606000Y-88123000D01*
X75605000Y-88127000D01*
X75603000Y-88131000D01*
X75601000Y-88135000D01*
X75599000Y-88139000D01*
X75597000Y-88143000D01*
X75594000Y-88146000D01*
X75592000Y-88150000D01*
X75589000Y-88153000D01*
X75586000Y-88156000D01*
X75583000Y-88159000D01*
X75580000Y-88162000D01*
X75576000Y-88164000D01*
X75573000Y-88167000D01*
X75569000Y-88169000D01*
X75565000Y-88171000D01*
X75561000Y-88173000D01*
X75557000Y-88175000D01*
X75553000Y-88176000D01*
X75549000Y-88177000D01*
X75545000Y-88178000D01*
X75541000Y-88179000D01*
X75537000Y-88180000D01*
X75532000Y-88180000D01*
X75528000Y-88180000D01*
X74732000Y-88180000D01*
X74728000Y-88180000D01*
X74723000Y-88180000D01*
X74719000Y-88179000D01*
X74715000Y-88178000D01*
X74711000Y-88177000D01*
X74707000Y-88176000D01*
X74703000Y-88175000D01*
X74699000Y-88173000D01*
X74695000Y-88171000D01*
X74691000Y-88169000D01*
X74687000Y-88167000D01*
X74684000Y-88164000D01*
X74680000Y-88162000D01*
X74677000Y-88159000D01*
X74674000Y-88156000D01*
X74671000Y-88153000D01*
X74668000Y-88150000D01*
X74666000Y-88146000D01*
X74663000Y-88143000D01*
X74661000Y-88139000D01*
X74659000Y-88135000D01*
X74657000Y-88131000D01*
X74655000Y-88127000D01*
X74654000Y-88123000D01*
X74653000Y-88119000D01*
X74652000Y-88115000D01*
X74651000Y-88111000D01*
X74650000Y-88107000D01*
X74650000Y-88102000D01*
X74650000Y-88098000D01*
X74650000Y-87902000D01*
X74650000Y-87898000D01*
X74650000Y-87893000D01*
X74651000Y-87889000D01*
X74652000Y-87885000D01*
X74653000Y-87881000D01*
X74654000Y-87877000D01*
X74655000Y-87873000D01*
X74657000Y-87869000D01*
X74659000Y-87865000D01*
X74661000Y-87861000D01*
X74663000Y-87857000D01*
X74666000Y-87854000D01*
X74668000Y-87850000D01*
X74671000Y-87847000D01*
X74674000Y-87844000D01*
X74677000Y-87841000D01*
X74680000Y-87838000D01*
X74684000Y-87836000D01*
X74687000Y-87833000D01*
X74691000Y-87831000D01*
X74695000Y-87829000D01*
X74699000Y-87827000D01*
X74703000Y-87825000D01*
X74707000Y-87824000D01*
X74711000Y-87823000D01*
X74715000Y-87822000D01*
X74719000Y-87821000D01*
X74723000Y-87820000D01*
X74728000Y-87820000D01*
X74732000Y-87820000D01*
X75528000Y-87820000D01*
X75532000Y-87820000D01*
X75537000Y-87820000D01*
X75541000Y-87821000D01*
G37*
X74732000Y-88320000D02*
X75528000Y-88320000D01*
X75532000Y-88320000D01*
X75537000Y-88320000D01*
X75541000Y-88321000D01*
X75545000Y-88322000D01*
X75549000Y-88323000D01*
X75553000Y-88324000D01*
X75557000Y-88325000D01*
X75561000Y-88327000D01*
X75565000Y-88329000D01*
X75569000Y-88331000D01*
X75573000Y-88333000D01*
X75576000Y-88336000D01*
X75580000Y-88338000D01*
X75583000Y-88341000D01*
X75586000Y-88344000D01*
X75589000Y-88347000D01*
X75592000Y-88350000D01*
X75594000Y-88354000D01*
X75597000Y-88357000D01*
X75599000Y-88361000D01*
X75601000Y-88365000D01*
X75603000Y-88369000D01*
X75605000Y-88373000D01*
X75606000Y-88377000D01*
X75607000Y-88381000D01*
X75608000Y-88385000D01*
X75609000Y-88389000D01*
X75610000Y-88393000D01*
X75610000Y-88398000D01*
X75610000Y-88402000D01*
X75610000Y-88598000D01*
X75610000Y-88602000D01*
X75610000Y-88607000D01*
X75609000Y-88611000D01*
X75608000Y-88615000D01*
X75607000Y-88619000D01*
X75606000Y-88623000D01*
X75605000Y-88627000D01*
X75603000Y-88631000D01*
X75601000Y-88635000D01*
X75599000Y-88639000D01*
X75597000Y-88643000D01*
X75594000Y-88646000D01*
X75592000Y-88650000D01*
X75589000Y-88653000D01*
X75586000Y-88656000D01*
X75583000Y-88659000D01*
X75580000Y-88662000D01*
X75576000Y-88664000D01*
X75573000Y-88667000D01*
X75569000Y-88669000D01*
X75565000Y-88671000D01*
X75561000Y-88673000D01*
X75557000Y-88675000D01*
X75553000Y-88676000D01*
X75549000Y-88677000D01*
X75545000Y-88678000D01*
X75541000Y-88679000D01*
X75537000Y-88680000D01*
X75532000Y-88680000D01*
X75528000Y-88680000D01*
X74732000Y-88680000D01*
X74728000Y-88680000D01*
X74723000Y-88680000D01*
X74719000Y-88679000D01*
X74715000Y-88678000D01*
X74711000Y-88677000D01*
X74707000Y-88676000D01*
X74703000Y-88675000D01*
X74699000Y-88673000D01*
X74695000Y-88671000D01*
X74691000Y-88669000D01*
X74687000Y-88667000D01*
X74684000Y-88664000D01*
X74680000Y-88662000D01*
X74677000Y-88659000D01*
X74674000Y-88656000D01*
X74671000Y-88653000D01*
X74668000Y-88650000D01*
X74666000Y-88646000D01*
X74663000Y-88643000D01*
X74661000Y-88639000D01*
X74659000Y-88635000D01*
X74657000Y-88631000D01*
X74655000Y-88627000D01*
X74654000Y-88623000D01*
X74653000Y-88619000D01*
X74652000Y-88615000D01*
X74651000Y-88611000D01*
X74650000Y-88607000D01*
X74650000Y-88602000D01*
X74650000Y-88598000D01*
X74650000Y-88402000D01*
X74650000Y-88398000D01*
X74650000Y-88393000D01*
X74651000Y-88389000D01*
X74652000Y-88385000D01*
X74653000Y-88381000D01*
X74654000Y-88377000D01*
X74655000Y-88373000D01*
X74657000Y-88369000D01*
X74659000Y-88365000D01*
X74661000Y-88361000D01*
X74663000Y-88357000D01*
X74666000Y-88354000D01*
X74668000Y-88350000D01*
X74671000Y-88347000D01*
X74674000Y-88344000D01*
X74677000Y-88341000D01*
X74680000Y-88338000D01*
X74684000Y-88336000D01*
X74687000Y-88333000D01*
X74691000Y-88331000D01*
X74695000Y-88329000D01*
X74699000Y-88327000D01*
X74703000Y-88325000D01*
X74707000Y-88324000D01*
X74711000Y-88323000D01*
X74715000Y-88322000D01*
X74719000Y-88321000D01*
X74723000Y-88320000D01*
X74728000Y-88320000D01*
X74732000Y-88320000D01*
G36*
X75541000Y-88321000D02*
G01*
X75545000Y-88322000D01*
X75549000Y-88323000D01*
X75553000Y-88324000D01*
X75557000Y-88325000D01*
X75561000Y-88327000D01*
X75565000Y-88329000D01*
X75569000Y-88331000D01*
X75573000Y-88333000D01*
X75576000Y-88336000D01*
X75580000Y-88338000D01*
X75583000Y-88341000D01*
X75586000Y-88344000D01*
X75589000Y-88347000D01*
X75592000Y-88350000D01*
X75594000Y-88354000D01*
X75597000Y-88357000D01*
X75599000Y-88361000D01*
X75601000Y-88365000D01*
X75603000Y-88369000D01*
X75605000Y-88373000D01*
X75606000Y-88377000D01*
X75607000Y-88381000D01*
X75608000Y-88385000D01*
X75609000Y-88389000D01*
X75610000Y-88393000D01*
X75610000Y-88398000D01*
X75610000Y-88402000D01*
X75610000Y-88598000D01*
X75610000Y-88602000D01*
X75610000Y-88607000D01*
X75609000Y-88611000D01*
X75608000Y-88615000D01*
X75607000Y-88619000D01*
X75606000Y-88623000D01*
X75605000Y-88627000D01*
X75603000Y-88631000D01*
X75601000Y-88635000D01*
X75599000Y-88639000D01*
X75597000Y-88643000D01*
X75594000Y-88646000D01*
X75592000Y-88650000D01*
X75589000Y-88653000D01*
X75586000Y-88656000D01*
X75583000Y-88659000D01*
X75580000Y-88662000D01*
X75576000Y-88664000D01*
X75573000Y-88667000D01*
X75569000Y-88669000D01*
X75565000Y-88671000D01*
X75561000Y-88673000D01*
X75557000Y-88675000D01*
X75553000Y-88676000D01*
X75549000Y-88677000D01*
X75545000Y-88678000D01*
X75541000Y-88679000D01*
X75537000Y-88680000D01*
X75532000Y-88680000D01*
X75528000Y-88680000D01*
X74732000Y-88680000D01*
X74728000Y-88680000D01*
X74723000Y-88680000D01*
X74719000Y-88679000D01*
X74715000Y-88678000D01*
X74711000Y-88677000D01*
X74707000Y-88676000D01*
X74703000Y-88675000D01*
X74699000Y-88673000D01*
X74695000Y-88671000D01*
X74691000Y-88669000D01*
X74687000Y-88667000D01*
X74684000Y-88664000D01*
X74680000Y-88662000D01*
X74677000Y-88659000D01*
X74674000Y-88656000D01*
X74671000Y-88653000D01*
X74668000Y-88650000D01*
X74666000Y-88646000D01*
X74663000Y-88643000D01*
X74661000Y-88639000D01*
X74659000Y-88635000D01*
X74657000Y-88631000D01*
X74655000Y-88627000D01*
X74654000Y-88623000D01*
X74653000Y-88619000D01*
X74652000Y-88615000D01*
X74651000Y-88611000D01*
X74650000Y-88607000D01*
X74650000Y-88602000D01*
X74650000Y-88598000D01*
X74650000Y-88402000D01*
X74650000Y-88398000D01*
X74650000Y-88393000D01*
X74651000Y-88389000D01*
X74652000Y-88385000D01*
X74653000Y-88381000D01*
X74654000Y-88377000D01*
X74655000Y-88373000D01*
X74657000Y-88369000D01*
X74659000Y-88365000D01*
X74661000Y-88361000D01*
X74663000Y-88357000D01*
X74666000Y-88354000D01*
X74668000Y-88350000D01*
X74671000Y-88347000D01*
X74674000Y-88344000D01*
X74677000Y-88341000D01*
X74680000Y-88338000D01*
X74684000Y-88336000D01*
X74687000Y-88333000D01*
X74691000Y-88331000D01*
X74695000Y-88329000D01*
X74699000Y-88327000D01*
X74703000Y-88325000D01*
X74707000Y-88324000D01*
X74711000Y-88323000D01*
X74715000Y-88322000D01*
X74719000Y-88321000D01*
X74723000Y-88320000D01*
X74728000Y-88320000D01*
X74732000Y-88320000D01*
X75528000Y-88320000D01*
X75532000Y-88320000D01*
X75537000Y-88320000D01*
X75541000Y-88321000D01*
G37*
X74732000Y-88820000D02*
X75528000Y-88820000D01*
X75532000Y-88820000D01*
X75537000Y-88820000D01*
X75541000Y-88821000D01*
X75545000Y-88822000D01*
X75549000Y-88823000D01*
X75553000Y-88824000D01*
X75557000Y-88825000D01*
X75561000Y-88827000D01*
X75565000Y-88829000D01*
X75569000Y-88831000D01*
X75573000Y-88833000D01*
X75576000Y-88836000D01*
X75580000Y-88838000D01*
X75583000Y-88841000D01*
X75586000Y-88844000D01*
X75589000Y-88847000D01*
X75592000Y-88850000D01*
X75594000Y-88854000D01*
X75597000Y-88857000D01*
X75599000Y-88861000D01*
X75601000Y-88865000D01*
X75603000Y-88869000D01*
X75605000Y-88873000D01*
X75606000Y-88877000D01*
X75607000Y-88881000D01*
X75608000Y-88885000D01*
X75609000Y-88889000D01*
X75610000Y-88893000D01*
X75610000Y-88898000D01*
X75610000Y-88902000D01*
X75610000Y-89098000D01*
X75610000Y-89102000D01*
X75610000Y-89107000D01*
X75609000Y-89111000D01*
X75608000Y-89115000D01*
X75607000Y-89119000D01*
X75606000Y-89123000D01*
X75605000Y-89127000D01*
X75603000Y-89131000D01*
X75601000Y-89135000D01*
X75599000Y-89139000D01*
X75597000Y-89143000D01*
X75594000Y-89146000D01*
X75592000Y-89150000D01*
X75589000Y-89153000D01*
X75586000Y-89156000D01*
X75583000Y-89159000D01*
X75580000Y-89162000D01*
X75576000Y-89164000D01*
X75573000Y-89167000D01*
X75569000Y-89169000D01*
X75565000Y-89171000D01*
X75561000Y-89173000D01*
X75557000Y-89175000D01*
X75553000Y-89176000D01*
X75549000Y-89177000D01*
X75545000Y-89178000D01*
X75541000Y-89179000D01*
X75537000Y-89180000D01*
X75532000Y-89180000D01*
X75528000Y-89180000D01*
X74732000Y-89180000D01*
X74728000Y-89180000D01*
X74723000Y-89180000D01*
X74719000Y-89179000D01*
X74715000Y-89178000D01*
X74711000Y-89177000D01*
X74707000Y-89176000D01*
X74703000Y-89175000D01*
X74699000Y-89173000D01*
X74695000Y-89171000D01*
X74691000Y-89169000D01*
X74687000Y-89167000D01*
X74684000Y-89164000D01*
X74680000Y-89162000D01*
X74677000Y-89159000D01*
X74674000Y-89156000D01*
X74671000Y-89153000D01*
X74668000Y-89150000D01*
X74666000Y-89146000D01*
X74663000Y-89143000D01*
X74661000Y-89139000D01*
X74659000Y-89135000D01*
X74657000Y-89131000D01*
X74655000Y-89127000D01*
X74654000Y-89123000D01*
X74653000Y-89119000D01*
X74652000Y-89115000D01*
X74651000Y-89111000D01*
X74650000Y-89107000D01*
X74650000Y-89102000D01*
X74650000Y-89098000D01*
X74650000Y-88902000D01*
X74650000Y-88898000D01*
X74650000Y-88893000D01*
X74651000Y-88889000D01*
X74652000Y-88885000D01*
X74653000Y-88881000D01*
X74654000Y-88877000D01*
X74655000Y-88873000D01*
X74657000Y-88869000D01*
X74659000Y-88865000D01*
X74661000Y-88861000D01*
X74663000Y-88857000D01*
X74666000Y-88854000D01*
X74668000Y-88850000D01*
X74671000Y-88847000D01*
X74674000Y-88844000D01*
X74677000Y-88841000D01*
X74680000Y-88838000D01*
X74684000Y-88836000D01*
X74687000Y-88833000D01*
X74691000Y-88831000D01*
X74695000Y-88829000D01*
X74699000Y-88827000D01*
X74703000Y-88825000D01*
X74707000Y-88824000D01*
X74711000Y-88823000D01*
X74715000Y-88822000D01*
X74719000Y-88821000D01*
X74723000Y-88820000D01*
X74728000Y-88820000D01*
X74732000Y-88820000D01*
G36*
X75541000Y-88821000D02*
G01*
X75545000Y-88822000D01*
X75549000Y-88823000D01*
X75553000Y-88824000D01*
X75557000Y-88825000D01*
X75561000Y-88827000D01*
X75565000Y-88829000D01*
X75569000Y-88831000D01*
X75573000Y-88833000D01*
X75576000Y-88836000D01*
X75580000Y-88838000D01*
X75583000Y-88841000D01*
X75586000Y-88844000D01*
X75589000Y-88847000D01*
X75592000Y-88850000D01*
X75594000Y-88854000D01*
X75597000Y-88857000D01*
X75599000Y-88861000D01*
X75601000Y-88865000D01*
X75603000Y-88869000D01*
X75605000Y-88873000D01*
X75606000Y-88877000D01*
X75607000Y-88881000D01*
X75608000Y-88885000D01*
X75609000Y-88889000D01*
X75610000Y-88893000D01*
X75610000Y-88898000D01*
X75610000Y-88902000D01*
X75610000Y-89098000D01*
X75610000Y-89102000D01*
X75610000Y-89107000D01*
X75609000Y-89111000D01*
X75608000Y-89115000D01*
X75607000Y-89119000D01*
X75606000Y-89123000D01*
X75605000Y-89127000D01*
X75603000Y-89131000D01*
X75601000Y-89135000D01*
X75599000Y-89139000D01*
X75597000Y-89143000D01*
X75594000Y-89146000D01*
X75592000Y-89150000D01*
X75589000Y-89153000D01*
X75586000Y-89156000D01*
X75583000Y-89159000D01*
X75580000Y-89162000D01*
X75576000Y-89164000D01*
X75573000Y-89167000D01*
X75569000Y-89169000D01*
X75565000Y-89171000D01*
X75561000Y-89173000D01*
X75557000Y-89175000D01*
X75553000Y-89176000D01*
X75549000Y-89177000D01*
X75545000Y-89178000D01*
X75541000Y-89179000D01*
X75537000Y-89180000D01*
X75532000Y-89180000D01*
X75528000Y-89180000D01*
X74732000Y-89180000D01*
X74728000Y-89180000D01*
X74723000Y-89180000D01*
X74719000Y-89179000D01*
X74715000Y-89178000D01*
X74711000Y-89177000D01*
X74707000Y-89176000D01*
X74703000Y-89175000D01*
X74699000Y-89173000D01*
X74695000Y-89171000D01*
X74691000Y-89169000D01*
X74687000Y-89167000D01*
X74684000Y-89164000D01*
X74680000Y-89162000D01*
X74677000Y-89159000D01*
X74674000Y-89156000D01*
X74671000Y-89153000D01*
X74668000Y-89150000D01*
X74666000Y-89146000D01*
X74663000Y-89143000D01*
X74661000Y-89139000D01*
X74659000Y-89135000D01*
X74657000Y-89131000D01*
X74655000Y-89127000D01*
X74654000Y-89123000D01*
X74653000Y-89119000D01*
X74652000Y-89115000D01*
X74651000Y-89111000D01*
X74650000Y-89107000D01*
X74650000Y-89102000D01*
X74650000Y-89098000D01*
X74650000Y-88902000D01*
X74650000Y-88898000D01*
X74650000Y-88893000D01*
X74651000Y-88889000D01*
X74652000Y-88885000D01*
X74653000Y-88881000D01*
X74654000Y-88877000D01*
X74655000Y-88873000D01*
X74657000Y-88869000D01*
X74659000Y-88865000D01*
X74661000Y-88861000D01*
X74663000Y-88857000D01*
X74666000Y-88854000D01*
X74668000Y-88850000D01*
X74671000Y-88847000D01*
X74674000Y-88844000D01*
X74677000Y-88841000D01*
X74680000Y-88838000D01*
X74684000Y-88836000D01*
X74687000Y-88833000D01*
X74691000Y-88831000D01*
X74695000Y-88829000D01*
X74699000Y-88827000D01*
X74703000Y-88825000D01*
X74707000Y-88824000D01*
X74711000Y-88823000D01*
X74715000Y-88822000D01*
X74719000Y-88821000D01*
X74723000Y-88820000D01*
X74728000Y-88820000D01*
X74732000Y-88820000D01*
X75528000Y-88820000D01*
X75532000Y-88820000D01*
X75537000Y-88820000D01*
X75541000Y-88821000D01*
G37*
X74732000Y-89320000D02*
X75528000Y-89320000D01*
X75532000Y-89320000D01*
X75537000Y-89320000D01*
X75541000Y-89321000D01*
X75545000Y-89322000D01*
X75549000Y-89323000D01*
X75553000Y-89324000D01*
X75557000Y-89325000D01*
X75561000Y-89327000D01*
X75565000Y-89329000D01*
X75569000Y-89331000D01*
X75573000Y-89333000D01*
X75576000Y-89336000D01*
X75580000Y-89338000D01*
X75583000Y-89341000D01*
X75586000Y-89344000D01*
X75589000Y-89347000D01*
X75592000Y-89350000D01*
X75594000Y-89354000D01*
X75597000Y-89357000D01*
X75599000Y-89361000D01*
X75601000Y-89365000D01*
X75603000Y-89369000D01*
X75605000Y-89373000D01*
X75606000Y-89377000D01*
X75607000Y-89381000D01*
X75608000Y-89385000D01*
X75609000Y-89389000D01*
X75610000Y-89393000D01*
X75610000Y-89398000D01*
X75610000Y-89402000D01*
X75610000Y-89598000D01*
X75610000Y-89602000D01*
X75610000Y-89607000D01*
X75609000Y-89611000D01*
X75608000Y-89615000D01*
X75607000Y-89619000D01*
X75606000Y-89623000D01*
X75605000Y-89627000D01*
X75603000Y-89631000D01*
X75601000Y-89635000D01*
X75599000Y-89639000D01*
X75597000Y-89643000D01*
X75594000Y-89646000D01*
X75592000Y-89650000D01*
X75589000Y-89653000D01*
X75586000Y-89656000D01*
X75583000Y-89659000D01*
X75580000Y-89662000D01*
X75576000Y-89664000D01*
X75573000Y-89667000D01*
X75569000Y-89669000D01*
X75565000Y-89671000D01*
X75561000Y-89673000D01*
X75557000Y-89675000D01*
X75553000Y-89676000D01*
X75549000Y-89677000D01*
X75545000Y-89678000D01*
X75541000Y-89679000D01*
X75537000Y-89680000D01*
X75532000Y-89680000D01*
X75528000Y-89680000D01*
X74732000Y-89680000D01*
X74728000Y-89680000D01*
X74723000Y-89680000D01*
X74719000Y-89679000D01*
X74715000Y-89678000D01*
X74711000Y-89677000D01*
X74707000Y-89676000D01*
X74703000Y-89675000D01*
X74699000Y-89673000D01*
X74695000Y-89671000D01*
X74691000Y-89669000D01*
X74687000Y-89667000D01*
X74684000Y-89664000D01*
X74680000Y-89662000D01*
X74677000Y-89659000D01*
X74674000Y-89656000D01*
X74671000Y-89653000D01*
X74668000Y-89650000D01*
X74666000Y-89646000D01*
X74663000Y-89643000D01*
X74661000Y-89639000D01*
X74659000Y-89635000D01*
X74657000Y-89631000D01*
X74655000Y-89627000D01*
X74654000Y-89623000D01*
X74653000Y-89619000D01*
X74652000Y-89615000D01*
X74651000Y-89611000D01*
X74650000Y-89607000D01*
X74650000Y-89602000D01*
X74650000Y-89598000D01*
X74650000Y-89402000D01*
X74650000Y-89398000D01*
X74650000Y-89393000D01*
X74651000Y-89389000D01*
X74652000Y-89385000D01*
X74653000Y-89381000D01*
X74654000Y-89377000D01*
X74655000Y-89373000D01*
X74657000Y-89369000D01*
X74659000Y-89365000D01*
X74661000Y-89361000D01*
X74663000Y-89357000D01*
X74666000Y-89354000D01*
X74668000Y-89350000D01*
X74671000Y-89347000D01*
X74674000Y-89344000D01*
X74677000Y-89341000D01*
X74680000Y-89338000D01*
X74684000Y-89336000D01*
X74687000Y-89333000D01*
X74691000Y-89331000D01*
X74695000Y-89329000D01*
X74699000Y-89327000D01*
X74703000Y-89325000D01*
X74707000Y-89324000D01*
X74711000Y-89323000D01*
X74715000Y-89322000D01*
X74719000Y-89321000D01*
X74723000Y-89320000D01*
X74728000Y-89320000D01*
X74732000Y-89320000D01*
G36*
X75541000Y-89321000D02*
G01*
X75545000Y-89322000D01*
X75549000Y-89323000D01*
X75553000Y-89324000D01*
X75557000Y-89325000D01*
X75561000Y-89327000D01*
X75565000Y-89329000D01*
X75569000Y-89331000D01*
X75573000Y-89333000D01*
X75576000Y-89336000D01*
X75580000Y-89338000D01*
X75583000Y-89341000D01*
X75586000Y-89344000D01*
X75589000Y-89347000D01*
X75592000Y-89350000D01*
X75594000Y-89354000D01*
X75597000Y-89357000D01*
X75599000Y-89361000D01*
X75601000Y-89365000D01*
X75603000Y-89369000D01*
X75605000Y-89373000D01*
X75606000Y-89377000D01*
X75607000Y-89381000D01*
X75608000Y-89385000D01*
X75609000Y-89389000D01*
X75610000Y-89393000D01*
X75610000Y-89398000D01*
X75610000Y-89402000D01*
X75610000Y-89598000D01*
X75610000Y-89602000D01*
X75610000Y-89607000D01*
X75609000Y-89611000D01*
X75608000Y-89615000D01*
X75607000Y-89619000D01*
X75606000Y-89623000D01*
X75605000Y-89627000D01*
X75603000Y-89631000D01*
X75601000Y-89635000D01*
X75599000Y-89639000D01*
X75597000Y-89643000D01*
X75594000Y-89646000D01*
X75592000Y-89650000D01*
X75589000Y-89653000D01*
X75586000Y-89656000D01*
X75583000Y-89659000D01*
X75580000Y-89662000D01*
X75576000Y-89664000D01*
X75573000Y-89667000D01*
X75569000Y-89669000D01*
X75565000Y-89671000D01*
X75561000Y-89673000D01*
X75557000Y-89675000D01*
X75553000Y-89676000D01*
X75549000Y-89677000D01*
X75545000Y-89678000D01*
X75541000Y-89679000D01*
X75537000Y-89680000D01*
X75532000Y-89680000D01*
X75528000Y-89680000D01*
X74732000Y-89680000D01*
X74728000Y-89680000D01*
X74723000Y-89680000D01*
X74719000Y-89679000D01*
X74715000Y-89678000D01*
X74711000Y-89677000D01*
X74707000Y-89676000D01*
X74703000Y-89675000D01*
X74699000Y-89673000D01*
X74695000Y-89671000D01*
X74691000Y-89669000D01*
X74687000Y-89667000D01*
X74684000Y-89664000D01*
X74680000Y-89662000D01*
X74677000Y-89659000D01*
X74674000Y-89656000D01*
X74671000Y-89653000D01*
X74668000Y-89650000D01*
X74666000Y-89646000D01*
X74663000Y-89643000D01*
X74661000Y-89639000D01*
X74659000Y-89635000D01*
X74657000Y-89631000D01*
X74655000Y-89627000D01*
X74654000Y-89623000D01*
X74653000Y-89619000D01*
X74652000Y-89615000D01*
X74651000Y-89611000D01*
X74650000Y-89607000D01*
X74650000Y-89602000D01*
X74650000Y-89598000D01*
X74650000Y-89402000D01*
X74650000Y-89398000D01*
X74650000Y-89393000D01*
X74651000Y-89389000D01*
X74652000Y-89385000D01*
X74653000Y-89381000D01*
X74654000Y-89377000D01*
X74655000Y-89373000D01*
X74657000Y-89369000D01*
X74659000Y-89365000D01*
X74661000Y-89361000D01*
X74663000Y-89357000D01*
X74666000Y-89354000D01*
X74668000Y-89350000D01*
X74671000Y-89347000D01*
X74674000Y-89344000D01*
X74677000Y-89341000D01*
X74680000Y-89338000D01*
X74684000Y-89336000D01*
X74687000Y-89333000D01*
X74691000Y-89331000D01*
X74695000Y-89329000D01*
X74699000Y-89327000D01*
X74703000Y-89325000D01*
X74707000Y-89324000D01*
X74711000Y-89323000D01*
X74715000Y-89322000D01*
X74719000Y-89321000D01*
X74723000Y-89320000D01*
X74728000Y-89320000D01*
X74732000Y-89320000D01*
X75528000Y-89320000D01*
X75532000Y-89320000D01*
X75537000Y-89320000D01*
X75541000Y-89321000D01*
G37*
X74732000Y-89820000D02*
X75528000Y-89820000D01*
X75532000Y-89820000D01*
X75537000Y-89820000D01*
X75541000Y-89821000D01*
X75545000Y-89822000D01*
X75549000Y-89823000D01*
X75553000Y-89824000D01*
X75557000Y-89825000D01*
X75561000Y-89827000D01*
X75565000Y-89829000D01*
X75569000Y-89831000D01*
X75573000Y-89833000D01*
X75576000Y-89836000D01*
X75580000Y-89838000D01*
X75583000Y-89841000D01*
X75586000Y-89844000D01*
X75589000Y-89847000D01*
X75592000Y-89850000D01*
X75594000Y-89854000D01*
X75597000Y-89857000D01*
X75599000Y-89861000D01*
X75601000Y-89865000D01*
X75603000Y-89869000D01*
X75605000Y-89873000D01*
X75606000Y-89877000D01*
X75607000Y-89881000D01*
X75608000Y-89885000D01*
X75609000Y-89889000D01*
X75610000Y-89893000D01*
X75610000Y-89898000D01*
X75610000Y-89902000D01*
X75610000Y-90098000D01*
X75610000Y-90102000D01*
X75610000Y-90107000D01*
X75609000Y-90111000D01*
X75608000Y-90115000D01*
X75607000Y-90119000D01*
X75606000Y-90123000D01*
X75605000Y-90127000D01*
X75603000Y-90131000D01*
X75601000Y-90135000D01*
X75599000Y-90139000D01*
X75597000Y-90143000D01*
X75594000Y-90146000D01*
X75592000Y-90150000D01*
X75589000Y-90153000D01*
X75586000Y-90156000D01*
X75583000Y-90159000D01*
X75580000Y-90162000D01*
X75576000Y-90164000D01*
X75573000Y-90167000D01*
X75569000Y-90169000D01*
X75565000Y-90171000D01*
X75561000Y-90173000D01*
X75557000Y-90175000D01*
X75553000Y-90176000D01*
X75549000Y-90177000D01*
X75545000Y-90178000D01*
X75541000Y-90179000D01*
X75537000Y-90180000D01*
X75532000Y-90180000D01*
X75528000Y-90180000D01*
X74732000Y-90180000D01*
X74728000Y-90180000D01*
X74723000Y-90180000D01*
X74719000Y-90179000D01*
X74715000Y-90178000D01*
X74711000Y-90177000D01*
X74707000Y-90176000D01*
X74703000Y-90175000D01*
X74699000Y-90173000D01*
X74695000Y-90171000D01*
X74691000Y-90169000D01*
X74687000Y-90167000D01*
X74684000Y-90164000D01*
X74680000Y-90162000D01*
X74677000Y-90159000D01*
X74674000Y-90156000D01*
X74671000Y-90153000D01*
X74668000Y-90150000D01*
X74666000Y-90146000D01*
X74663000Y-90143000D01*
X74661000Y-90139000D01*
X74659000Y-90135000D01*
X74657000Y-90131000D01*
X74655000Y-90127000D01*
X74654000Y-90123000D01*
X74653000Y-90119000D01*
X74652000Y-90115000D01*
X74651000Y-90111000D01*
X74650000Y-90107000D01*
X74650000Y-90102000D01*
X74650000Y-90098000D01*
X74650000Y-89902000D01*
X74650000Y-89898000D01*
X74650000Y-89893000D01*
X74651000Y-89889000D01*
X74652000Y-89885000D01*
X74653000Y-89881000D01*
X74654000Y-89877000D01*
X74655000Y-89873000D01*
X74657000Y-89869000D01*
X74659000Y-89865000D01*
X74661000Y-89861000D01*
X74663000Y-89857000D01*
X74666000Y-89854000D01*
X74668000Y-89850000D01*
X74671000Y-89847000D01*
X74674000Y-89844000D01*
X74677000Y-89841000D01*
X74680000Y-89838000D01*
X74684000Y-89836000D01*
X74687000Y-89833000D01*
X74691000Y-89831000D01*
X74695000Y-89829000D01*
X74699000Y-89827000D01*
X74703000Y-89825000D01*
X74707000Y-89824000D01*
X74711000Y-89823000D01*
X74715000Y-89822000D01*
X74719000Y-89821000D01*
X74723000Y-89820000D01*
X74728000Y-89820000D01*
X74732000Y-89820000D01*
G36*
X75541000Y-89821000D02*
G01*
X75545000Y-89822000D01*
X75549000Y-89823000D01*
X75553000Y-89824000D01*
X75557000Y-89825000D01*
X75561000Y-89827000D01*
X75565000Y-89829000D01*
X75569000Y-89831000D01*
X75573000Y-89833000D01*
X75576000Y-89836000D01*
X75580000Y-89838000D01*
X75583000Y-89841000D01*
X75586000Y-89844000D01*
X75589000Y-89847000D01*
X75592000Y-89850000D01*
X75594000Y-89854000D01*
X75597000Y-89857000D01*
X75599000Y-89861000D01*
X75601000Y-89865000D01*
X75603000Y-89869000D01*
X75605000Y-89873000D01*
X75606000Y-89877000D01*
X75607000Y-89881000D01*
X75608000Y-89885000D01*
X75609000Y-89889000D01*
X75610000Y-89893000D01*
X75610000Y-89898000D01*
X75610000Y-89902000D01*
X75610000Y-90098000D01*
X75610000Y-90102000D01*
X75610000Y-90107000D01*
X75609000Y-90111000D01*
X75608000Y-90115000D01*
X75607000Y-90119000D01*
X75606000Y-90123000D01*
X75605000Y-90127000D01*
X75603000Y-90131000D01*
X75601000Y-90135000D01*
X75599000Y-90139000D01*
X75597000Y-90143000D01*
X75594000Y-90146000D01*
X75592000Y-90150000D01*
X75589000Y-90153000D01*
X75586000Y-90156000D01*
X75583000Y-90159000D01*
X75580000Y-90162000D01*
X75576000Y-90164000D01*
X75573000Y-90167000D01*
X75569000Y-90169000D01*
X75565000Y-90171000D01*
X75561000Y-90173000D01*
X75557000Y-90175000D01*
X75553000Y-90176000D01*
X75549000Y-90177000D01*
X75545000Y-90178000D01*
X75541000Y-90179000D01*
X75537000Y-90180000D01*
X75532000Y-90180000D01*
X75528000Y-90180000D01*
X74732000Y-90180000D01*
X74728000Y-90180000D01*
X74723000Y-90180000D01*
X74719000Y-90179000D01*
X74715000Y-90178000D01*
X74711000Y-90177000D01*
X74707000Y-90176000D01*
X74703000Y-90175000D01*
X74699000Y-90173000D01*
X74695000Y-90171000D01*
X74691000Y-90169000D01*
X74687000Y-90167000D01*
X74684000Y-90164000D01*
X74680000Y-90162000D01*
X74677000Y-90159000D01*
X74674000Y-90156000D01*
X74671000Y-90153000D01*
X74668000Y-90150000D01*
X74666000Y-90146000D01*
X74663000Y-90143000D01*
X74661000Y-90139000D01*
X74659000Y-90135000D01*
X74657000Y-90131000D01*
X74655000Y-90127000D01*
X74654000Y-90123000D01*
X74653000Y-90119000D01*
X74652000Y-90115000D01*
X74651000Y-90111000D01*
X74650000Y-90107000D01*
X74650000Y-90102000D01*
X74650000Y-90098000D01*
X74650000Y-89902000D01*
X74650000Y-89898000D01*
X74650000Y-89893000D01*
X74651000Y-89889000D01*
X74652000Y-89885000D01*
X74653000Y-89881000D01*
X74654000Y-89877000D01*
X74655000Y-89873000D01*
X74657000Y-89869000D01*
X74659000Y-89865000D01*
X74661000Y-89861000D01*
X74663000Y-89857000D01*
X74666000Y-89854000D01*
X74668000Y-89850000D01*
X74671000Y-89847000D01*
X74674000Y-89844000D01*
X74677000Y-89841000D01*
X74680000Y-89838000D01*
X74684000Y-89836000D01*
X74687000Y-89833000D01*
X74691000Y-89831000D01*
X74695000Y-89829000D01*
X74699000Y-89827000D01*
X74703000Y-89825000D01*
X74707000Y-89824000D01*
X74711000Y-89823000D01*
X74715000Y-89822000D01*
X74719000Y-89821000D01*
X74723000Y-89820000D01*
X74728000Y-89820000D01*
X74732000Y-89820000D01*
X75528000Y-89820000D01*
X75532000Y-89820000D01*
X75537000Y-89820000D01*
X75541000Y-89821000D01*
G37*
X74732000Y-90320000D02*
X75528000Y-90320000D01*
X75532000Y-90320000D01*
X75537000Y-90320000D01*
X75541000Y-90321000D01*
X75545000Y-90322000D01*
X75549000Y-90323000D01*
X75553000Y-90324000D01*
X75557000Y-90325000D01*
X75561000Y-90327000D01*
X75565000Y-90329000D01*
X75569000Y-90331000D01*
X75573000Y-90333000D01*
X75576000Y-90336000D01*
X75580000Y-90338000D01*
X75583000Y-90341000D01*
X75586000Y-90344000D01*
X75589000Y-90347000D01*
X75592000Y-90350000D01*
X75594000Y-90354000D01*
X75597000Y-90357000D01*
X75599000Y-90361000D01*
X75601000Y-90365000D01*
X75603000Y-90369000D01*
X75605000Y-90373000D01*
X75606000Y-90377000D01*
X75607000Y-90381000D01*
X75608000Y-90385000D01*
X75609000Y-90389000D01*
X75610000Y-90393000D01*
X75610000Y-90398000D01*
X75610000Y-90402000D01*
X75610000Y-90598000D01*
X75610000Y-90602000D01*
X75610000Y-90607000D01*
X75609000Y-90611000D01*
X75608000Y-90615000D01*
X75607000Y-90619000D01*
X75606000Y-90623000D01*
X75605000Y-90627000D01*
X75603000Y-90631000D01*
X75601000Y-90635000D01*
X75599000Y-90639000D01*
X75597000Y-90643000D01*
X75594000Y-90646000D01*
X75592000Y-90650000D01*
X75589000Y-90653000D01*
X75586000Y-90656000D01*
X75583000Y-90659000D01*
X75580000Y-90662000D01*
X75576000Y-90664000D01*
X75573000Y-90667000D01*
X75569000Y-90669000D01*
X75565000Y-90671000D01*
X75561000Y-90673000D01*
X75557000Y-90675000D01*
X75553000Y-90676000D01*
X75549000Y-90677000D01*
X75545000Y-90678000D01*
X75541000Y-90679000D01*
X75537000Y-90680000D01*
X75532000Y-90680000D01*
X75528000Y-90680000D01*
X74732000Y-90680000D01*
X74728000Y-90680000D01*
X74723000Y-90680000D01*
X74719000Y-90679000D01*
X74715000Y-90678000D01*
X74711000Y-90677000D01*
X74707000Y-90676000D01*
X74703000Y-90675000D01*
X74699000Y-90673000D01*
X74695000Y-90671000D01*
X74691000Y-90669000D01*
X74687000Y-90667000D01*
X74684000Y-90664000D01*
X74680000Y-90662000D01*
X74677000Y-90659000D01*
X74674000Y-90656000D01*
X74671000Y-90653000D01*
X74668000Y-90650000D01*
X74666000Y-90646000D01*
X74663000Y-90643000D01*
X74661000Y-90639000D01*
X74659000Y-90635000D01*
X74657000Y-90631000D01*
X74655000Y-90627000D01*
X74654000Y-90623000D01*
X74653000Y-90619000D01*
X74652000Y-90615000D01*
X74651000Y-90611000D01*
X74650000Y-90607000D01*
X74650000Y-90602000D01*
X74650000Y-90598000D01*
X74650000Y-90402000D01*
X74650000Y-90398000D01*
X74650000Y-90393000D01*
X74651000Y-90389000D01*
X74652000Y-90385000D01*
X74653000Y-90381000D01*
X74654000Y-90377000D01*
X74655000Y-90373000D01*
X74657000Y-90369000D01*
X74659000Y-90365000D01*
X74661000Y-90361000D01*
X74663000Y-90357000D01*
X74666000Y-90354000D01*
X74668000Y-90350000D01*
X74671000Y-90347000D01*
X74674000Y-90344000D01*
X74677000Y-90341000D01*
X74680000Y-90338000D01*
X74684000Y-90336000D01*
X74687000Y-90333000D01*
X74691000Y-90331000D01*
X74695000Y-90329000D01*
X74699000Y-90327000D01*
X74703000Y-90325000D01*
X74707000Y-90324000D01*
X74711000Y-90323000D01*
X74715000Y-90322000D01*
X74719000Y-90321000D01*
X74723000Y-90320000D01*
X74728000Y-90320000D01*
X74732000Y-90320000D01*
G36*
X75541000Y-90321000D02*
G01*
X75545000Y-90322000D01*
X75549000Y-90323000D01*
X75553000Y-90324000D01*
X75557000Y-90325000D01*
X75561000Y-90327000D01*
X75565000Y-90329000D01*
X75569000Y-90331000D01*
X75573000Y-90333000D01*
X75576000Y-90336000D01*
X75580000Y-90338000D01*
X75583000Y-90341000D01*
X75586000Y-90344000D01*
X75589000Y-90347000D01*
X75592000Y-90350000D01*
X75594000Y-90354000D01*
X75597000Y-90357000D01*
X75599000Y-90361000D01*
X75601000Y-90365000D01*
X75603000Y-90369000D01*
X75605000Y-90373000D01*
X75606000Y-90377000D01*
X75607000Y-90381000D01*
X75608000Y-90385000D01*
X75609000Y-90389000D01*
X75610000Y-90393000D01*
X75610000Y-90398000D01*
X75610000Y-90402000D01*
X75610000Y-90598000D01*
X75610000Y-90602000D01*
X75610000Y-90607000D01*
X75609000Y-90611000D01*
X75608000Y-90615000D01*
X75607000Y-90619000D01*
X75606000Y-90623000D01*
X75605000Y-90627000D01*
X75603000Y-90631000D01*
X75601000Y-90635000D01*
X75599000Y-90639000D01*
X75597000Y-90643000D01*
X75594000Y-90646000D01*
X75592000Y-90650000D01*
X75589000Y-90653000D01*
X75586000Y-90656000D01*
X75583000Y-90659000D01*
X75580000Y-90662000D01*
X75576000Y-90664000D01*
X75573000Y-90667000D01*
X75569000Y-90669000D01*
X75565000Y-90671000D01*
X75561000Y-90673000D01*
X75557000Y-90675000D01*
X75553000Y-90676000D01*
X75549000Y-90677000D01*
X75545000Y-90678000D01*
X75541000Y-90679000D01*
X75537000Y-90680000D01*
X75532000Y-90680000D01*
X75528000Y-90680000D01*
X74732000Y-90680000D01*
X74728000Y-90680000D01*
X74723000Y-90680000D01*
X74719000Y-90679000D01*
X74715000Y-90678000D01*
X74711000Y-90677000D01*
X74707000Y-90676000D01*
X74703000Y-90675000D01*
X74699000Y-90673000D01*
X74695000Y-90671000D01*
X74691000Y-90669000D01*
X74687000Y-90667000D01*
X74684000Y-90664000D01*
X74680000Y-90662000D01*
X74677000Y-90659000D01*
X74674000Y-90656000D01*
X74671000Y-90653000D01*
X74668000Y-90650000D01*
X74666000Y-90646000D01*
X74663000Y-90643000D01*
X74661000Y-90639000D01*
X74659000Y-90635000D01*
X74657000Y-90631000D01*
X74655000Y-90627000D01*
X74654000Y-90623000D01*
X74653000Y-90619000D01*
X74652000Y-90615000D01*
X74651000Y-90611000D01*
X74650000Y-90607000D01*
X74650000Y-90602000D01*
X74650000Y-90598000D01*
X74650000Y-90402000D01*
X74650000Y-90398000D01*
X74650000Y-90393000D01*
X74651000Y-90389000D01*
X74652000Y-90385000D01*
X74653000Y-90381000D01*
X74654000Y-90377000D01*
X74655000Y-90373000D01*
X74657000Y-90369000D01*
X74659000Y-90365000D01*
X74661000Y-90361000D01*
X74663000Y-90357000D01*
X74666000Y-90354000D01*
X74668000Y-90350000D01*
X74671000Y-90347000D01*
X74674000Y-90344000D01*
X74677000Y-90341000D01*
X74680000Y-90338000D01*
X74684000Y-90336000D01*
X74687000Y-90333000D01*
X74691000Y-90331000D01*
X74695000Y-90329000D01*
X74699000Y-90327000D01*
X74703000Y-90325000D01*
X74707000Y-90324000D01*
X74711000Y-90323000D01*
X74715000Y-90322000D01*
X74719000Y-90321000D01*
X74723000Y-90320000D01*
X74728000Y-90320000D01*
X74732000Y-90320000D01*
X75528000Y-90320000D01*
X75532000Y-90320000D01*
X75537000Y-90320000D01*
X75541000Y-90321000D01*
G37*
X75635000Y-91583000D02*
X75635000Y-90787000D01*
X75635000Y-90783000D01*
X75635000Y-90778000D01*
X75636000Y-90774000D01*
X75637000Y-90770000D01*
X75638000Y-90766000D01*
X75639000Y-90762000D01*
X75640000Y-90758000D01*
X75642000Y-90754000D01*
X75644000Y-90750000D01*
X75646000Y-90746000D01*
X75648000Y-90742000D01*
X75651000Y-90739000D01*
X75653000Y-90735000D01*
X75656000Y-90732000D01*
X75659000Y-90729000D01*
X75662000Y-90726000D01*
X75665000Y-90723000D01*
X75669000Y-90721000D01*
X75672000Y-90718000D01*
X75676000Y-90716000D01*
X75680000Y-90714000D01*
X75684000Y-90712000D01*
X75688000Y-90710000D01*
X75692000Y-90709000D01*
X75696000Y-90708000D01*
X75700000Y-90707000D01*
X75704000Y-90706000D01*
X75708000Y-90705000D01*
X75713000Y-90705000D01*
X75717000Y-90705000D01*
X75913000Y-90705000D01*
X75917000Y-90705000D01*
X75922000Y-90705000D01*
X75926000Y-90706000D01*
X75930000Y-90707000D01*
X75934000Y-90708000D01*
X75938000Y-90709000D01*
X75942000Y-90710000D01*
X75946000Y-90712000D01*
X75950000Y-90714000D01*
X75954000Y-90716000D01*
X75958000Y-90718000D01*
X75961000Y-90721000D01*
X75965000Y-90723000D01*
X75968000Y-90726000D01*
X75971000Y-90729000D01*
X75974000Y-90732000D01*
X75977000Y-90735000D01*
X75979000Y-90739000D01*
X75982000Y-90742000D01*
X75984000Y-90746000D01*
X75986000Y-90750000D01*
X75988000Y-90754000D01*
X75990000Y-90758000D01*
X75991000Y-90762000D01*
X75992000Y-90766000D01*
X75993000Y-90770000D01*
X75994000Y-90774000D01*
X75995000Y-90778000D01*
X75995000Y-90783000D01*
X75995000Y-90787000D01*
X75995000Y-91583000D01*
X75995000Y-91587000D01*
X75995000Y-91592000D01*
X75994000Y-91596000D01*
X75993000Y-91600000D01*
X75992000Y-91604000D01*
X75991000Y-91608000D01*
X75990000Y-91612000D01*
X75988000Y-91616000D01*
X75986000Y-91620000D01*
X75984000Y-91624000D01*
X75982000Y-91628000D01*
X75979000Y-91631000D01*
X75977000Y-91635000D01*
X75974000Y-91638000D01*
X75971000Y-91641000D01*
X75968000Y-91644000D01*
X75965000Y-91647000D01*
X75961000Y-91649000D01*
X75958000Y-91652000D01*
X75954000Y-91654000D01*
X75950000Y-91656000D01*
X75946000Y-91658000D01*
X75942000Y-91660000D01*
X75938000Y-91661000D01*
X75934000Y-91662000D01*
X75930000Y-91663000D01*
X75926000Y-91664000D01*
X75922000Y-91665000D01*
X75917000Y-91665000D01*
X75913000Y-91665000D01*
X75717000Y-91665000D01*
X75713000Y-91665000D01*
X75708000Y-91665000D01*
X75704000Y-91664000D01*
X75700000Y-91663000D01*
X75696000Y-91662000D01*
X75692000Y-91661000D01*
X75688000Y-91660000D01*
X75684000Y-91658000D01*
X75680000Y-91656000D01*
X75676000Y-91654000D01*
X75672000Y-91652000D01*
X75669000Y-91649000D01*
X75665000Y-91647000D01*
X75662000Y-91644000D01*
X75659000Y-91641000D01*
X75656000Y-91638000D01*
X75653000Y-91635000D01*
X75651000Y-91631000D01*
X75648000Y-91628000D01*
X75646000Y-91624000D01*
X75644000Y-91620000D01*
X75642000Y-91616000D01*
X75640000Y-91612000D01*
X75639000Y-91608000D01*
X75638000Y-91604000D01*
X75637000Y-91600000D01*
X75636000Y-91596000D01*
X75635000Y-91592000D01*
X75635000Y-91587000D01*
X75635000Y-91583000D01*
G36*
X75926000Y-90706000D02*
G01*
X75930000Y-90707000D01*
X75934000Y-90708000D01*
X75938000Y-90709000D01*
X75942000Y-90710000D01*
X75946000Y-90712000D01*
X75950000Y-90714000D01*
X75954000Y-90716000D01*
X75958000Y-90718000D01*
X75961000Y-90721000D01*
X75965000Y-90723000D01*
X75968000Y-90726000D01*
X75971000Y-90729000D01*
X75974000Y-90732000D01*
X75977000Y-90735000D01*
X75979000Y-90739000D01*
X75982000Y-90742000D01*
X75984000Y-90746000D01*
X75986000Y-90750000D01*
X75988000Y-90754000D01*
X75990000Y-90758000D01*
X75991000Y-90762000D01*
X75992000Y-90766000D01*
X75993000Y-90770000D01*
X75994000Y-90774000D01*
X75995000Y-90778000D01*
X75995000Y-90783000D01*
X75995000Y-90787000D01*
X75995000Y-91583000D01*
X75995000Y-91587000D01*
X75995000Y-91592000D01*
X75994000Y-91596000D01*
X75993000Y-91600000D01*
X75992000Y-91604000D01*
X75991000Y-91608000D01*
X75990000Y-91612000D01*
X75988000Y-91616000D01*
X75986000Y-91620000D01*
X75984000Y-91624000D01*
X75982000Y-91628000D01*
X75979000Y-91631000D01*
X75977000Y-91635000D01*
X75974000Y-91638000D01*
X75971000Y-91641000D01*
X75968000Y-91644000D01*
X75965000Y-91647000D01*
X75961000Y-91649000D01*
X75958000Y-91652000D01*
X75954000Y-91654000D01*
X75950000Y-91656000D01*
X75946000Y-91658000D01*
X75942000Y-91660000D01*
X75938000Y-91661000D01*
X75934000Y-91662000D01*
X75930000Y-91663000D01*
X75926000Y-91664000D01*
X75922000Y-91665000D01*
X75917000Y-91665000D01*
X75913000Y-91665000D01*
X75717000Y-91665000D01*
X75713000Y-91665000D01*
X75708000Y-91665000D01*
X75704000Y-91664000D01*
X75700000Y-91663000D01*
X75696000Y-91662000D01*
X75692000Y-91661000D01*
X75688000Y-91660000D01*
X75684000Y-91658000D01*
X75680000Y-91656000D01*
X75676000Y-91654000D01*
X75672000Y-91652000D01*
X75669000Y-91649000D01*
X75665000Y-91647000D01*
X75662000Y-91644000D01*
X75659000Y-91641000D01*
X75656000Y-91638000D01*
X75653000Y-91635000D01*
X75651000Y-91631000D01*
X75648000Y-91628000D01*
X75646000Y-91624000D01*
X75644000Y-91620000D01*
X75642000Y-91616000D01*
X75640000Y-91612000D01*
X75639000Y-91608000D01*
X75638000Y-91604000D01*
X75637000Y-91600000D01*
X75636000Y-91596000D01*
X75635000Y-91592000D01*
X75635000Y-91587000D01*
X75635000Y-91583000D01*
X75635000Y-90787000D01*
X75635000Y-90783000D01*
X75635000Y-90778000D01*
X75636000Y-90774000D01*
X75637000Y-90770000D01*
X75638000Y-90766000D01*
X75639000Y-90762000D01*
X75640000Y-90758000D01*
X75642000Y-90754000D01*
X75644000Y-90750000D01*
X75646000Y-90746000D01*
X75648000Y-90742000D01*
X75651000Y-90739000D01*
X75653000Y-90735000D01*
X75656000Y-90732000D01*
X75659000Y-90729000D01*
X75662000Y-90726000D01*
X75665000Y-90723000D01*
X75669000Y-90721000D01*
X75672000Y-90718000D01*
X75676000Y-90716000D01*
X75680000Y-90714000D01*
X75684000Y-90712000D01*
X75688000Y-90710000D01*
X75692000Y-90709000D01*
X75696000Y-90708000D01*
X75700000Y-90707000D01*
X75704000Y-90706000D01*
X75708000Y-90705000D01*
X75713000Y-90705000D01*
X75717000Y-90705000D01*
X75913000Y-90705000D01*
X75917000Y-90705000D01*
X75922000Y-90705000D01*
X75926000Y-90706000D01*
G37*
X75995000Y-86917000D02*
X75995000Y-87713000D01*
X75995000Y-87717000D01*
X75995000Y-87722000D01*
X75994000Y-87726000D01*
X75993000Y-87730000D01*
X75992000Y-87734000D01*
X75991000Y-87738000D01*
X75990000Y-87742000D01*
X75988000Y-87746000D01*
X75986000Y-87750000D01*
X75984000Y-87754000D01*
X75982000Y-87758000D01*
X75979000Y-87761000D01*
X75977000Y-87765000D01*
X75974000Y-87768000D01*
X75971000Y-87771000D01*
X75968000Y-87774000D01*
X75965000Y-87777000D01*
X75961000Y-87779000D01*
X75958000Y-87782000D01*
X75954000Y-87784000D01*
X75950000Y-87786000D01*
X75946000Y-87788000D01*
X75942000Y-87790000D01*
X75938000Y-87791000D01*
X75934000Y-87792000D01*
X75930000Y-87793000D01*
X75926000Y-87794000D01*
X75922000Y-87795000D01*
X75917000Y-87795000D01*
X75913000Y-87795000D01*
X75717000Y-87795000D01*
X75713000Y-87795000D01*
X75708000Y-87795000D01*
X75704000Y-87794000D01*
X75700000Y-87793000D01*
X75696000Y-87792000D01*
X75692000Y-87791000D01*
X75688000Y-87790000D01*
X75684000Y-87788000D01*
X75680000Y-87786000D01*
X75676000Y-87784000D01*
X75672000Y-87782000D01*
X75669000Y-87779000D01*
X75665000Y-87777000D01*
X75662000Y-87774000D01*
X75659000Y-87771000D01*
X75656000Y-87768000D01*
X75653000Y-87765000D01*
X75651000Y-87761000D01*
X75648000Y-87758000D01*
X75646000Y-87754000D01*
X75644000Y-87750000D01*
X75642000Y-87746000D01*
X75640000Y-87742000D01*
X75639000Y-87738000D01*
X75638000Y-87734000D01*
X75637000Y-87730000D01*
X75636000Y-87726000D01*
X75635000Y-87722000D01*
X75635000Y-87717000D01*
X75635000Y-87713000D01*
X75635000Y-86917000D01*
X75635000Y-86913000D01*
X75635000Y-86908000D01*
X75636000Y-86904000D01*
X75637000Y-86900000D01*
X75638000Y-86896000D01*
X75639000Y-86892000D01*
X75640000Y-86888000D01*
X75642000Y-86884000D01*
X75644000Y-86880000D01*
X75646000Y-86876000D01*
X75648000Y-86872000D01*
X75651000Y-86869000D01*
X75653000Y-86865000D01*
X75656000Y-86862000D01*
X75659000Y-86859000D01*
X75662000Y-86856000D01*
X75665000Y-86853000D01*
X75669000Y-86851000D01*
X75672000Y-86848000D01*
X75676000Y-86846000D01*
X75680000Y-86844000D01*
X75684000Y-86842000D01*
X75688000Y-86840000D01*
X75692000Y-86839000D01*
X75696000Y-86838000D01*
X75700000Y-86837000D01*
X75704000Y-86836000D01*
X75708000Y-86835000D01*
X75713000Y-86835000D01*
X75717000Y-86835000D01*
X75913000Y-86835000D01*
X75917000Y-86835000D01*
X75922000Y-86835000D01*
X75926000Y-86836000D01*
X75930000Y-86837000D01*
X75934000Y-86838000D01*
X75938000Y-86839000D01*
X75942000Y-86840000D01*
X75946000Y-86842000D01*
X75950000Y-86844000D01*
X75954000Y-86846000D01*
X75958000Y-86848000D01*
X75961000Y-86851000D01*
X75965000Y-86853000D01*
X75968000Y-86856000D01*
X75971000Y-86859000D01*
X75974000Y-86862000D01*
X75977000Y-86865000D01*
X75979000Y-86869000D01*
X75982000Y-86872000D01*
X75984000Y-86876000D01*
X75986000Y-86880000D01*
X75988000Y-86884000D01*
X75990000Y-86888000D01*
X75991000Y-86892000D01*
X75992000Y-86896000D01*
X75993000Y-86900000D01*
X75994000Y-86904000D01*
X75995000Y-86908000D01*
X75995000Y-86913000D01*
X75995000Y-86917000D01*
G36*
X75926000Y-86836000D02*
G01*
X75930000Y-86837000D01*
X75934000Y-86838000D01*
X75938000Y-86839000D01*
X75942000Y-86840000D01*
X75946000Y-86842000D01*
X75950000Y-86844000D01*
X75954000Y-86846000D01*
X75958000Y-86848000D01*
X75961000Y-86851000D01*
X75965000Y-86853000D01*
X75968000Y-86856000D01*
X75971000Y-86859000D01*
X75974000Y-86862000D01*
X75977000Y-86865000D01*
X75979000Y-86869000D01*
X75982000Y-86872000D01*
X75984000Y-86876000D01*
X75986000Y-86880000D01*
X75988000Y-86884000D01*
X75990000Y-86888000D01*
X75991000Y-86892000D01*
X75992000Y-86896000D01*
X75993000Y-86900000D01*
X75994000Y-86904000D01*
X75995000Y-86908000D01*
X75995000Y-86913000D01*
X75995000Y-86917000D01*
X75995000Y-87713000D01*
X75995000Y-87717000D01*
X75995000Y-87722000D01*
X75994000Y-87726000D01*
X75993000Y-87730000D01*
X75992000Y-87734000D01*
X75991000Y-87738000D01*
X75990000Y-87742000D01*
X75988000Y-87746000D01*
X75986000Y-87750000D01*
X75984000Y-87754000D01*
X75982000Y-87758000D01*
X75979000Y-87761000D01*
X75977000Y-87765000D01*
X75974000Y-87768000D01*
X75971000Y-87771000D01*
X75968000Y-87774000D01*
X75965000Y-87777000D01*
X75961000Y-87779000D01*
X75958000Y-87782000D01*
X75954000Y-87784000D01*
X75950000Y-87786000D01*
X75946000Y-87788000D01*
X75942000Y-87790000D01*
X75938000Y-87791000D01*
X75934000Y-87792000D01*
X75930000Y-87793000D01*
X75926000Y-87794000D01*
X75922000Y-87795000D01*
X75917000Y-87795000D01*
X75913000Y-87795000D01*
X75717000Y-87795000D01*
X75713000Y-87795000D01*
X75708000Y-87795000D01*
X75704000Y-87794000D01*
X75700000Y-87793000D01*
X75696000Y-87792000D01*
X75692000Y-87791000D01*
X75688000Y-87790000D01*
X75684000Y-87788000D01*
X75680000Y-87786000D01*
X75676000Y-87784000D01*
X75672000Y-87782000D01*
X75669000Y-87779000D01*
X75665000Y-87777000D01*
X75662000Y-87774000D01*
X75659000Y-87771000D01*
X75656000Y-87768000D01*
X75653000Y-87765000D01*
X75651000Y-87761000D01*
X75648000Y-87758000D01*
X75646000Y-87754000D01*
X75644000Y-87750000D01*
X75642000Y-87746000D01*
X75640000Y-87742000D01*
X75639000Y-87738000D01*
X75638000Y-87734000D01*
X75637000Y-87730000D01*
X75636000Y-87726000D01*
X75635000Y-87722000D01*
X75635000Y-87717000D01*
X75635000Y-87713000D01*
X75635000Y-86917000D01*
X75635000Y-86913000D01*
X75635000Y-86908000D01*
X75636000Y-86904000D01*
X75637000Y-86900000D01*
X75638000Y-86896000D01*
X75639000Y-86892000D01*
X75640000Y-86888000D01*
X75642000Y-86884000D01*
X75644000Y-86880000D01*
X75646000Y-86876000D01*
X75648000Y-86872000D01*
X75651000Y-86869000D01*
X75653000Y-86865000D01*
X75656000Y-86862000D01*
X75659000Y-86859000D01*
X75662000Y-86856000D01*
X75665000Y-86853000D01*
X75669000Y-86851000D01*
X75672000Y-86848000D01*
X75676000Y-86846000D01*
X75680000Y-86844000D01*
X75684000Y-86842000D01*
X75688000Y-86840000D01*
X75692000Y-86839000D01*
X75696000Y-86838000D01*
X75700000Y-86837000D01*
X75704000Y-86836000D01*
X75708000Y-86835000D01*
X75713000Y-86835000D01*
X75717000Y-86835000D01*
X75913000Y-86835000D01*
X75917000Y-86835000D01*
X75922000Y-86835000D01*
X75926000Y-86836000D01*
G37*
X76135000Y-91583000D02*
X76135000Y-90787000D01*
X76135000Y-90783000D01*
X76135000Y-90778000D01*
X76136000Y-90774000D01*
X76137000Y-90770000D01*
X76138000Y-90766000D01*
X76139000Y-90762000D01*
X76140000Y-90758000D01*
X76142000Y-90754000D01*
X76144000Y-90750000D01*
X76146000Y-90746000D01*
X76148000Y-90742000D01*
X76151000Y-90739000D01*
X76153000Y-90735000D01*
X76156000Y-90732000D01*
X76159000Y-90729000D01*
X76162000Y-90726000D01*
X76165000Y-90723000D01*
X76169000Y-90721000D01*
X76172000Y-90718000D01*
X76176000Y-90716000D01*
X76180000Y-90714000D01*
X76184000Y-90712000D01*
X76188000Y-90710000D01*
X76192000Y-90709000D01*
X76196000Y-90708000D01*
X76200000Y-90707000D01*
X76204000Y-90706000D01*
X76208000Y-90705000D01*
X76213000Y-90705000D01*
X76217000Y-90705000D01*
X76413000Y-90705000D01*
X76417000Y-90705000D01*
X76422000Y-90705000D01*
X76426000Y-90706000D01*
X76430000Y-90707000D01*
X76434000Y-90708000D01*
X76438000Y-90709000D01*
X76442000Y-90710000D01*
X76446000Y-90712000D01*
X76450000Y-90714000D01*
X76454000Y-90716000D01*
X76458000Y-90718000D01*
X76461000Y-90721000D01*
X76465000Y-90723000D01*
X76468000Y-90726000D01*
X76471000Y-90729000D01*
X76474000Y-90732000D01*
X76477000Y-90735000D01*
X76479000Y-90739000D01*
X76482000Y-90742000D01*
X76484000Y-90746000D01*
X76486000Y-90750000D01*
X76488000Y-90754000D01*
X76490000Y-90758000D01*
X76491000Y-90762000D01*
X76492000Y-90766000D01*
X76493000Y-90770000D01*
X76494000Y-90774000D01*
X76495000Y-90778000D01*
X76495000Y-90783000D01*
X76495000Y-90787000D01*
X76495000Y-91583000D01*
X76495000Y-91587000D01*
X76495000Y-91592000D01*
X76494000Y-91596000D01*
X76493000Y-91600000D01*
X76492000Y-91604000D01*
X76491000Y-91608000D01*
X76490000Y-91612000D01*
X76488000Y-91616000D01*
X76486000Y-91620000D01*
X76484000Y-91624000D01*
X76482000Y-91628000D01*
X76479000Y-91631000D01*
X76477000Y-91635000D01*
X76474000Y-91638000D01*
X76471000Y-91641000D01*
X76468000Y-91644000D01*
X76465000Y-91647000D01*
X76461000Y-91649000D01*
X76458000Y-91652000D01*
X76454000Y-91654000D01*
X76450000Y-91656000D01*
X76446000Y-91658000D01*
X76442000Y-91660000D01*
X76438000Y-91661000D01*
X76434000Y-91662000D01*
X76430000Y-91663000D01*
X76426000Y-91664000D01*
X76422000Y-91665000D01*
X76417000Y-91665000D01*
X76413000Y-91665000D01*
X76217000Y-91665000D01*
X76213000Y-91665000D01*
X76208000Y-91665000D01*
X76204000Y-91664000D01*
X76200000Y-91663000D01*
X76196000Y-91662000D01*
X76192000Y-91661000D01*
X76188000Y-91660000D01*
X76184000Y-91658000D01*
X76180000Y-91656000D01*
X76176000Y-91654000D01*
X76172000Y-91652000D01*
X76169000Y-91649000D01*
X76165000Y-91647000D01*
X76162000Y-91644000D01*
X76159000Y-91641000D01*
X76156000Y-91638000D01*
X76153000Y-91635000D01*
X76151000Y-91631000D01*
X76148000Y-91628000D01*
X76146000Y-91624000D01*
X76144000Y-91620000D01*
X76142000Y-91616000D01*
X76140000Y-91612000D01*
X76139000Y-91608000D01*
X76138000Y-91604000D01*
X76137000Y-91600000D01*
X76136000Y-91596000D01*
X76135000Y-91592000D01*
X76135000Y-91587000D01*
X76135000Y-91583000D01*
G36*
X76426000Y-90706000D02*
G01*
X76430000Y-90707000D01*
X76434000Y-90708000D01*
X76438000Y-90709000D01*
X76442000Y-90710000D01*
X76446000Y-90712000D01*
X76450000Y-90714000D01*
X76454000Y-90716000D01*
X76458000Y-90718000D01*
X76461000Y-90721000D01*
X76465000Y-90723000D01*
X76468000Y-90726000D01*
X76471000Y-90729000D01*
X76474000Y-90732000D01*
X76477000Y-90735000D01*
X76479000Y-90739000D01*
X76482000Y-90742000D01*
X76484000Y-90746000D01*
X76486000Y-90750000D01*
X76488000Y-90754000D01*
X76490000Y-90758000D01*
X76491000Y-90762000D01*
X76492000Y-90766000D01*
X76493000Y-90770000D01*
X76494000Y-90774000D01*
X76495000Y-90778000D01*
X76495000Y-90783000D01*
X76495000Y-90787000D01*
X76495000Y-91583000D01*
X76495000Y-91587000D01*
X76495000Y-91592000D01*
X76494000Y-91596000D01*
X76493000Y-91600000D01*
X76492000Y-91604000D01*
X76491000Y-91608000D01*
X76490000Y-91612000D01*
X76488000Y-91616000D01*
X76486000Y-91620000D01*
X76484000Y-91624000D01*
X76482000Y-91628000D01*
X76479000Y-91631000D01*
X76477000Y-91635000D01*
X76474000Y-91638000D01*
X76471000Y-91641000D01*
X76468000Y-91644000D01*
X76465000Y-91647000D01*
X76461000Y-91649000D01*
X76458000Y-91652000D01*
X76454000Y-91654000D01*
X76450000Y-91656000D01*
X76446000Y-91658000D01*
X76442000Y-91660000D01*
X76438000Y-91661000D01*
X76434000Y-91662000D01*
X76430000Y-91663000D01*
X76426000Y-91664000D01*
X76422000Y-91665000D01*
X76417000Y-91665000D01*
X76413000Y-91665000D01*
X76217000Y-91665000D01*
X76213000Y-91665000D01*
X76208000Y-91665000D01*
X76204000Y-91664000D01*
X76200000Y-91663000D01*
X76196000Y-91662000D01*
X76192000Y-91661000D01*
X76188000Y-91660000D01*
X76184000Y-91658000D01*
X76180000Y-91656000D01*
X76176000Y-91654000D01*
X76172000Y-91652000D01*
X76169000Y-91649000D01*
X76165000Y-91647000D01*
X76162000Y-91644000D01*
X76159000Y-91641000D01*
X76156000Y-91638000D01*
X76153000Y-91635000D01*
X76151000Y-91631000D01*
X76148000Y-91628000D01*
X76146000Y-91624000D01*
X76144000Y-91620000D01*
X76142000Y-91616000D01*
X76140000Y-91612000D01*
X76139000Y-91608000D01*
X76138000Y-91604000D01*
X76137000Y-91600000D01*
X76136000Y-91596000D01*
X76135000Y-91592000D01*
X76135000Y-91587000D01*
X76135000Y-91583000D01*
X76135000Y-90787000D01*
X76135000Y-90783000D01*
X76135000Y-90778000D01*
X76136000Y-90774000D01*
X76137000Y-90770000D01*
X76138000Y-90766000D01*
X76139000Y-90762000D01*
X76140000Y-90758000D01*
X76142000Y-90754000D01*
X76144000Y-90750000D01*
X76146000Y-90746000D01*
X76148000Y-90742000D01*
X76151000Y-90739000D01*
X76153000Y-90735000D01*
X76156000Y-90732000D01*
X76159000Y-90729000D01*
X76162000Y-90726000D01*
X76165000Y-90723000D01*
X76169000Y-90721000D01*
X76172000Y-90718000D01*
X76176000Y-90716000D01*
X76180000Y-90714000D01*
X76184000Y-90712000D01*
X76188000Y-90710000D01*
X76192000Y-90709000D01*
X76196000Y-90708000D01*
X76200000Y-90707000D01*
X76204000Y-90706000D01*
X76208000Y-90705000D01*
X76213000Y-90705000D01*
X76217000Y-90705000D01*
X76413000Y-90705000D01*
X76417000Y-90705000D01*
X76422000Y-90705000D01*
X76426000Y-90706000D01*
G37*
X76495000Y-86917000D02*
X76495000Y-87713000D01*
X76495000Y-87717000D01*
X76495000Y-87722000D01*
X76494000Y-87726000D01*
X76493000Y-87730000D01*
X76492000Y-87734000D01*
X76491000Y-87738000D01*
X76490000Y-87742000D01*
X76488000Y-87746000D01*
X76486000Y-87750000D01*
X76484000Y-87754000D01*
X76482000Y-87758000D01*
X76479000Y-87761000D01*
X76477000Y-87765000D01*
X76474000Y-87768000D01*
X76471000Y-87771000D01*
X76468000Y-87774000D01*
X76465000Y-87777000D01*
X76461000Y-87779000D01*
X76458000Y-87782000D01*
X76454000Y-87784000D01*
X76450000Y-87786000D01*
X76446000Y-87788000D01*
X76442000Y-87790000D01*
X76438000Y-87791000D01*
X76434000Y-87792000D01*
X76430000Y-87793000D01*
X76426000Y-87794000D01*
X76422000Y-87795000D01*
X76417000Y-87795000D01*
X76413000Y-87795000D01*
X76217000Y-87795000D01*
X76213000Y-87795000D01*
X76208000Y-87795000D01*
X76204000Y-87794000D01*
X76200000Y-87793000D01*
X76196000Y-87792000D01*
X76192000Y-87791000D01*
X76188000Y-87790000D01*
X76184000Y-87788000D01*
X76180000Y-87786000D01*
X76176000Y-87784000D01*
X76172000Y-87782000D01*
X76169000Y-87779000D01*
X76165000Y-87777000D01*
X76162000Y-87774000D01*
X76159000Y-87771000D01*
X76156000Y-87768000D01*
X76153000Y-87765000D01*
X76151000Y-87761000D01*
X76148000Y-87758000D01*
X76146000Y-87754000D01*
X76144000Y-87750000D01*
X76142000Y-87746000D01*
X76140000Y-87742000D01*
X76139000Y-87738000D01*
X76138000Y-87734000D01*
X76137000Y-87730000D01*
X76136000Y-87726000D01*
X76135000Y-87722000D01*
X76135000Y-87717000D01*
X76135000Y-87713000D01*
X76135000Y-86917000D01*
X76135000Y-86913000D01*
X76135000Y-86908000D01*
X76136000Y-86904000D01*
X76137000Y-86900000D01*
X76138000Y-86896000D01*
X76139000Y-86892000D01*
X76140000Y-86888000D01*
X76142000Y-86884000D01*
X76144000Y-86880000D01*
X76146000Y-86876000D01*
X76148000Y-86872000D01*
X76151000Y-86869000D01*
X76153000Y-86865000D01*
X76156000Y-86862000D01*
X76159000Y-86859000D01*
X76162000Y-86856000D01*
X76165000Y-86853000D01*
X76169000Y-86851000D01*
X76172000Y-86848000D01*
X76176000Y-86846000D01*
X76180000Y-86844000D01*
X76184000Y-86842000D01*
X76188000Y-86840000D01*
X76192000Y-86839000D01*
X76196000Y-86838000D01*
X76200000Y-86837000D01*
X76204000Y-86836000D01*
X76208000Y-86835000D01*
X76213000Y-86835000D01*
X76217000Y-86835000D01*
X76413000Y-86835000D01*
X76417000Y-86835000D01*
X76422000Y-86835000D01*
X76426000Y-86836000D01*
X76430000Y-86837000D01*
X76434000Y-86838000D01*
X76438000Y-86839000D01*
X76442000Y-86840000D01*
X76446000Y-86842000D01*
X76450000Y-86844000D01*
X76454000Y-86846000D01*
X76458000Y-86848000D01*
X76461000Y-86851000D01*
X76465000Y-86853000D01*
X76468000Y-86856000D01*
X76471000Y-86859000D01*
X76474000Y-86862000D01*
X76477000Y-86865000D01*
X76479000Y-86869000D01*
X76482000Y-86872000D01*
X76484000Y-86876000D01*
X76486000Y-86880000D01*
X76488000Y-86884000D01*
X76490000Y-86888000D01*
X76491000Y-86892000D01*
X76492000Y-86896000D01*
X76493000Y-86900000D01*
X76494000Y-86904000D01*
X76495000Y-86908000D01*
X76495000Y-86913000D01*
X76495000Y-86917000D01*
G36*
X76426000Y-86836000D02*
G01*
X76430000Y-86837000D01*
X76434000Y-86838000D01*
X76438000Y-86839000D01*
X76442000Y-86840000D01*
X76446000Y-86842000D01*
X76450000Y-86844000D01*
X76454000Y-86846000D01*
X76458000Y-86848000D01*
X76461000Y-86851000D01*
X76465000Y-86853000D01*
X76468000Y-86856000D01*
X76471000Y-86859000D01*
X76474000Y-86862000D01*
X76477000Y-86865000D01*
X76479000Y-86869000D01*
X76482000Y-86872000D01*
X76484000Y-86876000D01*
X76486000Y-86880000D01*
X76488000Y-86884000D01*
X76490000Y-86888000D01*
X76491000Y-86892000D01*
X76492000Y-86896000D01*
X76493000Y-86900000D01*
X76494000Y-86904000D01*
X76495000Y-86908000D01*
X76495000Y-86913000D01*
X76495000Y-86917000D01*
X76495000Y-87713000D01*
X76495000Y-87717000D01*
X76495000Y-87722000D01*
X76494000Y-87726000D01*
X76493000Y-87730000D01*
X76492000Y-87734000D01*
X76491000Y-87738000D01*
X76490000Y-87742000D01*
X76488000Y-87746000D01*
X76486000Y-87750000D01*
X76484000Y-87754000D01*
X76482000Y-87758000D01*
X76479000Y-87761000D01*
X76477000Y-87765000D01*
X76474000Y-87768000D01*
X76471000Y-87771000D01*
X76468000Y-87774000D01*
X76465000Y-87777000D01*
X76461000Y-87779000D01*
X76458000Y-87782000D01*
X76454000Y-87784000D01*
X76450000Y-87786000D01*
X76446000Y-87788000D01*
X76442000Y-87790000D01*
X76438000Y-87791000D01*
X76434000Y-87792000D01*
X76430000Y-87793000D01*
X76426000Y-87794000D01*
X76422000Y-87795000D01*
X76417000Y-87795000D01*
X76413000Y-87795000D01*
X76217000Y-87795000D01*
X76213000Y-87795000D01*
X76208000Y-87795000D01*
X76204000Y-87794000D01*
X76200000Y-87793000D01*
X76196000Y-87792000D01*
X76192000Y-87791000D01*
X76188000Y-87790000D01*
X76184000Y-87788000D01*
X76180000Y-87786000D01*
X76176000Y-87784000D01*
X76172000Y-87782000D01*
X76169000Y-87779000D01*
X76165000Y-87777000D01*
X76162000Y-87774000D01*
X76159000Y-87771000D01*
X76156000Y-87768000D01*
X76153000Y-87765000D01*
X76151000Y-87761000D01*
X76148000Y-87758000D01*
X76146000Y-87754000D01*
X76144000Y-87750000D01*
X76142000Y-87746000D01*
X76140000Y-87742000D01*
X76139000Y-87738000D01*
X76138000Y-87734000D01*
X76137000Y-87730000D01*
X76136000Y-87726000D01*
X76135000Y-87722000D01*
X76135000Y-87717000D01*
X76135000Y-87713000D01*
X76135000Y-86917000D01*
X76135000Y-86913000D01*
X76135000Y-86908000D01*
X76136000Y-86904000D01*
X76137000Y-86900000D01*
X76138000Y-86896000D01*
X76139000Y-86892000D01*
X76140000Y-86888000D01*
X76142000Y-86884000D01*
X76144000Y-86880000D01*
X76146000Y-86876000D01*
X76148000Y-86872000D01*
X76151000Y-86869000D01*
X76153000Y-86865000D01*
X76156000Y-86862000D01*
X76159000Y-86859000D01*
X76162000Y-86856000D01*
X76165000Y-86853000D01*
X76169000Y-86851000D01*
X76172000Y-86848000D01*
X76176000Y-86846000D01*
X76180000Y-86844000D01*
X76184000Y-86842000D01*
X76188000Y-86840000D01*
X76192000Y-86839000D01*
X76196000Y-86838000D01*
X76200000Y-86837000D01*
X76204000Y-86836000D01*
X76208000Y-86835000D01*
X76213000Y-86835000D01*
X76217000Y-86835000D01*
X76413000Y-86835000D01*
X76417000Y-86835000D01*
X76422000Y-86835000D01*
X76426000Y-86836000D01*
G37*
X76635000Y-91583000D02*
X76635000Y-90787000D01*
X76635000Y-90783000D01*
X76635000Y-90778000D01*
X76636000Y-90774000D01*
X76637000Y-90770000D01*
X76638000Y-90766000D01*
X76639000Y-90762000D01*
X76640000Y-90758000D01*
X76642000Y-90754000D01*
X76644000Y-90750000D01*
X76646000Y-90746000D01*
X76648000Y-90742000D01*
X76651000Y-90739000D01*
X76653000Y-90735000D01*
X76656000Y-90732000D01*
X76659000Y-90729000D01*
X76662000Y-90726000D01*
X76665000Y-90723000D01*
X76669000Y-90721000D01*
X76672000Y-90718000D01*
X76676000Y-90716000D01*
X76680000Y-90714000D01*
X76684000Y-90712000D01*
X76688000Y-90710000D01*
X76692000Y-90709000D01*
X76696000Y-90708000D01*
X76700000Y-90707000D01*
X76704000Y-90706000D01*
X76708000Y-90705000D01*
X76713000Y-90705000D01*
X76717000Y-90705000D01*
X76913000Y-90705000D01*
X76917000Y-90705000D01*
X76922000Y-90705000D01*
X76926000Y-90706000D01*
X76930000Y-90707000D01*
X76934000Y-90708000D01*
X76938000Y-90709000D01*
X76942000Y-90710000D01*
X76946000Y-90712000D01*
X76950000Y-90714000D01*
X76954000Y-90716000D01*
X76958000Y-90718000D01*
X76961000Y-90721000D01*
X76965000Y-90723000D01*
X76968000Y-90726000D01*
X76971000Y-90729000D01*
X76974000Y-90732000D01*
X76977000Y-90735000D01*
X76979000Y-90739000D01*
X76982000Y-90742000D01*
X76984000Y-90746000D01*
X76986000Y-90750000D01*
X76988000Y-90754000D01*
X76990000Y-90758000D01*
X76991000Y-90762000D01*
X76992000Y-90766000D01*
X76993000Y-90770000D01*
X76994000Y-90774000D01*
X76995000Y-90778000D01*
X76995000Y-90783000D01*
X76995000Y-90787000D01*
X76995000Y-91583000D01*
X76995000Y-91587000D01*
X76995000Y-91592000D01*
X76994000Y-91596000D01*
X76993000Y-91600000D01*
X76992000Y-91604000D01*
X76991000Y-91608000D01*
X76990000Y-91612000D01*
X76988000Y-91616000D01*
X76986000Y-91620000D01*
X76984000Y-91624000D01*
X76982000Y-91628000D01*
X76979000Y-91631000D01*
X76977000Y-91635000D01*
X76974000Y-91638000D01*
X76971000Y-91641000D01*
X76968000Y-91644000D01*
X76965000Y-91647000D01*
X76961000Y-91649000D01*
X76958000Y-91652000D01*
X76954000Y-91654000D01*
X76950000Y-91656000D01*
X76946000Y-91658000D01*
X76942000Y-91660000D01*
X76938000Y-91661000D01*
X76934000Y-91662000D01*
X76930000Y-91663000D01*
X76926000Y-91664000D01*
X76922000Y-91665000D01*
X76917000Y-91665000D01*
X76913000Y-91665000D01*
X76717000Y-91665000D01*
X76713000Y-91665000D01*
X76708000Y-91665000D01*
X76704000Y-91664000D01*
X76700000Y-91663000D01*
X76696000Y-91662000D01*
X76692000Y-91661000D01*
X76688000Y-91660000D01*
X76684000Y-91658000D01*
X76680000Y-91656000D01*
X76676000Y-91654000D01*
X76672000Y-91652000D01*
X76669000Y-91649000D01*
X76665000Y-91647000D01*
X76662000Y-91644000D01*
X76659000Y-91641000D01*
X76656000Y-91638000D01*
X76653000Y-91635000D01*
X76651000Y-91631000D01*
X76648000Y-91628000D01*
X76646000Y-91624000D01*
X76644000Y-91620000D01*
X76642000Y-91616000D01*
X76640000Y-91612000D01*
X76639000Y-91608000D01*
X76638000Y-91604000D01*
X76637000Y-91600000D01*
X76636000Y-91596000D01*
X76635000Y-91592000D01*
X76635000Y-91587000D01*
X76635000Y-91583000D01*
G36*
X76926000Y-90706000D02*
G01*
X76930000Y-90707000D01*
X76934000Y-90708000D01*
X76938000Y-90709000D01*
X76942000Y-90710000D01*
X76946000Y-90712000D01*
X76950000Y-90714000D01*
X76954000Y-90716000D01*
X76958000Y-90718000D01*
X76961000Y-90721000D01*
X76965000Y-90723000D01*
X76968000Y-90726000D01*
X76971000Y-90729000D01*
X76974000Y-90732000D01*
X76977000Y-90735000D01*
X76979000Y-90739000D01*
X76982000Y-90742000D01*
X76984000Y-90746000D01*
X76986000Y-90750000D01*
X76988000Y-90754000D01*
X76990000Y-90758000D01*
X76991000Y-90762000D01*
X76992000Y-90766000D01*
X76993000Y-90770000D01*
X76994000Y-90774000D01*
X76995000Y-90778000D01*
X76995000Y-90783000D01*
X76995000Y-90787000D01*
X76995000Y-91583000D01*
X76995000Y-91587000D01*
X76995000Y-91592000D01*
X76994000Y-91596000D01*
X76993000Y-91600000D01*
X76992000Y-91604000D01*
X76991000Y-91608000D01*
X76990000Y-91612000D01*
X76988000Y-91616000D01*
X76986000Y-91620000D01*
X76984000Y-91624000D01*
X76982000Y-91628000D01*
X76979000Y-91631000D01*
X76977000Y-91635000D01*
X76974000Y-91638000D01*
X76971000Y-91641000D01*
X76968000Y-91644000D01*
X76965000Y-91647000D01*
X76961000Y-91649000D01*
X76958000Y-91652000D01*
X76954000Y-91654000D01*
X76950000Y-91656000D01*
X76946000Y-91658000D01*
X76942000Y-91660000D01*
X76938000Y-91661000D01*
X76934000Y-91662000D01*
X76930000Y-91663000D01*
X76926000Y-91664000D01*
X76922000Y-91665000D01*
X76917000Y-91665000D01*
X76913000Y-91665000D01*
X76717000Y-91665000D01*
X76713000Y-91665000D01*
X76708000Y-91665000D01*
X76704000Y-91664000D01*
X76700000Y-91663000D01*
X76696000Y-91662000D01*
X76692000Y-91661000D01*
X76688000Y-91660000D01*
X76684000Y-91658000D01*
X76680000Y-91656000D01*
X76676000Y-91654000D01*
X76672000Y-91652000D01*
X76669000Y-91649000D01*
X76665000Y-91647000D01*
X76662000Y-91644000D01*
X76659000Y-91641000D01*
X76656000Y-91638000D01*
X76653000Y-91635000D01*
X76651000Y-91631000D01*
X76648000Y-91628000D01*
X76646000Y-91624000D01*
X76644000Y-91620000D01*
X76642000Y-91616000D01*
X76640000Y-91612000D01*
X76639000Y-91608000D01*
X76638000Y-91604000D01*
X76637000Y-91600000D01*
X76636000Y-91596000D01*
X76635000Y-91592000D01*
X76635000Y-91587000D01*
X76635000Y-91583000D01*
X76635000Y-90787000D01*
X76635000Y-90783000D01*
X76635000Y-90778000D01*
X76636000Y-90774000D01*
X76637000Y-90770000D01*
X76638000Y-90766000D01*
X76639000Y-90762000D01*
X76640000Y-90758000D01*
X76642000Y-90754000D01*
X76644000Y-90750000D01*
X76646000Y-90746000D01*
X76648000Y-90742000D01*
X76651000Y-90739000D01*
X76653000Y-90735000D01*
X76656000Y-90732000D01*
X76659000Y-90729000D01*
X76662000Y-90726000D01*
X76665000Y-90723000D01*
X76669000Y-90721000D01*
X76672000Y-90718000D01*
X76676000Y-90716000D01*
X76680000Y-90714000D01*
X76684000Y-90712000D01*
X76688000Y-90710000D01*
X76692000Y-90709000D01*
X76696000Y-90708000D01*
X76700000Y-90707000D01*
X76704000Y-90706000D01*
X76708000Y-90705000D01*
X76713000Y-90705000D01*
X76717000Y-90705000D01*
X76913000Y-90705000D01*
X76917000Y-90705000D01*
X76922000Y-90705000D01*
X76926000Y-90706000D01*
G37*
X76995000Y-86917000D02*
X76995000Y-87713000D01*
X76995000Y-87717000D01*
X76995000Y-87722000D01*
X76994000Y-87726000D01*
X76993000Y-87730000D01*
X76992000Y-87734000D01*
X76991000Y-87738000D01*
X76990000Y-87742000D01*
X76988000Y-87746000D01*
X76986000Y-87750000D01*
X76984000Y-87754000D01*
X76982000Y-87758000D01*
X76979000Y-87761000D01*
X76977000Y-87765000D01*
X76974000Y-87768000D01*
X76971000Y-87771000D01*
X76968000Y-87774000D01*
X76965000Y-87777000D01*
X76961000Y-87779000D01*
X76958000Y-87782000D01*
X76954000Y-87784000D01*
X76950000Y-87786000D01*
X76946000Y-87788000D01*
X76942000Y-87790000D01*
X76938000Y-87791000D01*
X76934000Y-87792000D01*
X76930000Y-87793000D01*
X76926000Y-87794000D01*
X76922000Y-87795000D01*
X76917000Y-87795000D01*
X76913000Y-87795000D01*
X76717000Y-87795000D01*
X76713000Y-87795000D01*
X76708000Y-87795000D01*
X76704000Y-87794000D01*
X76700000Y-87793000D01*
X76696000Y-87792000D01*
X76692000Y-87791000D01*
X76688000Y-87790000D01*
X76684000Y-87788000D01*
X76680000Y-87786000D01*
X76676000Y-87784000D01*
X76672000Y-87782000D01*
X76669000Y-87779000D01*
X76665000Y-87777000D01*
X76662000Y-87774000D01*
X76659000Y-87771000D01*
X76656000Y-87768000D01*
X76653000Y-87765000D01*
X76651000Y-87761000D01*
X76648000Y-87758000D01*
X76646000Y-87754000D01*
X76644000Y-87750000D01*
X76642000Y-87746000D01*
X76640000Y-87742000D01*
X76639000Y-87738000D01*
X76638000Y-87734000D01*
X76637000Y-87730000D01*
X76636000Y-87726000D01*
X76635000Y-87722000D01*
X76635000Y-87717000D01*
X76635000Y-87713000D01*
X76635000Y-86917000D01*
X76635000Y-86913000D01*
X76635000Y-86908000D01*
X76636000Y-86904000D01*
X76637000Y-86900000D01*
X76638000Y-86896000D01*
X76639000Y-86892000D01*
X76640000Y-86888000D01*
X76642000Y-86884000D01*
X76644000Y-86880000D01*
X76646000Y-86876000D01*
X76648000Y-86872000D01*
X76651000Y-86869000D01*
X76653000Y-86865000D01*
X76656000Y-86862000D01*
X76659000Y-86859000D01*
X76662000Y-86856000D01*
X76665000Y-86853000D01*
X76669000Y-86851000D01*
X76672000Y-86848000D01*
X76676000Y-86846000D01*
X76680000Y-86844000D01*
X76684000Y-86842000D01*
X76688000Y-86840000D01*
X76692000Y-86839000D01*
X76696000Y-86838000D01*
X76700000Y-86837000D01*
X76704000Y-86836000D01*
X76708000Y-86835000D01*
X76713000Y-86835000D01*
X76717000Y-86835000D01*
X76913000Y-86835000D01*
X76917000Y-86835000D01*
X76922000Y-86835000D01*
X76926000Y-86836000D01*
X76930000Y-86837000D01*
X76934000Y-86838000D01*
X76938000Y-86839000D01*
X76942000Y-86840000D01*
X76946000Y-86842000D01*
X76950000Y-86844000D01*
X76954000Y-86846000D01*
X76958000Y-86848000D01*
X76961000Y-86851000D01*
X76965000Y-86853000D01*
X76968000Y-86856000D01*
X76971000Y-86859000D01*
X76974000Y-86862000D01*
X76977000Y-86865000D01*
X76979000Y-86869000D01*
X76982000Y-86872000D01*
X76984000Y-86876000D01*
X76986000Y-86880000D01*
X76988000Y-86884000D01*
X76990000Y-86888000D01*
X76991000Y-86892000D01*
X76992000Y-86896000D01*
X76993000Y-86900000D01*
X76994000Y-86904000D01*
X76995000Y-86908000D01*
X76995000Y-86913000D01*
X76995000Y-86917000D01*
G36*
X76926000Y-86836000D02*
G01*
X76930000Y-86837000D01*
X76934000Y-86838000D01*
X76938000Y-86839000D01*
X76942000Y-86840000D01*
X76946000Y-86842000D01*
X76950000Y-86844000D01*
X76954000Y-86846000D01*
X76958000Y-86848000D01*
X76961000Y-86851000D01*
X76965000Y-86853000D01*
X76968000Y-86856000D01*
X76971000Y-86859000D01*
X76974000Y-86862000D01*
X76977000Y-86865000D01*
X76979000Y-86869000D01*
X76982000Y-86872000D01*
X76984000Y-86876000D01*
X76986000Y-86880000D01*
X76988000Y-86884000D01*
X76990000Y-86888000D01*
X76991000Y-86892000D01*
X76992000Y-86896000D01*
X76993000Y-86900000D01*
X76994000Y-86904000D01*
X76995000Y-86908000D01*
X76995000Y-86913000D01*
X76995000Y-86917000D01*
X76995000Y-87713000D01*
X76995000Y-87717000D01*
X76995000Y-87722000D01*
X76994000Y-87726000D01*
X76993000Y-87730000D01*
X76992000Y-87734000D01*
X76991000Y-87738000D01*
X76990000Y-87742000D01*
X76988000Y-87746000D01*
X76986000Y-87750000D01*
X76984000Y-87754000D01*
X76982000Y-87758000D01*
X76979000Y-87761000D01*
X76977000Y-87765000D01*
X76974000Y-87768000D01*
X76971000Y-87771000D01*
X76968000Y-87774000D01*
X76965000Y-87777000D01*
X76961000Y-87779000D01*
X76958000Y-87782000D01*
X76954000Y-87784000D01*
X76950000Y-87786000D01*
X76946000Y-87788000D01*
X76942000Y-87790000D01*
X76938000Y-87791000D01*
X76934000Y-87792000D01*
X76930000Y-87793000D01*
X76926000Y-87794000D01*
X76922000Y-87795000D01*
X76917000Y-87795000D01*
X76913000Y-87795000D01*
X76717000Y-87795000D01*
X76713000Y-87795000D01*
X76708000Y-87795000D01*
X76704000Y-87794000D01*
X76700000Y-87793000D01*
X76696000Y-87792000D01*
X76692000Y-87791000D01*
X76688000Y-87790000D01*
X76684000Y-87788000D01*
X76680000Y-87786000D01*
X76676000Y-87784000D01*
X76672000Y-87782000D01*
X76669000Y-87779000D01*
X76665000Y-87777000D01*
X76662000Y-87774000D01*
X76659000Y-87771000D01*
X76656000Y-87768000D01*
X76653000Y-87765000D01*
X76651000Y-87761000D01*
X76648000Y-87758000D01*
X76646000Y-87754000D01*
X76644000Y-87750000D01*
X76642000Y-87746000D01*
X76640000Y-87742000D01*
X76639000Y-87738000D01*
X76638000Y-87734000D01*
X76637000Y-87730000D01*
X76636000Y-87726000D01*
X76635000Y-87722000D01*
X76635000Y-87717000D01*
X76635000Y-87713000D01*
X76635000Y-86917000D01*
X76635000Y-86913000D01*
X76635000Y-86908000D01*
X76636000Y-86904000D01*
X76637000Y-86900000D01*
X76638000Y-86896000D01*
X76639000Y-86892000D01*
X76640000Y-86888000D01*
X76642000Y-86884000D01*
X76644000Y-86880000D01*
X76646000Y-86876000D01*
X76648000Y-86872000D01*
X76651000Y-86869000D01*
X76653000Y-86865000D01*
X76656000Y-86862000D01*
X76659000Y-86859000D01*
X76662000Y-86856000D01*
X76665000Y-86853000D01*
X76669000Y-86851000D01*
X76672000Y-86848000D01*
X76676000Y-86846000D01*
X76680000Y-86844000D01*
X76684000Y-86842000D01*
X76688000Y-86840000D01*
X76692000Y-86839000D01*
X76696000Y-86838000D01*
X76700000Y-86837000D01*
X76704000Y-86836000D01*
X76708000Y-86835000D01*
X76713000Y-86835000D01*
X76717000Y-86835000D01*
X76913000Y-86835000D01*
X76917000Y-86835000D01*
X76922000Y-86835000D01*
X76926000Y-86836000D01*
G37*
X77135000Y-91583000D02*
X77135000Y-90787000D01*
X77135000Y-90783000D01*
X77135000Y-90778000D01*
X77136000Y-90774000D01*
X77137000Y-90770000D01*
X77138000Y-90766000D01*
X77139000Y-90762000D01*
X77140000Y-90758000D01*
X77142000Y-90754000D01*
X77144000Y-90750000D01*
X77146000Y-90746000D01*
X77148000Y-90742000D01*
X77151000Y-90739000D01*
X77153000Y-90735000D01*
X77156000Y-90732000D01*
X77159000Y-90729000D01*
X77162000Y-90726000D01*
X77165000Y-90723000D01*
X77169000Y-90721000D01*
X77172000Y-90718000D01*
X77176000Y-90716000D01*
X77180000Y-90714000D01*
X77184000Y-90712000D01*
X77188000Y-90710000D01*
X77192000Y-90709000D01*
X77196000Y-90708000D01*
X77200000Y-90707000D01*
X77204000Y-90706000D01*
X77208000Y-90705000D01*
X77213000Y-90705000D01*
X77217000Y-90705000D01*
X77413000Y-90705000D01*
X77417000Y-90705000D01*
X77422000Y-90705000D01*
X77426000Y-90706000D01*
X77430000Y-90707000D01*
X77434000Y-90708000D01*
X77438000Y-90709000D01*
X77442000Y-90710000D01*
X77446000Y-90712000D01*
X77450000Y-90714000D01*
X77454000Y-90716000D01*
X77458000Y-90718000D01*
X77461000Y-90721000D01*
X77465000Y-90723000D01*
X77468000Y-90726000D01*
X77471000Y-90729000D01*
X77474000Y-90732000D01*
X77477000Y-90735000D01*
X77479000Y-90739000D01*
X77482000Y-90742000D01*
X77484000Y-90746000D01*
X77486000Y-90750000D01*
X77488000Y-90754000D01*
X77490000Y-90758000D01*
X77491000Y-90762000D01*
X77492000Y-90766000D01*
X77493000Y-90770000D01*
X77494000Y-90774000D01*
X77495000Y-90778000D01*
X77495000Y-90783000D01*
X77495000Y-90787000D01*
X77495000Y-91583000D01*
X77495000Y-91587000D01*
X77495000Y-91592000D01*
X77494000Y-91596000D01*
X77493000Y-91600000D01*
X77492000Y-91604000D01*
X77491000Y-91608000D01*
X77490000Y-91612000D01*
X77488000Y-91616000D01*
X77486000Y-91620000D01*
X77484000Y-91624000D01*
X77482000Y-91628000D01*
X77479000Y-91631000D01*
X77477000Y-91635000D01*
X77474000Y-91638000D01*
X77471000Y-91641000D01*
X77468000Y-91644000D01*
X77465000Y-91647000D01*
X77461000Y-91649000D01*
X77458000Y-91652000D01*
X77454000Y-91654000D01*
X77450000Y-91656000D01*
X77446000Y-91658000D01*
X77442000Y-91660000D01*
X77438000Y-91661000D01*
X77434000Y-91662000D01*
X77430000Y-91663000D01*
X77426000Y-91664000D01*
X77422000Y-91665000D01*
X77417000Y-91665000D01*
X77413000Y-91665000D01*
X77217000Y-91665000D01*
X77213000Y-91665000D01*
X77208000Y-91665000D01*
X77204000Y-91664000D01*
X77200000Y-91663000D01*
X77196000Y-91662000D01*
X77192000Y-91661000D01*
X77188000Y-91660000D01*
X77184000Y-91658000D01*
X77180000Y-91656000D01*
X77176000Y-91654000D01*
X77172000Y-91652000D01*
X77169000Y-91649000D01*
X77165000Y-91647000D01*
X77162000Y-91644000D01*
X77159000Y-91641000D01*
X77156000Y-91638000D01*
X77153000Y-91635000D01*
X77151000Y-91631000D01*
X77148000Y-91628000D01*
X77146000Y-91624000D01*
X77144000Y-91620000D01*
X77142000Y-91616000D01*
X77140000Y-91612000D01*
X77139000Y-91608000D01*
X77138000Y-91604000D01*
X77137000Y-91600000D01*
X77136000Y-91596000D01*
X77135000Y-91592000D01*
X77135000Y-91587000D01*
X77135000Y-91583000D01*
G36*
X77426000Y-90706000D02*
G01*
X77430000Y-90707000D01*
X77434000Y-90708000D01*
X77438000Y-90709000D01*
X77442000Y-90710000D01*
X77446000Y-90712000D01*
X77450000Y-90714000D01*
X77454000Y-90716000D01*
X77458000Y-90718000D01*
X77461000Y-90721000D01*
X77465000Y-90723000D01*
X77468000Y-90726000D01*
X77471000Y-90729000D01*
X77474000Y-90732000D01*
X77477000Y-90735000D01*
X77479000Y-90739000D01*
X77482000Y-90742000D01*
X77484000Y-90746000D01*
X77486000Y-90750000D01*
X77488000Y-90754000D01*
X77490000Y-90758000D01*
X77491000Y-90762000D01*
X77492000Y-90766000D01*
X77493000Y-90770000D01*
X77494000Y-90774000D01*
X77495000Y-90778000D01*
X77495000Y-90783000D01*
X77495000Y-90787000D01*
X77495000Y-91583000D01*
X77495000Y-91587000D01*
X77495000Y-91592000D01*
X77494000Y-91596000D01*
X77493000Y-91600000D01*
X77492000Y-91604000D01*
X77491000Y-91608000D01*
X77490000Y-91612000D01*
X77488000Y-91616000D01*
X77486000Y-91620000D01*
X77484000Y-91624000D01*
X77482000Y-91628000D01*
X77479000Y-91631000D01*
X77477000Y-91635000D01*
X77474000Y-91638000D01*
X77471000Y-91641000D01*
X77468000Y-91644000D01*
X77465000Y-91647000D01*
X77461000Y-91649000D01*
X77458000Y-91652000D01*
X77454000Y-91654000D01*
X77450000Y-91656000D01*
X77446000Y-91658000D01*
X77442000Y-91660000D01*
X77438000Y-91661000D01*
X77434000Y-91662000D01*
X77430000Y-91663000D01*
X77426000Y-91664000D01*
X77422000Y-91665000D01*
X77417000Y-91665000D01*
X77413000Y-91665000D01*
X77217000Y-91665000D01*
X77213000Y-91665000D01*
X77208000Y-91665000D01*
X77204000Y-91664000D01*
X77200000Y-91663000D01*
X77196000Y-91662000D01*
X77192000Y-91661000D01*
X77188000Y-91660000D01*
X77184000Y-91658000D01*
X77180000Y-91656000D01*
X77176000Y-91654000D01*
X77172000Y-91652000D01*
X77169000Y-91649000D01*
X77165000Y-91647000D01*
X77162000Y-91644000D01*
X77159000Y-91641000D01*
X77156000Y-91638000D01*
X77153000Y-91635000D01*
X77151000Y-91631000D01*
X77148000Y-91628000D01*
X77146000Y-91624000D01*
X77144000Y-91620000D01*
X77142000Y-91616000D01*
X77140000Y-91612000D01*
X77139000Y-91608000D01*
X77138000Y-91604000D01*
X77137000Y-91600000D01*
X77136000Y-91596000D01*
X77135000Y-91592000D01*
X77135000Y-91587000D01*
X77135000Y-91583000D01*
X77135000Y-90787000D01*
X77135000Y-90783000D01*
X77135000Y-90778000D01*
X77136000Y-90774000D01*
X77137000Y-90770000D01*
X77138000Y-90766000D01*
X77139000Y-90762000D01*
X77140000Y-90758000D01*
X77142000Y-90754000D01*
X77144000Y-90750000D01*
X77146000Y-90746000D01*
X77148000Y-90742000D01*
X77151000Y-90739000D01*
X77153000Y-90735000D01*
X77156000Y-90732000D01*
X77159000Y-90729000D01*
X77162000Y-90726000D01*
X77165000Y-90723000D01*
X77169000Y-90721000D01*
X77172000Y-90718000D01*
X77176000Y-90716000D01*
X77180000Y-90714000D01*
X77184000Y-90712000D01*
X77188000Y-90710000D01*
X77192000Y-90709000D01*
X77196000Y-90708000D01*
X77200000Y-90707000D01*
X77204000Y-90706000D01*
X77208000Y-90705000D01*
X77213000Y-90705000D01*
X77217000Y-90705000D01*
X77413000Y-90705000D01*
X77417000Y-90705000D01*
X77422000Y-90705000D01*
X77426000Y-90706000D01*
G37*
X77495000Y-86917000D02*
X77495000Y-87713000D01*
X77495000Y-87717000D01*
X77495000Y-87722000D01*
X77494000Y-87726000D01*
X77493000Y-87730000D01*
X77492000Y-87734000D01*
X77491000Y-87738000D01*
X77490000Y-87742000D01*
X77488000Y-87746000D01*
X77486000Y-87750000D01*
X77484000Y-87754000D01*
X77482000Y-87758000D01*
X77479000Y-87761000D01*
X77477000Y-87765000D01*
X77474000Y-87768000D01*
X77471000Y-87771000D01*
X77468000Y-87774000D01*
X77465000Y-87777000D01*
X77461000Y-87779000D01*
X77458000Y-87782000D01*
X77454000Y-87784000D01*
X77450000Y-87786000D01*
X77446000Y-87788000D01*
X77442000Y-87790000D01*
X77438000Y-87791000D01*
X77434000Y-87792000D01*
X77430000Y-87793000D01*
X77426000Y-87794000D01*
X77422000Y-87795000D01*
X77417000Y-87795000D01*
X77413000Y-87795000D01*
X77217000Y-87795000D01*
X77213000Y-87795000D01*
X77208000Y-87795000D01*
X77204000Y-87794000D01*
X77200000Y-87793000D01*
X77196000Y-87792000D01*
X77192000Y-87791000D01*
X77188000Y-87790000D01*
X77184000Y-87788000D01*
X77180000Y-87786000D01*
X77176000Y-87784000D01*
X77172000Y-87782000D01*
X77169000Y-87779000D01*
X77165000Y-87777000D01*
X77162000Y-87774000D01*
X77159000Y-87771000D01*
X77156000Y-87768000D01*
X77153000Y-87765000D01*
X77151000Y-87761000D01*
X77148000Y-87758000D01*
X77146000Y-87754000D01*
X77144000Y-87750000D01*
X77142000Y-87746000D01*
X77140000Y-87742000D01*
X77139000Y-87738000D01*
X77138000Y-87734000D01*
X77137000Y-87730000D01*
X77136000Y-87726000D01*
X77135000Y-87722000D01*
X77135000Y-87717000D01*
X77135000Y-87713000D01*
X77135000Y-86917000D01*
X77135000Y-86913000D01*
X77135000Y-86908000D01*
X77136000Y-86904000D01*
X77137000Y-86900000D01*
X77138000Y-86896000D01*
X77139000Y-86892000D01*
X77140000Y-86888000D01*
X77142000Y-86884000D01*
X77144000Y-86880000D01*
X77146000Y-86876000D01*
X77148000Y-86872000D01*
X77151000Y-86869000D01*
X77153000Y-86865000D01*
X77156000Y-86862000D01*
X77159000Y-86859000D01*
X77162000Y-86856000D01*
X77165000Y-86853000D01*
X77169000Y-86851000D01*
X77172000Y-86848000D01*
X77176000Y-86846000D01*
X77180000Y-86844000D01*
X77184000Y-86842000D01*
X77188000Y-86840000D01*
X77192000Y-86839000D01*
X77196000Y-86838000D01*
X77200000Y-86837000D01*
X77204000Y-86836000D01*
X77208000Y-86835000D01*
X77213000Y-86835000D01*
X77217000Y-86835000D01*
X77413000Y-86835000D01*
X77417000Y-86835000D01*
X77422000Y-86835000D01*
X77426000Y-86836000D01*
X77430000Y-86837000D01*
X77434000Y-86838000D01*
X77438000Y-86839000D01*
X77442000Y-86840000D01*
X77446000Y-86842000D01*
X77450000Y-86844000D01*
X77454000Y-86846000D01*
X77458000Y-86848000D01*
X77461000Y-86851000D01*
X77465000Y-86853000D01*
X77468000Y-86856000D01*
X77471000Y-86859000D01*
X77474000Y-86862000D01*
X77477000Y-86865000D01*
X77479000Y-86869000D01*
X77482000Y-86872000D01*
X77484000Y-86876000D01*
X77486000Y-86880000D01*
X77488000Y-86884000D01*
X77490000Y-86888000D01*
X77491000Y-86892000D01*
X77492000Y-86896000D01*
X77493000Y-86900000D01*
X77494000Y-86904000D01*
X77495000Y-86908000D01*
X77495000Y-86913000D01*
X77495000Y-86917000D01*
G36*
X77426000Y-86836000D02*
G01*
X77430000Y-86837000D01*
X77434000Y-86838000D01*
X77438000Y-86839000D01*
X77442000Y-86840000D01*
X77446000Y-86842000D01*
X77450000Y-86844000D01*
X77454000Y-86846000D01*
X77458000Y-86848000D01*
X77461000Y-86851000D01*
X77465000Y-86853000D01*
X77468000Y-86856000D01*
X77471000Y-86859000D01*
X77474000Y-86862000D01*
X77477000Y-86865000D01*
X77479000Y-86869000D01*
X77482000Y-86872000D01*
X77484000Y-86876000D01*
X77486000Y-86880000D01*
X77488000Y-86884000D01*
X77490000Y-86888000D01*
X77491000Y-86892000D01*
X77492000Y-86896000D01*
X77493000Y-86900000D01*
X77494000Y-86904000D01*
X77495000Y-86908000D01*
X77495000Y-86913000D01*
X77495000Y-86917000D01*
X77495000Y-87713000D01*
X77495000Y-87717000D01*
X77495000Y-87722000D01*
X77494000Y-87726000D01*
X77493000Y-87730000D01*
X77492000Y-87734000D01*
X77491000Y-87738000D01*
X77490000Y-87742000D01*
X77488000Y-87746000D01*
X77486000Y-87750000D01*
X77484000Y-87754000D01*
X77482000Y-87758000D01*
X77479000Y-87761000D01*
X77477000Y-87765000D01*
X77474000Y-87768000D01*
X77471000Y-87771000D01*
X77468000Y-87774000D01*
X77465000Y-87777000D01*
X77461000Y-87779000D01*
X77458000Y-87782000D01*
X77454000Y-87784000D01*
X77450000Y-87786000D01*
X77446000Y-87788000D01*
X77442000Y-87790000D01*
X77438000Y-87791000D01*
X77434000Y-87792000D01*
X77430000Y-87793000D01*
X77426000Y-87794000D01*
X77422000Y-87795000D01*
X77417000Y-87795000D01*
X77413000Y-87795000D01*
X77217000Y-87795000D01*
X77213000Y-87795000D01*
X77208000Y-87795000D01*
X77204000Y-87794000D01*
X77200000Y-87793000D01*
X77196000Y-87792000D01*
X77192000Y-87791000D01*
X77188000Y-87790000D01*
X77184000Y-87788000D01*
X77180000Y-87786000D01*
X77176000Y-87784000D01*
X77172000Y-87782000D01*
X77169000Y-87779000D01*
X77165000Y-87777000D01*
X77162000Y-87774000D01*
X77159000Y-87771000D01*
X77156000Y-87768000D01*
X77153000Y-87765000D01*
X77151000Y-87761000D01*
X77148000Y-87758000D01*
X77146000Y-87754000D01*
X77144000Y-87750000D01*
X77142000Y-87746000D01*
X77140000Y-87742000D01*
X77139000Y-87738000D01*
X77138000Y-87734000D01*
X77137000Y-87730000D01*
X77136000Y-87726000D01*
X77135000Y-87722000D01*
X77135000Y-87717000D01*
X77135000Y-87713000D01*
X77135000Y-86917000D01*
X77135000Y-86913000D01*
X77135000Y-86908000D01*
X77136000Y-86904000D01*
X77137000Y-86900000D01*
X77138000Y-86896000D01*
X77139000Y-86892000D01*
X77140000Y-86888000D01*
X77142000Y-86884000D01*
X77144000Y-86880000D01*
X77146000Y-86876000D01*
X77148000Y-86872000D01*
X77151000Y-86869000D01*
X77153000Y-86865000D01*
X77156000Y-86862000D01*
X77159000Y-86859000D01*
X77162000Y-86856000D01*
X77165000Y-86853000D01*
X77169000Y-86851000D01*
X77172000Y-86848000D01*
X77176000Y-86846000D01*
X77180000Y-86844000D01*
X77184000Y-86842000D01*
X77188000Y-86840000D01*
X77192000Y-86839000D01*
X77196000Y-86838000D01*
X77200000Y-86837000D01*
X77204000Y-86836000D01*
X77208000Y-86835000D01*
X77213000Y-86835000D01*
X77217000Y-86835000D01*
X77413000Y-86835000D01*
X77417000Y-86835000D01*
X77422000Y-86835000D01*
X77426000Y-86836000D01*
G37*
X77635000Y-91583000D02*
X77635000Y-90787000D01*
X77635000Y-90783000D01*
X77635000Y-90778000D01*
X77636000Y-90774000D01*
X77637000Y-90770000D01*
X77638000Y-90766000D01*
X77639000Y-90762000D01*
X77640000Y-90758000D01*
X77642000Y-90754000D01*
X77644000Y-90750000D01*
X77646000Y-90746000D01*
X77648000Y-90742000D01*
X77651000Y-90739000D01*
X77653000Y-90735000D01*
X77656000Y-90732000D01*
X77659000Y-90729000D01*
X77662000Y-90726000D01*
X77665000Y-90723000D01*
X77669000Y-90721000D01*
X77672000Y-90718000D01*
X77676000Y-90716000D01*
X77680000Y-90714000D01*
X77684000Y-90712000D01*
X77688000Y-90710000D01*
X77692000Y-90709000D01*
X77696000Y-90708000D01*
X77700000Y-90707000D01*
X77704000Y-90706000D01*
X77708000Y-90705000D01*
X77713000Y-90705000D01*
X77717000Y-90705000D01*
X77913000Y-90705000D01*
X77917000Y-90705000D01*
X77922000Y-90705000D01*
X77926000Y-90706000D01*
X77930000Y-90707000D01*
X77934000Y-90708000D01*
X77938000Y-90709000D01*
X77942000Y-90710000D01*
X77946000Y-90712000D01*
X77950000Y-90714000D01*
X77954000Y-90716000D01*
X77958000Y-90718000D01*
X77961000Y-90721000D01*
X77965000Y-90723000D01*
X77968000Y-90726000D01*
X77971000Y-90729000D01*
X77974000Y-90732000D01*
X77977000Y-90735000D01*
X77979000Y-90739000D01*
X77982000Y-90742000D01*
X77984000Y-90746000D01*
X77986000Y-90750000D01*
X77988000Y-90754000D01*
X77990000Y-90758000D01*
X77991000Y-90762000D01*
X77992000Y-90766000D01*
X77993000Y-90770000D01*
X77994000Y-90774000D01*
X77995000Y-90778000D01*
X77995000Y-90783000D01*
X77995000Y-90787000D01*
X77995000Y-91583000D01*
X77995000Y-91587000D01*
X77995000Y-91592000D01*
X77994000Y-91596000D01*
X77993000Y-91600000D01*
X77992000Y-91604000D01*
X77991000Y-91608000D01*
X77990000Y-91612000D01*
X77988000Y-91616000D01*
X77986000Y-91620000D01*
X77984000Y-91624000D01*
X77982000Y-91628000D01*
X77979000Y-91631000D01*
X77977000Y-91635000D01*
X77974000Y-91638000D01*
X77971000Y-91641000D01*
X77968000Y-91644000D01*
X77965000Y-91647000D01*
X77961000Y-91649000D01*
X77958000Y-91652000D01*
X77954000Y-91654000D01*
X77950000Y-91656000D01*
X77946000Y-91658000D01*
X77942000Y-91660000D01*
X77938000Y-91661000D01*
X77934000Y-91662000D01*
X77930000Y-91663000D01*
X77926000Y-91664000D01*
X77922000Y-91665000D01*
X77917000Y-91665000D01*
X77913000Y-91665000D01*
X77717000Y-91665000D01*
X77713000Y-91665000D01*
X77708000Y-91665000D01*
X77704000Y-91664000D01*
X77700000Y-91663000D01*
X77696000Y-91662000D01*
X77692000Y-91661000D01*
X77688000Y-91660000D01*
X77684000Y-91658000D01*
X77680000Y-91656000D01*
X77676000Y-91654000D01*
X77672000Y-91652000D01*
X77669000Y-91649000D01*
X77665000Y-91647000D01*
X77662000Y-91644000D01*
X77659000Y-91641000D01*
X77656000Y-91638000D01*
X77653000Y-91635000D01*
X77651000Y-91631000D01*
X77648000Y-91628000D01*
X77646000Y-91624000D01*
X77644000Y-91620000D01*
X77642000Y-91616000D01*
X77640000Y-91612000D01*
X77639000Y-91608000D01*
X77638000Y-91604000D01*
X77637000Y-91600000D01*
X77636000Y-91596000D01*
X77635000Y-91592000D01*
X77635000Y-91587000D01*
X77635000Y-91583000D01*
G36*
X77926000Y-90706000D02*
G01*
X77930000Y-90707000D01*
X77934000Y-90708000D01*
X77938000Y-90709000D01*
X77942000Y-90710000D01*
X77946000Y-90712000D01*
X77950000Y-90714000D01*
X77954000Y-90716000D01*
X77958000Y-90718000D01*
X77961000Y-90721000D01*
X77965000Y-90723000D01*
X77968000Y-90726000D01*
X77971000Y-90729000D01*
X77974000Y-90732000D01*
X77977000Y-90735000D01*
X77979000Y-90739000D01*
X77982000Y-90742000D01*
X77984000Y-90746000D01*
X77986000Y-90750000D01*
X77988000Y-90754000D01*
X77990000Y-90758000D01*
X77991000Y-90762000D01*
X77992000Y-90766000D01*
X77993000Y-90770000D01*
X77994000Y-90774000D01*
X77995000Y-90778000D01*
X77995000Y-90783000D01*
X77995000Y-90787000D01*
X77995000Y-91583000D01*
X77995000Y-91587000D01*
X77995000Y-91592000D01*
X77994000Y-91596000D01*
X77993000Y-91600000D01*
X77992000Y-91604000D01*
X77991000Y-91608000D01*
X77990000Y-91612000D01*
X77988000Y-91616000D01*
X77986000Y-91620000D01*
X77984000Y-91624000D01*
X77982000Y-91628000D01*
X77979000Y-91631000D01*
X77977000Y-91635000D01*
X77974000Y-91638000D01*
X77971000Y-91641000D01*
X77968000Y-91644000D01*
X77965000Y-91647000D01*
X77961000Y-91649000D01*
X77958000Y-91652000D01*
X77954000Y-91654000D01*
X77950000Y-91656000D01*
X77946000Y-91658000D01*
X77942000Y-91660000D01*
X77938000Y-91661000D01*
X77934000Y-91662000D01*
X77930000Y-91663000D01*
X77926000Y-91664000D01*
X77922000Y-91665000D01*
X77917000Y-91665000D01*
X77913000Y-91665000D01*
X77717000Y-91665000D01*
X77713000Y-91665000D01*
X77708000Y-91665000D01*
X77704000Y-91664000D01*
X77700000Y-91663000D01*
X77696000Y-91662000D01*
X77692000Y-91661000D01*
X77688000Y-91660000D01*
X77684000Y-91658000D01*
X77680000Y-91656000D01*
X77676000Y-91654000D01*
X77672000Y-91652000D01*
X77669000Y-91649000D01*
X77665000Y-91647000D01*
X77662000Y-91644000D01*
X77659000Y-91641000D01*
X77656000Y-91638000D01*
X77653000Y-91635000D01*
X77651000Y-91631000D01*
X77648000Y-91628000D01*
X77646000Y-91624000D01*
X77644000Y-91620000D01*
X77642000Y-91616000D01*
X77640000Y-91612000D01*
X77639000Y-91608000D01*
X77638000Y-91604000D01*
X77637000Y-91600000D01*
X77636000Y-91596000D01*
X77635000Y-91592000D01*
X77635000Y-91587000D01*
X77635000Y-91583000D01*
X77635000Y-90787000D01*
X77635000Y-90783000D01*
X77635000Y-90778000D01*
X77636000Y-90774000D01*
X77637000Y-90770000D01*
X77638000Y-90766000D01*
X77639000Y-90762000D01*
X77640000Y-90758000D01*
X77642000Y-90754000D01*
X77644000Y-90750000D01*
X77646000Y-90746000D01*
X77648000Y-90742000D01*
X77651000Y-90739000D01*
X77653000Y-90735000D01*
X77656000Y-90732000D01*
X77659000Y-90729000D01*
X77662000Y-90726000D01*
X77665000Y-90723000D01*
X77669000Y-90721000D01*
X77672000Y-90718000D01*
X77676000Y-90716000D01*
X77680000Y-90714000D01*
X77684000Y-90712000D01*
X77688000Y-90710000D01*
X77692000Y-90709000D01*
X77696000Y-90708000D01*
X77700000Y-90707000D01*
X77704000Y-90706000D01*
X77708000Y-90705000D01*
X77713000Y-90705000D01*
X77717000Y-90705000D01*
X77913000Y-90705000D01*
X77917000Y-90705000D01*
X77922000Y-90705000D01*
X77926000Y-90706000D01*
G37*
X77995000Y-86917000D02*
X77995000Y-87713000D01*
X77995000Y-87717000D01*
X77995000Y-87722000D01*
X77994000Y-87726000D01*
X77993000Y-87730000D01*
X77992000Y-87734000D01*
X77991000Y-87738000D01*
X77990000Y-87742000D01*
X77988000Y-87746000D01*
X77986000Y-87750000D01*
X77984000Y-87754000D01*
X77982000Y-87758000D01*
X77979000Y-87761000D01*
X77977000Y-87765000D01*
X77974000Y-87768000D01*
X77971000Y-87771000D01*
X77968000Y-87774000D01*
X77965000Y-87777000D01*
X77961000Y-87779000D01*
X77958000Y-87782000D01*
X77954000Y-87784000D01*
X77950000Y-87786000D01*
X77946000Y-87788000D01*
X77942000Y-87790000D01*
X77938000Y-87791000D01*
X77934000Y-87792000D01*
X77930000Y-87793000D01*
X77926000Y-87794000D01*
X77922000Y-87795000D01*
X77917000Y-87795000D01*
X77913000Y-87795000D01*
X77717000Y-87795000D01*
X77713000Y-87795000D01*
X77708000Y-87795000D01*
X77704000Y-87794000D01*
X77700000Y-87793000D01*
X77696000Y-87792000D01*
X77692000Y-87791000D01*
X77688000Y-87790000D01*
X77684000Y-87788000D01*
X77680000Y-87786000D01*
X77676000Y-87784000D01*
X77672000Y-87782000D01*
X77669000Y-87779000D01*
X77665000Y-87777000D01*
X77662000Y-87774000D01*
X77659000Y-87771000D01*
X77656000Y-87768000D01*
X77653000Y-87765000D01*
X77651000Y-87761000D01*
X77648000Y-87758000D01*
X77646000Y-87754000D01*
X77644000Y-87750000D01*
X77642000Y-87746000D01*
X77640000Y-87742000D01*
X77639000Y-87738000D01*
X77638000Y-87734000D01*
X77637000Y-87730000D01*
X77636000Y-87726000D01*
X77635000Y-87722000D01*
X77635000Y-87717000D01*
X77635000Y-87713000D01*
X77635000Y-86917000D01*
X77635000Y-86913000D01*
X77635000Y-86908000D01*
X77636000Y-86904000D01*
X77637000Y-86900000D01*
X77638000Y-86896000D01*
X77639000Y-86892000D01*
X77640000Y-86888000D01*
X77642000Y-86884000D01*
X77644000Y-86880000D01*
X77646000Y-86876000D01*
X77648000Y-86872000D01*
X77651000Y-86869000D01*
X77653000Y-86865000D01*
X77656000Y-86862000D01*
X77659000Y-86859000D01*
X77662000Y-86856000D01*
X77665000Y-86853000D01*
X77669000Y-86851000D01*
X77672000Y-86848000D01*
X77676000Y-86846000D01*
X77680000Y-86844000D01*
X77684000Y-86842000D01*
X77688000Y-86840000D01*
X77692000Y-86839000D01*
X77696000Y-86838000D01*
X77700000Y-86837000D01*
X77704000Y-86836000D01*
X77708000Y-86835000D01*
X77713000Y-86835000D01*
X77717000Y-86835000D01*
X77913000Y-86835000D01*
X77917000Y-86835000D01*
X77922000Y-86835000D01*
X77926000Y-86836000D01*
X77930000Y-86837000D01*
X77934000Y-86838000D01*
X77938000Y-86839000D01*
X77942000Y-86840000D01*
X77946000Y-86842000D01*
X77950000Y-86844000D01*
X77954000Y-86846000D01*
X77958000Y-86848000D01*
X77961000Y-86851000D01*
X77965000Y-86853000D01*
X77968000Y-86856000D01*
X77971000Y-86859000D01*
X77974000Y-86862000D01*
X77977000Y-86865000D01*
X77979000Y-86869000D01*
X77982000Y-86872000D01*
X77984000Y-86876000D01*
X77986000Y-86880000D01*
X77988000Y-86884000D01*
X77990000Y-86888000D01*
X77991000Y-86892000D01*
X77992000Y-86896000D01*
X77993000Y-86900000D01*
X77994000Y-86904000D01*
X77995000Y-86908000D01*
X77995000Y-86913000D01*
X77995000Y-86917000D01*
G36*
X77926000Y-86836000D02*
G01*
X77930000Y-86837000D01*
X77934000Y-86838000D01*
X77938000Y-86839000D01*
X77942000Y-86840000D01*
X77946000Y-86842000D01*
X77950000Y-86844000D01*
X77954000Y-86846000D01*
X77958000Y-86848000D01*
X77961000Y-86851000D01*
X77965000Y-86853000D01*
X77968000Y-86856000D01*
X77971000Y-86859000D01*
X77974000Y-86862000D01*
X77977000Y-86865000D01*
X77979000Y-86869000D01*
X77982000Y-86872000D01*
X77984000Y-86876000D01*
X77986000Y-86880000D01*
X77988000Y-86884000D01*
X77990000Y-86888000D01*
X77991000Y-86892000D01*
X77992000Y-86896000D01*
X77993000Y-86900000D01*
X77994000Y-86904000D01*
X77995000Y-86908000D01*
X77995000Y-86913000D01*
X77995000Y-86917000D01*
X77995000Y-87713000D01*
X77995000Y-87717000D01*
X77995000Y-87722000D01*
X77994000Y-87726000D01*
X77993000Y-87730000D01*
X77992000Y-87734000D01*
X77991000Y-87738000D01*
X77990000Y-87742000D01*
X77988000Y-87746000D01*
X77986000Y-87750000D01*
X77984000Y-87754000D01*
X77982000Y-87758000D01*
X77979000Y-87761000D01*
X77977000Y-87765000D01*
X77974000Y-87768000D01*
X77971000Y-87771000D01*
X77968000Y-87774000D01*
X77965000Y-87777000D01*
X77961000Y-87779000D01*
X77958000Y-87782000D01*
X77954000Y-87784000D01*
X77950000Y-87786000D01*
X77946000Y-87788000D01*
X77942000Y-87790000D01*
X77938000Y-87791000D01*
X77934000Y-87792000D01*
X77930000Y-87793000D01*
X77926000Y-87794000D01*
X77922000Y-87795000D01*
X77917000Y-87795000D01*
X77913000Y-87795000D01*
X77717000Y-87795000D01*
X77713000Y-87795000D01*
X77708000Y-87795000D01*
X77704000Y-87794000D01*
X77700000Y-87793000D01*
X77696000Y-87792000D01*
X77692000Y-87791000D01*
X77688000Y-87790000D01*
X77684000Y-87788000D01*
X77680000Y-87786000D01*
X77676000Y-87784000D01*
X77672000Y-87782000D01*
X77669000Y-87779000D01*
X77665000Y-87777000D01*
X77662000Y-87774000D01*
X77659000Y-87771000D01*
X77656000Y-87768000D01*
X77653000Y-87765000D01*
X77651000Y-87761000D01*
X77648000Y-87758000D01*
X77646000Y-87754000D01*
X77644000Y-87750000D01*
X77642000Y-87746000D01*
X77640000Y-87742000D01*
X77639000Y-87738000D01*
X77638000Y-87734000D01*
X77637000Y-87730000D01*
X77636000Y-87726000D01*
X77635000Y-87722000D01*
X77635000Y-87717000D01*
X77635000Y-87713000D01*
X77635000Y-86917000D01*
X77635000Y-86913000D01*
X77635000Y-86908000D01*
X77636000Y-86904000D01*
X77637000Y-86900000D01*
X77638000Y-86896000D01*
X77639000Y-86892000D01*
X77640000Y-86888000D01*
X77642000Y-86884000D01*
X77644000Y-86880000D01*
X77646000Y-86876000D01*
X77648000Y-86872000D01*
X77651000Y-86869000D01*
X77653000Y-86865000D01*
X77656000Y-86862000D01*
X77659000Y-86859000D01*
X77662000Y-86856000D01*
X77665000Y-86853000D01*
X77669000Y-86851000D01*
X77672000Y-86848000D01*
X77676000Y-86846000D01*
X77680000Y-86844000D01*
X77684000Y-86842000D01*
X77688000Y-86840000D01*
X77692000Y-86839000D01*
X77696000Y-86838000D01*
X77700000Y-86837000D01*
X77704000Y-86836000D01*
X77708000Y-86835000D01*
X77713000Y-86835000D01*
X77717000Y-86835000D01*
X77913000Y-86835000D01*
X77917000Y-86835000D01*
X77922000Y-86835000D01*
X77926000Y-86836000D01*
G37*
X78135000Y-91583000D02*
X78135000Y-90787000D01*
X78135000Y-90783000D01*
X78135000Y-90778000D01*
X78136000Y-90774000D01*
X78137000Y-90770000D01*
X78138000Y-90766000D01*
X78139000Y-90762000D01*
X78140000Y-90758000D01*
X78142000Y-90754000D01*
X78144000Y-90750000D01*
X78146000Y-90746000D01*
X78148000Y-90742000D01*
X78151000Y-90739000D01*
X78153000Y-90735000D01*
X78156000Y-90732000D01*
X78159000Y-90729000D01*
X78162000Y-90726000D01*
X78165000Y-90723000D01*
X78169000Y-90721000D01*
X78172000Y-90718000D01*
X78176000Y-90716000D01*
X78180000Y-90714000D01*
X78184000Y-90712000D01*
X78188000Y-90710000D01*
X78192000Y-90709000D01*
X78196000Y-90708000D01*
X78200000Y-90707000D01*
X78204000Y-90706000D01*
X78208000Y-90705000D01*
X78213000Y-90705000D01*
X78217000Y-90705000D01*
X78413000Y-90705000D01*
X78417000Y-90705000D01*
X78422000Y-90705000D01*
X78426000Y-90706000D01*
X78430000Y-90707000D01*
X78434000Y-90708000D01*
X78438000Y-90709000D01*
X78442000Y-90710000D01*
X78446000Y-90712000D01*
X78450000Y-90714000D01*
X78454000Y-90716000D01*
X78458000Y-90718000D01*
X78461000Y-90721000D01*
X78465000Y-90723000D01*
X78468000Y-90726000D01*
X78471000Y-90729000D01*
X78474000Y-90732000D01*
X78477000Y-90735000D01*
X78479000Y-90739000D01*
X78482000Y-90742000D01*
X78484000Y-90746000D01*
X78486000Y-90750000D01*
X78488000Y-90754000D01*
X78490000Y-90758000D01*
X78491000Y-90762000D01*
X78492000Y-90766000D01*
X78493000Y-90770000D01*
X78494000Y-90774000D01*
X78495000Y-90778000D01*
X78495000Y-90783000D01*
X78495000Y-90787000D01*
X78495000Y-91583000D01*
X78495000Y-91587000D01*
X78495000Y-91592000D01*
X78494000Y-91596000D01*
X78493000Y-91600000D01*
X78492000Y-91604000D01*
X78491000Y-91608000D01*
X78490000Y-91612000D01*
X78488000Y-91616000D01*
X78486000Y-91620000D01*
X78484000Y-91624000D01*
X78482000Y-91628000D01*
X78479000Y-91631000D01*
X78477000Y-91635000D01*
X78474000Y-91638000D01*
X78471000Y-91641000D01*
X78468000Y-91644000D01*
X78465000Y-91647000D01*
X78461000Y-91649000D01*
X78458000Y-91652000D01*
X78454000Y-91654000D01*
X78450000Y-91656000D01*
X78446000Y-91658000D01*
X78442000Y-91660000D01*
X78438000Y-91661000D01*
X78434000Y-91662000D01*
X78430000Y-91663000D01*
X78426000Y-91664000D01*
X78422000Y-91665000D01*
X78417000Y-91665000D01*
X78413000Y-91665000D01*
X78217000Y-91665000D01*
X78213000Y-91665000D01*
X78208000Y-91665000D01*
X78204000Y-91664000D01*
X78200000Y-91663000D01*
X78196000Y-91662000D01*
X78192000Y-91661000D01*
X78188000Y-91660000D01*
X78184000Y-91658000D01*
X78180000Y-91656000D01*
X78176000Y-91654000D01*
X78172000Y-91652000D01*
X78169000Y-91649000D01*
X78165000Y-91647000D01*
X78162000Y-91644000D01*
X78159000Y-91641000D01*
X78156000Y-91638000D01*
X78153000Y-91635000D01*
X78151000Y-91631000D01*
X78148000Y-91628000D01*
X78146000Y-91624000D01*
X78144000Y-91620000D01*
X78142000Y-91616000D01*
X78140000Y-91612000D01*
X78139000Y-91608000D01*
X78138000Y-91604000D01*
X78137000Y-91600000D01*
X78136000Y-91596000D01*
X78135000Y-91592000D01*
X78135000Y-91587000D01*
X78135000Y-91583000D01*
G36*
X78426000Y-90706000D02*
G01*
X78430000Y-90707000D01*
X78434000Y-90708000D01*
X78438000Y-90709000D01*
X78442000Y-90710000D01*
X78446000Y-90712000D01*
X78450000Y-90714000D01*
X78454000Y-90716000D01*
X78458000Y-90718000D01*
X78461000Y-90721000D01*
X78465000Y-90723000D01*
X78468000Y-90726000D01*
X78471000Y-90729000D01*
X78474000Y-90732000D01*
X78477000Y-90735000D01*
X78479000Y-90739000D01*
X78482000Y-90742000D01*
X78484000Y-90746000D01*
X78486000Y-90750000D01*
X78488000Y-90754000D01*
X78490000Y-90758000D01*
X78491000Y-90762000D01*
X78492000Y-90766000D01*
X78493000Y-90770000D01*
X78494000Y-90774000D01*
X78495000Y-90778000D01*
X78495000Y-90783000D01*
X78495000Y-90787000D01*
X78495000Y-91583000D01*
X78495000Y-91587000D01*
X78495000Y-91592000D01*
X78494000Y-91596000D01*
X78493000Y-91600000D01*
X78492000Y-91604000D01*
X78491000Y-91608000D01*
X78490000Y-91612000D01*
X78488000Y-91616000D01*
X78486000Y-91620000D01*
X78484000Y-91624000D01*
X78482000Y-91628000D01*
X78479000Y-91631000D01*
X78477000Y-91635000D01*
X78474000Y-91638000D01*
X78471000Y-91641000D01*
X78468000Y-91644000D01*
X78465000Y-91647000D01*
X78461000Y-91649000D01*
X78458000Y-91652000D01*
X78454000Y-91654000D01*
X78450000Y-91656000D01*
X78446000Y-91658000D01*
X78442000Y-91660000D01*
X78438000Y-91661000D01*
X78434000Y-91662000D01*
X78430000Y-91663000D01*
X78426000Y-91664000D01*
X78422000Y-91665000D01*
X78417000Y-91665000D01*
X78413000Y-91665000D01*
X78217000Y-91665000D01*
X78213000Y-91665000D01*
X78208000Y-91665000D01*
X78204000Y-91664000D01*
X78200000Y-91663000D01*
X78196000Y-91662000D01*
X78192000Y-91661000D01*
X78188000Y-91660000D01*
X78184000Y-91658000D01*
X78180000Y-91656000D01*
X78176000Y-91654000D01*
X78172000Y-91652000D01*
X78169000Y-91649000D01*
X78165000Y-91647000D01*
X78162000Y-91644000D01*
X78159000Y-91641000D01*
X78156000Y-91638000D01*
X78153000Y-91635000D01*
X78151000Y-91631000D01*
X78148000Y-91628000D01*
X78146000Y-91624000D01*
X78144000Y-91620000D01*
X78142000Y-91616000D01*
X78140000Y-91612000D01*
X78139000Y-91608000D01*
X78138000Y-91604000D01*
X78137000Y-91600000D01*
X78136000Y-91596000D01*
X78135000Y-91592000D01*
X78135000Y-91587000D01*
X78135000Y-91583000D01*
X78135000Y-90787000D01*
X78135000Y-90783000D01*
X78135000Y-90778000D01*
X78136000Y-90774000D01*
X78137000Y-90770000D01*
X78138000Y-90766000D01*
X78139000Y-90762000D01*
X78140000Y-90758000D01*
X78142000Y-90754000D01*
X78144000Y-90750000D01*
X78146000Y-90746000D01*
X78148000Y-90742000D01*
X78151000Y-90739000D01*
X78153000Y-90735000D01*
X78156000Y-90732000D01*
X78159000Y-90729000D01*
X78162000Y-90726000D01*
X78165000Y-90723000D01*
X78169000Y-90721000D01*
X78172000Y-90718000D01*
X78176000Y-90716000D01*
X78180000Y-90714000D01*
X78184000Y-90712000D01*
X78188000Y-90710000D01*
X78192000Y-90709000D01*
X78196000Y-90708000D01*
X78200000Y-90707000D01*
X78204000Y-90706000D01*
X78208000Y-90705000D01*
X78213000Y-90705000D01*
X78217000Y-90705000D01*
X78413000Y-90705000D01*
X78417000Y-90705000D01*
X78422000Y-90705000D01*
X78426000Y-90706000D01*
G37*
X78495000Y-86917000D02*
X78495000Y-87713000D01*
X78495000Y-87717000D01*
X78495000Y-87722000D01*
X78494000Y-87726000D01*
X78493000Y-87730000D01*
X78492000Y-87734000D01*
X78491000Y-87738000D01*
X78490000Y-87742000D01*
X78488000Y-87746000D01*
X78486000Y-87750000D01*
X78484000Y-87754000D01*
X78482000Y-87758000D01*
X78479000Y-87761000D01*
X78477000Y-87765000D01*
X78474000Y-87768000D01*
X78471000Y-87771000D01*
X78468000Y-87774000D01*
X78465000Y-87777000D01*
X78461000Y-87779000D01*
X78458000Y-87782000D01*
X78454000Y-87784000D01*
X78450000Y-87786000D01*
X78446000Y-87788000D01*
X78442000Y-87790000D01*
X78438000Y-87791000D01*
X78434000Y-87792000D01*
X78430000Y-87793000D01*
X78426000Y-87794000D01*
X78422000Y-87795000D01*
X78417000Y-87795000D01*
X78413000Y-87795000D01*
X78217000Y-87795000D01*
X78213000Y-87795000D01*
X78208000Y-87795000D01*
X78204000Y-87794000D01*
X78200000Y-87793000D01*
X78196000Y-87792000D01*
X78192000Y-87791000D01*
X78188000Y-87790000D01*
X78184000Y-87788000D01*
X78180000Y-87786000D01*
X78176000Y-87784000D01*
X78172000Y-87782000D01*
X78169000Y-87779000D01*
X78165000Y-87777000D01*
X78162000Y-87774000D01*
X78159000Y-87771000D01*
X78156000Y-87768000D01*
X78153000Y-87765000D01*
X78151000Y-87761000D01*
X78148000Y-87758000D01*
X78146000Y-87754000D01*
X78144000Y-87750000D01*
X78142000Y-87746000D01*
X78140000Y-87742000D01*
X78139000Y-87738000D01*
X78138000Y-87734000D01*
X78137000Y-87730000D01*
X78136000Y-87726000D01*
X78135000Y-87722000D01*
X78135000Y-87717000D01*
X78135000Y-87713000D01*
X78135000Y-86917000D01*
X78135000Y-86913000D01*
X78135000Y-86908000D01*
X78136000Y-86904000D01*
X78137000Y-86900000D01*
X78138000Y-86896000D01*
X78139000Y-86892000D01*
X78140000Y-86888000D01*
X78142000Y-86884000D01*
X78144000Y-86880000D01*
X78146000Y-86876000D01*
X78148000Y-86872000D01*
X78151000Y-86869000D01*
X78153000Y-86865000D01*
X78156000Y-86862000D01*
X78159000Y-86859000D01*
X78162000Y-86856000D01*
X78165000Y-86853000D01*
X78169000Y-86851000D01*
X78172000Y-86848000D01*
X78176000Y-86846000D01*
X78180000Y-86844000D01*
X78184000Y-86842000D01*
X78188000Y-86840000D01*
X78192000Y-86839000D01*
X78196000Y-86838000D01*
X78200000Y-86837000D01*
X78204000Y-86836000D01*
X78208000Y-86835000D01*
X78213000Y-86835000D01*
X78217000Y-86835000D01*
X78413000Y-86835000D01*
X78417000Y-86835000D01*
X78422000Y-86835000D01*
X78426000Y-86836000D01*
X78430000Y-86837000D01*
X78434000Y-86838000D01*
X78438000Y-86839000D01*
X78442000Y-86840000D01*
X78446000Y-86842000D01*
X78450000Y-86844000D01*
X78454000Y-86846000D01*
X78458000Y-86848000D01*
X78461000Y-86851000D01*
X78465000Y-86853000D01*
X78468000Y-86856000D01*
X78471000Y-86859000D01*
X78474000Y-86862000D01*
X78477000Y-86865000D01*
X78479000Y-86869000D01*
X78482000Y-86872000D01*
X78484000Y-86876000D01*
X78486000Y-86880000D01*
X78488000Y-86884000D01*
X78490000Y-86888000D01*
X78491000Y-86892000D01*
X78492000Y-86896000D01*
X78493000Y-86900000D01*
X78494000Y-86904000D01*
X78495000Y-86908000D01*
X78495000Y-86913000D01*
X78495000Y-86917000D01*
G36*
X78426000Y-86836000D02*
G01*
X78430000Y-86837000D01*
X78434000Y-86838000D01*
X78438000Y-86839000D01*
X78442000Y-86840000D01*
X78446000Y-86842000D01*
X78450000Y-86844000D01*
X78454000Y-86846000D01*
X78458000Y-86848000D01*
X78461000Y-86851000D01*
X78465000Y-86853000D01*
X78468000Y-86856000D01*
X78471000Y-86859000D01*
X78474000Y-86862000D01*
X78477000Y-86865000D01*
X78479000Y-86869000D01*
X78482000Y-86872000D01*
X78484000Y-86876000D01*
X78486000Y-86880000D01*
X78488000Y-86884000D01*
X78490000Y-86888000D01*
X78491000Y-86892000D01*
X78492000Y-86896000D01*
X78493000Y-86900000D01*
X78494000Y-86904000D01*
X78495000Y-86908000D01*
X78495000Y-86913000D01*
X78495000Y-86917000D01*
X78495000Y-87713000D01*
X78495000Y-87717000D01*
X78495000Y-87722000D01*
X78494000Y-87726000D01*
X78493000Y-87730000D01*
X78492000Y-87734000D01*
X78491000Y-87738000D01*
X78490000Y-87742000D01*
X78488000Y-87746000D01*
X78486000Y-87750000D01*
X78484000Y-87754000D01*
X78482000Y-87758000D01*
X78479000Y-87761000D01*
X78477000Y-87765000D01*
X78474000Y-87768000D01*
X78471000Y-87771000D01*
X78468000Y-87774000D01*
X78465000Y-87777000D01*
X78461000Y-87779000D01*
X78458000Y-87782000D01*
X78454000Y-87784000D01*
X78450000Y-87786000D01*
X78446000Y-87788000D01*
X78442000Y-87790000D01*
X78438000Y-87791000D01*
X78434000Y-87792000D01*
X78430000Y-87793000D01*
X78426000Y-87794000D01*
X78422000Y-87795000D01*
X78417000Y-87795000D01*
X78413000Y-87795000D01*
X78217000Y-87795000D01*
X78213000Y-87795000D01*
X78208000Y-87795000D01*
X78204000Y-87794000D01*
X78200000Y-87793000D01*
X78196000Y-87792000D01*
X78192000Y-87791000D01*
X78188000Y-87790000D01*
X78184000Y-87788000D01*
X78180000Y-87786000D01*
X78176000Y-87784000D01*
X78172000Y-87782000D01*
X78169000Y-87779000D01*
X78165000Y-87777000D01*
X78162000Y-87774000D01*
X78159000Y-87771000D01*
X78156000Y-87768000D01*
X78153000Y-87765000D01*
X78151000Y-87761000D01*
X78148000Y-87758000D01*
X78146000Y-87754000D01*
X78144000Y-87750000D01*
X78142000Y-87746000D01*
X78140000Y-87742000D01*
X78139000Y-87738000D01*
X78138000Y-87734000D01*
X78137000Y-87730000D01*
X78136000Y-87726000D01*
X78135000Y-87722000D01*
X78135000Y-87717000D01*
X78135000Y-87713000D01*
X78135000Y-86917000D01*
X78135000Y-86913000D01*
X78135000Y-86908000D01*
X78136000Y-86904000D01*
X78137000Y-86900000D01*
X78138000Y-86896000D01*
X78139000Y-86892000D01*
X78140000Y-86888000D01*
X78142000Y-86884000D01*
X78144000Y-86880000D01*
X78146000Y-86876000D01*
X78148000Y-86872000D01*
X78151000Y-86869000D01*
X78153000Y-86865000D01*
X78156000Y-86862000D01*
X78159000Y-86859000D01*
X78162000Y-86856000D01*
X78165000Y-86853000D01*
X78169000Y-86851000D01*
X78172000Y-86848000D01*
X78176000Y-86846000D01*
X78180000Y-86844000D01*
X78184000Y-86842000D01*
X78188000Y-86840000D01*
X78192000Y-86839000D01*
X78196000Y-86838000D01*
X78200000Y-86837000D01*
X78204000Y-86836000D01*
X78208000Y-86835000D01*
X78213000Y-86835000D01*
X78217000Y-86835000D01*
X78413000Y-86835000D01*
X78417000Y-86835000D01*
X78422000Y-86835000D01*
X78426000Y-86836000D01*
G37*
X79398000Y-88180000D02*
X78602000Y-88180000D01*
X78598000Y-88180000D01*
X78593000Y-88180000D01*
X78589000Y-88179000D01*
X78585000Y-88178000D01*
X78581000Y-88177000D01*
X78577000Y-88176000D01*
X78573000Y-88175000D01*
X78569000Y-88173000D01*
X78565000Y-88171000D01*
X78561000Y-88169000D01*
X78557000Y-88167000D01*
X78554000Y-88164000D01*
X78550000Y-88162000D01*
X78547000Y-88159000D01*
X78544000Y-88156000D01*
X78541000Y-88153000D01*
X78538000Y-88150000D01*
X78536000Y-88146000D01*
X78533000Y-88143000D01*
X78531000Y-88139000D01*
X78529000Y-88135000D01*
X78527000Y-88131000D01*
X78525000Y-88127000D01*
X78524000Y-88123000D01*
X78523000Y-88119000D01*
X78522000Y-88115000D01*
X78521000Y-88111000D01*
X78520000Y-88107000D01*
X78520000Y-88102000D01*
X78520000Y-88098000D01*
X78520000Y-87902000D01*
X78520000Y-87898000D01*
X78520000Y-87893000D01*
X78521000Y-87889000D01*
X78522000Y-87885000D01*
X78523000Y-87881000D01*
X78524000Y-87877000D01*
X78525000Y-87873000D01*
X78527000Y-87869000D01*
X78529000Y-87865000D01*
X78531000Y-87861000D01*
X78533000Y-87857000D01*
X78536000Y-87854000D01*
X78538000Y-87850000D01*
X78541000Y-87847000D01*
X78544000Y-87844000D01*
X78547000Y-87841000D01*
X78550000Y-87838000D01*
X78554000Y-87836000D01*
X78557000Y-87833000D01*
X78561000Y-87831000D01*
X78565000Y-87829000D01*
X78569000Y-87827000D01*
X78573000Y-87825000D01*
X78577000Y-87824000D01*
X78581000Y-87823000D01*
X78585000Y-87822000D01*
X78589000Y-87821000D01*
X78593000Y-87820000D01*
X78598000Y-87820000D01*
X78602000Y-87820000D01*
X79398000Y-87820000D01*
X79402000Y-87820000D01*
X79407000Y-87820000D01*
X79411000Y-87821000D01*
X79415000Y-87822000D01*
X79419000Y-87823000D01*
X79423000Y-87824000D01*
X79427000Y-87825000D01*
X79431000Y-87827000D01*
X79435000Y-87829000D01*
X79439000Y-87831000D01*
X79443000Y-87833000D01*
X79446000Y-87836000D01*
X79450000Y-87838000D01*
X79453000Y-87841000D01*
X79456000Y-87844000D01*
X79459000Y-87847000D01*
X79462000Y-87850000D01*
X79464000Y-87854000D01*
X79467000Y-87857000D01*
X79469000Y-87861000D01*
X79471000Y-87865000D01*
X79473000Y-87869000D01*
X79475000Y-87873000D01*
X79476000Y-87877000D01*
X79477000Y-87881000D01*
X79478000Y-87885000D01*
X79479000Y-87889000D01*
X79480000Y-87893000D01*
X79480000Y-87898000D01*
X79480000Y-87902000D01*
X79480000Y-88098000D01*
X79480000Y-88102000D01*
X79480000Y-88107000D01*
X79479000Y-88111000D01*
X79478000Y-88115000D01*
X79477000Y-88119000D01*
X79476000Y-88123000D01*
X79475000Y-88127000D01*
X79473000Y-88131000D01*
X79471000Y-88135000D01*
X79469000Y-88139000D01*
X79467000Y-88143000D01*
X79464000Y-88146000D01*
X79462000Y-88150000D01*
X79459000Y-88153000D01*
X79456000Y-88156000D01*
X79453000Y-88159000D01*
X79450000Y-88162000D01*
X79446000Y-88164000D01*
X79443000Y-88167000D01*
X79439000Y-88169000D01*
X79435000Y-88171000D01*
X79431000Y-88173000D01*
X79427000Y-88175000D01*
X79423000Y-88176000D01*
X79419000Y-88177000D01*
X79415000Y-88178000D01*
X79411000Y-88179000D01*
X79407000Y-88180000D01*
X79402000Y-88180000D01*
X79398000Y-88180000D01*
G36*
X79411000Y-87821000D02*
G01*
X79415000Y-87822000D01*
X79419000Y-87823000D01*
X79423000Y-87824000D01*
X79427000Y-87825000D01*
X79431000Y-87827000D01*
X79435000Y-87829000D01*
X79439000Y-87831000D01*
X79443000Y-87833000D01*
X79446000Y-87836000D01*
X79450000Y-87838000D01*
X79453000Y-87841000D01*
X79456000Y-87844000D01*
X79459000Y-87847000D01*
X79462000Y-87850000D01*
X79464000Y-87854000D01*
X79467000Y-87857000D01*
X79469000Y-87861000D01*
X79471000Y-87865000D01*
X79473000Y-87869000D01*
X79475000Y-87873000D01*
X79476000Y-87877000D01*
X79477000Y-87881000D01*
X79478000Y-87885000D01*
X79479000Y-87889000D01*
X79480000Y-87893000D01*
X79480000Y-87898000D01*
X79480000Y-87902000D01*
X79480000Y-88098000D01*
X79480000Y-88102000D01*
X79480000Y-88107000D01*
X79479000Y-88111000D01*
X79478000Y-88115000D01*
X79477000Y-88119000D01*
X79476000Y-88123000D01*
X79475000Y-88127000D01*
X79473000Y-88131000D01*
X79471000Y-88135000D01*
X79469000Y-88139000D01*
X79467000Y-88143000D01*
X79464000Y-88146000D01*
X79462000Y-88150000D01*
X79459000Y-88153000D01*
X79456000Y-88156000D01*
X79453000Y-88159000D01*
X79450000Y-88162000D01*
X79446000Y-88164000D01*
X79443000Y-88167000D01*
X79439000Y-88169000D01*
X79435000Y-88171000D01*
X79431000Y-88173000D01*
X79427000Y-88175000D01*
X79423000Y-88176000D01*
X79419000Y-88177000D01*
X79415000Y-88178000D01*
X79411000Y-88179000D01*
X79407000Y-88180000D01*
X79402000Y-88180000D01*
X79398000Y-88180000D01*
X78602000Y-88180000D01*
X78598000Y-88180000D01*
X78593000Y-88180000D01*
X78589000Y-88179000D01*
X78585000Y-88178000D01*
X78581000Y-88177000D01*
X78577000Y-88176000D01*
X78573000Y-88175000D01*
X78569000Y-88173000D01*
X78565000Y-88171000D01*
X78561000Y-88169000D01*
X78557000Y-88167000D01*
X78554000Y-88164000D01*
X78550000Y-88162000D01*
X78547000Y-88159000D01*
X78544000Y-88156000D01*
X78541000Y-88153000D01*
X78538000Y-88150000D01*
X78536000Y-88146000D01*
X78533000Y-88143000D01*
X78531000Y-88139000D01*
X78529000Y-88135000D01*
X78527000Y-88131000D01*
X78525000Y-88127000D01*
X78524000Y-88123000D01*
X78523000Y-88119000D01*
X78522000Y-88115000D01*
X78521000Y-88111000D01*
X78520000Y-88107000D01*
X78520000Y-88102000D01*
X78520000Y-88098000D01*
X78520000Y-87902000D01*
X78520000Y-87898000D01*
X78520000Y-87893000D01*
X78521000Y-87889000D01*
X78522000Y-87885000D01*
X78523000Y-87881000D01*
X78524000Y-87877000D01*
X78525000Y-87873000D01*
X78527000Y-87869000D01*
X78529000Y-87865000D01*
X78531000Y-87861000D01*
X78533000Y-87857000D01*
X78536000Y-87854000D01*
X78538000Y-87850000D01*
X78541000Y-87847000D01*
X78544000Y-87844000D01*
X78547000Y-87841000D01*
X78550000Y-87838000D01*
X78554000Y-87836000D01*
X78557000Y-87833000D01*
X78561000Y-87831000D01*
X78565000Y-87829000D01*
X78569000Y-87827000D01*
X78573000Y-87825000D01*
X78577000Y-87824000D01*
X78581000Y-87823000D01*
X78585000Y-87822000D01*
X78589000Y-87821000D01*
X78593000Y-87820000D01*
X78598000Y-87820000D01*
X78602000Y-87820000D01*
X79398000Y-87820000D01*
X79402000Y-87820000D01*
X79407000Y-87820000D01*
X79411000Y-87821000D01*
G37*
X79398000Y-88680000D02*
X78602000Y-88680000D01*
X78598000Y-88680000D01*
X78593000Y-88680000D01*
X78589000Y-88679000D01*
X78585000Y-88678000D01*
X78581000Y-88677000D01*
X78577000Y-88676000D01*
X78573000Y-88675000D01*
X78569000Y-88673000D01*
X78565000Y-88671000D01*
X78561000Y-88669000D01*
X78557000Y-88667000D01*
X78554000Y-88664000D01*
X78550000Y-88662000D01*
X78547000Y-88659000D01*
X78544000Y-88656000D01*
X78541000Y-88653000D01*
X78538000Y-88650000D01*
X78536000Y-88646000D01*
X78533000Y-88643000D01*
X78531000Y-88639000D01*
X78529000Y-88635000D01*
X78527000Y-88631000D01*
X78525000Y-88627000D01*
X78524000Y-88623000D01*
X78523000Y-88619000D01*
X78522000Y-88615000D01*
X78521000Y-88611000D01*
X78520000Y-88607000D01*
X78520000Y-88602000D01*
X78520000Y-88598000D01*
X78520000Y-88402000D01*
X78520000Y-88398000D01*
X78520000Y-88393000D01*
X78521000Y-88389000D01*
X78522000Y-88385000D01*
X78523000Y-88381000D01*
X78524000Y-88377000D01*
X78525000Y-88373000D01*
X78527000Y-88369000D01*
X78529000Y-88365000D01*
X78531000Y-88361000D01*
X78533000Y-88357000D01*
X78536000Y-88354000D01*
X78538000Y-88350000D01*
X78541000Y-88347000D01*
X78544000Y-88344000D01*
X78547000Y-88341000D01*
X78550000Y-88338000D01*
X78554000Y-88336000D01*
X78557000Y-88333000D01*
X78561000Y-88331000D01*
X78565000Y-88329000D01*
X78569000Y-88327000D01*
X78573000Y-88325000D01*
X78577000Y-88324000D01*
X78581000Y-88323000D01*
X78585000Y-88322000D01*
X78589000Y-88321000D01*
X78593000Y-88320000D01*
X78598000Y-88320000D01*
X78602000Y-88320000D01*
X79398000Y-88320000D01*
X79402000Y-88320000D01*
X79407000Y-88320000D01*
X79411000Y-88321000D01*
X79415000Y-88322000D01*
X79419000Y-88323000D01*
X79423000Y-88324000D01*
X79427000Y-88325000D01*
X79431000Y-88327000D01*
X79435000Y-88329000D01*
X79439000Y-88331000D01*
X79443000Y-88333000D01*
X79446000Y-88336000D01*
X79450000Y-88338000D01*
X79453000Y-88341000D01*
X79456000Y-88344000D01*
X79459000Y-88347000D01*
X79462000Y-88350000D01*
X79464000Y-88354000D01*
X79467000Y-88357000D01*
X79469000Y-88361000D01*
X79471000Y-88365000D01*
X79473000Y-88369000D01*
X79475000Y-88373000D01*
X79476000Y-88377000D01*
X79477000Y-88381000D01*
X79478000Y-88385000D01*
X79479000Y-88389000D01*
X79480000Y-88393000D01*
X79480000Y-88398000D01*
X79480000Y-88402000D01*
X79480000Y-88598000D01*
X79480000Y-88602000D01*
X79480000Y-88607000D01*
X79479000Y-88611000D01*
X79478000Y-88615000D01*
X79477000Y-88619000D01*
X79476000Y-88623000D01*
X79475000Y-88627000D01*
X79473000Y-88631000D01*
X79471000Y-88635000D01*
X79469000Y-88639000D01*
X79467000Y-88643000D01*
X79464000Y-88646000D01*
X79462000Y-88650000D01*
X79459000Y-88653000D01*
X79456000Y-88656000D01*
X79453000Y-88659000D01*
X79450000Y-88662000D01*
X79446000Y-88664000D01*
X79443000Y-88667000D01*
X79439000Y-88669000D01*
X79435000Y-88671000D01*
X79431000Y-88673000D01*
X79427000Y-88675000D01*
X79423000Y-88676000D01*
X79419000Y-88677000D01*
X79415000Y-88678000D01*
X79411000Y-88679000D01*
X79407000Y-88680000D01*
X79402000Y-88680000D01*
X79398000Y-88680000D01*
G36*
X79411000Y-88321000D02*
G01*
X79415000Y-88322000D01*
X79419000Y-88323000D01*
X79423000Y-88324000D01*
X79427000Y-88325000D01*
X79431000Y-88327000D01*
X79435000Y-88329000D01*
X79439000Y-88331000D01*
X79443000Y-88333000D01*
X79446000Y-88336000D01*
X79450000Y-88338000D01*
X79453000Y-88341000D01*
X79456000Y-88344000D01*
X79459000Y-88347000D01*
X79462000Y-88350000D01*
X79464000Y-88354000D01*
X79467000Y-88357000D01*
X79469000Y-88361000D01*
X79471000Y-88365000D01*
X79473000Y-88369000D01*
X79475000Y-88373000D01*
X79476000Y-88377000D01*
X79477000Y-88381000D01*
X79478000Y-88385000D01*
X79479000Y-88389000D01*
X79480000Y-88393000D01*
X79480000Y-88398000D01*
X79480000Y-88402000D01*
X79480000Y-88598000D01*
X79480000Y-88602000D01*
X79480000Y-88607000D01*
X79479000Y-88611000D01*
X79478000Y-88615000D01*
X79477000Y-88619000D01*
X79476000Y-88623000D01*
X79475000Y-88627000D01*
X79473000Y-88631000D01*
X79471000Y-88635000D01*
X79469000Y-88639000D01*
X79467000Y-88643000D01*
X79464000Y-88646000D01*
X79462000Y-88650000D01*
X79459000Y-88653000D01*
X79456000Y-88656000D01*
X79453000Y-88659000D01*
X79450000Y-88662000D01*
X79446000Y-88664000D01*
X79443000Y-88667000D01*
X79439000Y-88669000D01*
X79435000Y-88671000D01*
X79431000Y-88673000D01*
X79427000Y-88675000D01*
X79423000Y-88676000D01*
X79419000Y-88677000D01*
X79415000Y-88678000D01*
X79411000Y-88679000D01*
X79407000Y-88680000D01*
X79402000Y-88680000D01*
X79398000Y-88680000D01*
X78602000Y-88680000D01*
X78598000Y-88680000D01*
X78593000Y-88680000D01*
X78589000Y-88679000D01*
X78585000Y-88678000D01*
X78581000Y-88677000D01*
X78577000Y-88676000D01*
X78573000Y-88675000D01*
X78569000Y-88673000D01*
X78565000Y-88671000D01*
X78561000Y-88669000D01*
X78557000Y-88667000D01*
X78554000Y-88664000D01*
X78550000Y-88662000D01*
X78547000Y-88659000D01*
X78544000Y-88656000D01*
X78541000Y-88653000D01*
X78538000Y-88650000D01*
X78536000Y-88646000D01*
X78533000Y-88643000D01*
X78531000Y-88639000D01*
X78529000Y-88635000D01*
X78527000Y-88631000D01*
X78525000Y-88627000D01*
X78524000Y-88623000D01*
X78523000Y-88619000D01*
X78522000Y-88615000D01*
X78521000Y-88611000D01*
X78520000Y-88607000D01*
X78520000Y-88602000D01*
X78520000Y-88598000D01*
X78520000Y-88402000D01*
X78520000Y-88398000D01*
X78520000Y-88393000D01*
X78521000Y-88389000D01*
X78522000Y-88385000D01*
X78523000Y-88381000D01*
X78524000Y-88377000D01*
X78525000Y-88373000D01*
X78527000Y-88369000D01*
X78529000Y-88365000D01*
X78531000Y-88361000D01*
X78533000Y-88357000D01*
X78536000Y-88354000D01*
X78538000Y-88350000D01*
X78541000Y-88347000D01*
X78544000Y-88344000D01*
X78547000Y-88341000D01*
X78550000Y-88338000D01*
X78554000Y-88336000D01*
X78557000Y-88333000D01*
X78561000Y-88331000D01*
X78565000Y-88329000D01*
X78569000Y-88327000D01*
X78573000Y-88325000D01*
X78577000Y-88324000D01*
X78581000Y-88323000D01*
X78585000Y-88322000D01*
X78589000Y-88321000D01*
X78593000Y-88320000D01*
X78598000Y-88320000D01*
X78602000Y-88320000D01*
X79398000Y-88320000D01*
X79402000Y-88320000D01*
X79407000Y-88320000D01*
X79411000Y-88321000D01*
G37*
X79398000Y-89180000D02*
X78602000Y-89180000D01*
X78598000Y-89180000D01*
X78593000Y-89180000D01*
X78589000Y-89179000D01*
X78585000Y-89178000D01*
X78581000Y-89177000D01*
X78577000Y-89176000D01*
X78573000Y-89175000D01*
X78569000Y-89173000D01*
X78565000Y-89171000D01*
X78561000Y-89169000D01*
X78557000Y-89167000D01*
X78554000Y-89164000D01*
X78550000Y-89162000D01*
X78547000Y-89159000D01*
X78544000Y-89156000D01*
X78541000Y-89153000D01*
X78538000Y-89150000D01*
X78536000Y-89146000D01*
X78533000Y-89143000D01*
X78531000Y-89139000D01*
X78529000Y-89135000D01*
X78527000Y-89131000D01*
X78525000Y-89127000D01*
X78524000Y-89123000D01*
X78523000Y-89119000D01*
X78522000Y-89115000D01*
X78521000Y-89111000D01*
X78520000Y-89107000D01*
X78520000Y-89102000D01*
X78520000Y-89098000D01*
X78520000Y-88902000D01*
X78520000Y-88898000D01*
X78520000Y-88893000D01*
X78521000Y-88889000D01*
X78522000Y-88885000D01*
X78523000Y-88881000D01*
X78524000Y-88877000D01*
X78525000Y-88873000D01*
X78527000Y-88869000D01*
X78529000Y-88865000D01*
X78531000Y-88861000D01*
X78533000Y-88857000D01*
X78536000Y-88854000D01*
X78538000Y-88850000D01*
X78541000Y-88847000D01*
X78544000Y-88844000D01*
X78547000Y-88841000D01*
X78550000Y-88838000D01*
X78554000Y-88836000D01*
X78557000Y-88833000D01*
X78561000Y-88831000D01*
X78565000Y-88829000D01*
X78569000Y-88827000D01*
X78573000Y-88825000D01*
X78577000Y-88824000D01*
X78581000Y-88823000D01*
X78585000Y-88822000D01*
X78589000Y-88821000D01*
X78593000Y-88820000D01*
X78598000Y-88820000D01*
X78602000Y-88820000D01*
X79398000Y-88820000D01*
X79402000Y-88820000D01*
X79407000Y-88820000D01*
X79411000Y-88821000D01*
X79415000Y-88822000D01*
X79419000Y-88823000D01*
X79423000Y-88824000D01*
X79427000Y-88825000D01*
X79431000Y-88827000D01*
X79435000Y-88829000D01*
X79439000Y-88831000D01*
X79443000Y-88833000D01*
X79446000Y-88836000D01*
X79450000Y-88838000D01*
X79453000Y-88841000D01*
X79456000Y-88844000D01*
X79459000Y-88847000D01*
X79462000Y-88850000D01*
X79464000Y-88854000D01*
X79467000Y-88857000D01*
X79469000Y-88861000D01*
X79471000Y-88865000D01*
X79473000Y-88869000D01*
X79475000Y-88873000D01*
X79476000Y-88877000D01*
X79477000Y-88881000D01*
X79478000Y-88885000D01*
X79479000Y-88889000D01*
X79480000Y-88893000D01*
X79480000Y-88898000D01*
X79480000Y-88902000D01*
X79480000Y-89098000D01*
X79480000Y-89102000D01*
X79480000Y-89107000D01*
X79479000Y-89111000D01*
X79478000Y-89115000D01*
X79477000Y-89119000D01*
X79476000Y-89123000D01*
X79475000Y-89127000D01*
X79473000Y-89131000D01*
X79471000Y-89135000D01*
X79469000Y-89139000D01*
X79467000Y-89143000D01*
X79464000Y-89146000D01*
X79462000Y-89150000D01*
X79459000Y-89153000D01*
X79456000Y-89156000D01*
X79453000Y-89159000D01*
X79450000Y-89162000D01*
X79446000Y-89164000D01*
X79443000Y-89167000D01*
X79439000Y-89169000D01*
X79435000Y-89171000D01*
X79431000Y-89173000D01*
X79427000Y-89175000D01*
X79423000Y-89176000D01*
X79419000Y-89177000D01*
X79415000Y-89178000D01*
X79411000Y-89179000D01*
X79407000Y-89180000D01*
X79402000Y-89180000D01*
X79398000Y-89180000D01*
G36*
X79411000Y-88821000D02*
G01*
X79415000Y-88822000D01*
X79419000Y-88823000D01*
X79423000Y-88824000D01*
X79427000Y-88825000D01*
X79431000Y-88827000D01*
X79435000Y-88829000D01*
X79439000Y-88831000D01*
X79443000Y-88833000D01*
X79446000Y-88836000D01*
X79450000Y-88838000D01*
X79453000Y-88841000D01*
X79456000Y-88844000D01*
X79459000Y-88847000D01*
X79462000Y-88850000D01*
X79464000Y-88854000D01*
X79467000Y-88857000D01*
X79469000Y-88861000D01*
X79471000Y-88865000D01*
X79473000Y-88869000D01*
X79475000Y-88873000D01*
X79476000Y-88877000D01*
X79477000Y-88881000D01*
X79478000Y-88885000D01*
X79479000Y-88889000D01*
X79480000Y-88893000D01*
X79480000Y-88898000D01*
X79480000Y-88902000D01*
X79480000Y-89098000D01*
X79480000Y-89102000D01*
X79480000Y-89107000D01*
X79479000Y-89111000D01*
X79478000Y-89115000D01*
X79477000Y-89119000D01*
X79476000Y-89123000D01*
X79475000Y-89127000D01*
X79473000Y-89131000D01*
X79471000Y-89135000D01*
X79469000Y-89139000D01*
X79467000Y-89143000D01*
X79464000Y-89146000D01*
X79462000Y-89150000D01*
X79459000Y-89153000D01*
X79456000Y-89156000D01*
X79453000Y-89159000D01*
X79450000Y-89162000D01*
X79446000Y-89164000D01*
X79443000Y-89167000D01*
X79439000Y-89169000D01*
X79435000Y-89171000D01*
X79431000Y-89173000D01*
X79427000Y-89175000D01*
X79423000Y-89176000D01*
X79419000Y-89177000D01*
X79415000Y-89178000D01*
X79411000Y-89179000D01*
X79407000Y-89180000D01*
X79402000Y-89180000D01*
X79398000Y-89180000D01*
X78602000Y-89180000D01*
X78598000Y-89180000D01*
X78593000Y-89180000D01*
X78589000Y-89179000D01*
X78585000Y-89178000D01*
X78581000Y-89177000D01*
X78577000Y-89176000D01*
X78573000Y-89175000D01*
X78569000Y-89173000D01*
X78565000Y-89171000D01*
X78561000Y-89169000D01*
X78557000Y-89167000D01*
X78554000Y-89164000D01*
X78550000Y-89162000D01*
X78547000Y-89159000D01*
X78544000Y-89156000D01*
X78541000Y-89153000D01*
X78538000Y-89150000D01*
X78536000Y-89146000D01*
X78533000Y-89143000D01*
X78531000Y-89139000D01*
X78529000Y-89135000D01*
X78527000Y-89131000D01*
X78525000Y-89127000D01*
X78524000Y-89123000D01*
X78523000Y-89119000D01*
X78522000Y-89115000D01*
X78521000Y-89111000D01*
X78520000Y-89107000D01*
X78520000Y-89102000D01*
X78520000Y-89098000D01*
X78520000Y-88902000D01*
X78520000Y-88898000D01*
X78520000Y-88893000D01*
X78521000Y-88889000D01*
X78522000Y-88885000D01*
X78523000Y-88881000D01*
X78524000Y-88877000D01*
X78525000Y-88873000D01*
X78527000Y-88869000D01*
X78529000Y-88865000D01*
X78531000Y-88861000D01*
X78533000Y-88857000D01*
X78536000Y-88854000D01*
X78538000Y-88850000D01*
X78541000Y-88847000D01*
X78544000Y-88844000D01*
X78547000Y-88841000D01*
X78550000Y-88838000D01*
X78554000Y-88836000D01*
X78557000Y-88833000D01*
X78561000Y-88831000D01*
X78565000Y-88829000D01*
X78569000Y-88827000D01*
X78573000Y-88825000D01*
X78577000Y-88824000D01*
X78581000Y-88823000D01*
X78585000Y-88822000D01*
X78589000Y-88821000D01*
X78593000Y-88820000D01*
X78598000Y-88820000D01*
X78602000Y-88820000D01*
X79398000Y-88820000D01*
X79402000Y-88820000D01*
X79407000Y-88820000D01*
X79411000Y-88821000D01*
G37*
X79398000Y-89680000D02*
X78602000Y-89680000D01*
X78598000Y-89680000D01*
X78593000Y-89680000D01*
X78589000Y-89679000D01*
X78585000Y-89678000D01*
X78581000Y-89677000D01*
X78577000Y-89676000D01*
X78573000Y-89675000D01*
X78569000Y-89673000D01*
X78565000Y-89671000D01*
X78561000Y-89669000D01*
X78557000Y-89667000D01*
X78554000Y-89664000D01*
X78550000Y-89662000D01*
X78547000Y-89659000D01*
X78544000Y-89656000D01*
X78541000Y-89653000D01*
X78538000Y-89650000D01*
X78536000Y-89646000D01*
X78533000Y-89643000D01*
X78531000Y-89639000D01*
X78529000Y-89635000D01*
X78527000Y-89631000D01*
X78525000Y-89627000D01*
X78524000Y-89623000D01*
X78523000Y-89619000D01*
X78522000Y-89615000D01*
X78521000Y-89611000D01*
X78520000Y-89607000D01*
X78520000Y-89602000D01*
X78520000Y-89598000D01*
X78520000Y-89402000D01*
X78520000Y-89398000D01*
X78520000Y-89393000D01*
X78521000Y-89389000D01*
X78522000Y-89385000D01*
X78523000Y-89381000D01*
X78524000Y-89377000D01*
X78525000Y-89373000D01*
X78527000Y-89369000D01*
X78529000Y-89365000D01*
X78531000Y-89361000D01*
X78533000Y-89357000D01*
X78536000Y-89354000D01*
X78538000Y-89350000D01*
X78541000Y-89347000D01*
X78544000Y-89344000D01*
X78547000Y-89341000D01*
X78550000Y-89338000D01*
X78554000Y-89336000D01*
X78557000Y-89333000D01*
X78561000Y-89331000D01*
X78565000Y-89329000D01*
X78569000Y-89327000D01*
X78573000Y-89325000D01*
X78577000Y-89324000D01*
X78581000Y-89323000D01*
X78585000Y-89322000D01*
X78589000Y-89321000D01*
X78593000Y-89320000D01*
X78598000Y-89320000D01*
X78602000Y-89320000D01*
X79398000Y-89320000D01*
X79402000Y-89320000D01*
X79407000Y-89320000D01*
X79411000Y-89321000D01*
X79415000Y-89322000D01*
X79419000Y-89323000D01*
X79423000Y-89324000D01*
X79427000Y-89325000D01*
X79431000Y-89327000D01*
X79435000Y-89329000D01*
X79439000Y-89331000D01*
X79443000Y-89333000D01*
X79446000Y-89336000D01*
X79450000Y-89338000D01*
X79453000Y-89341000D01*
X79456000Y-89344000D01*
X79459000Y-89347000D01*
X79462000Y-89350000D01*
X79464000Y-89354000D01*
X79467000Y-89357000D01*
X79469000Y-89361000D01*
X79471000Y-89365000D01*
X79473000Y-89369000D01*
X79475000Y-89373000D01*
X79476000Y-89377000D01*
X79477000Y-89381000D01*
X79478000Y-89385000D01*
X79479000Y-89389000D01*
X79480000Y-89393000D01*
X79480000Y-89398000D01*
X79480000Y-89402000D01*
X79480000Y-89598000D01*
X79480000Y-89602000D01*
X79480000Y-89607000D01*
X79479000Y-89611000D01*
X79478000Y-89615000D01*
X79477000Y-89619000D01*
X79476000Y-89623000D01*
X79475000Y-89627000D01*
X79473000Y-89631000D01*
X79471000Y-89635000D01*
X79469000Y-89639000D01*
X79467000Y-89643000D01*
X79464000Y-89646000D01*
X79462000Y-89650000D01*
X79459000Y-89653000D01*
X79456000Y-89656000D01*
X79453000Y-89659000D01*
X79450000Y-89662000D01*
X79446000Y-89664000D01*
X79443000Y-89667000D01*
X79439000Y-89669000D01*
X79435000Y-89671000D01*
X79431000Y-89673000D01*
X79427000Y-89675000D01*
X79423000Y-89676000D01*
X79419000Y-89677000D01*
X79415000Y-89678000D01*
X79411000Y-89679000D01*
X79407000Y-89680000D01*
X79402000Y-89680000D01*
X79398000Y-89680000D01*
G36*
X79411000Y-89321000D02*
G01*
X79415000Y-89322000D01*
X79419000Y-89323000D01*
X79423000Y-89324000D01*
X79427000Y-89325000D01*
X79431000Y-89327000D01*
X79435000Y-89329000D01*
X79439000Y-89331000D01*
X79443000Y-89333000D01*
X79446000Y-89336000D01*
X79450000Y-89338000D01*
X79453000Y-89341000D01*
X79456000Y-89344000D01*
X79459000Y-89347000D01*
X79462000Y-89350000D01*
X79464000Y-89354000D01*
X79467000Y-89357000D01*
X79469000Y-89361000D01*
X79471000Y-89365000D01*
X79473000Y-89369000D01*
X79475000Y-89373000D01*
X79476000Y-89377000D01*
X79477000Y-89381000D01*
X79478000Y-89385000D01*
X79479000Y-89389000D01*
X79480000Y-89393000D01*
X79480000Y-89398000D01*
X79480000Y-89402000D01*
X79480000Y-89598000D01*
X79480000Y-89602000D01*
X79480000Y-89607000D01*
X79479000Y-89611000D01*
X79478000Y-89615000D01*
X79477000Y-89619000D01*
X79476000Y-89623000D01*
X79475000Y-89627000D01*
X79473000Y-89631000D01*
X79471000Y-89635000D01*
X79469000Y-89639000D01*
X79467000Y-89643000D01*
X79464000Y-89646000D01*
X79462000Y-89650000D01*
X79459000Y-89653000D01*
X79456000Y-89656000D01*
X79453000Y-89659000D01*
X79450000Y-89662000D01*
X79446000Y-89664000D01*
X79443000Y-89667000D01*
X79439000Y-89669000D01*
X79435000Y-89671000D01*
X79431000Y-89673000D01*
X79427000Y-89675000D01*
X79423000Y-89676000D01*
X79419000Y-89677000D01*
X79415000Y-89678000D01*
X79411000Y-89679000D01*
X79407000Y-89680000D01*
X79402000Y-89680000D01*
X79398000Y-89680000D01*
X78602000Y-89680000D01*
X78598000Y-89680000D01*
X78593000Y-89680000D01*
X78589000Y-89679000D01*
X78585000Y-89678000D01*
X78581000Y-89677000D01*
X78577000Y-89676000D01*
X78573000Y-89675000D01*
X78569000Y-89673000D01*
X78565000Y-89671000D01*
X78561000Y-89669000D01*
X78557000Y-89667000D01*
X78554000Y-89664000D01*
X78550000Y-89662000D01*
X78547000Y-89659000D01*
X78544000Y-89656000D01*
X78541000Y-89653000D01*
X78538000Y-89650000D01*
X78536000Y-89646000D01*
X78533000Y-89643000D01*
X78531000Y-89639000D01*
X78529000Y-89635000D01*
X78527000Y-89631000D01*
X78525000Y-89627000D01*
X78524000Y-89623000D01*
X78523000Y-89619000D01*
X78522000Y-89615000D01*
X78521000Y-89611000D01*
X78520000Y-89607000D01*
X78520000Y-89602000D01*
X78520000Y-89598000D01*
X78520000Y-89402000D01*
X78520000Y-89398000D01*
X78520000Y-89393000D01*
X78521000Y-89389000D01*
X78522000Y-89385000D01*
X78523000Y-89381000D01*
X78524000Y-89377000D01*
X78525000Y-89373000D01*
X78527000Y-89369000D01*
X78529000Y-89365000D01*
X78531000Y-89361000D01*
X78533000Y-89357000D01*
X78536000Y-89354000D01*
X78538000Y-89350000D01*
X78541000Y-89347000D01*
X78544000Y-89344000D01*
X78547000Y-89341000D01*
X78550000Y-89338000D01*
X78554000Y-89336000D01*
X78557000Y-89333000D01*
X78561000Y-89331000D01*
X78565000Y-89329000D01*
X78569000Y-89327000D01*
X78573000Y-89325000D01*
X78577000Y-89324000D01*
X78581000Y-89323000D01*
X78585000Y-89322000D01*
X78589000Y-89321000D01*
X78593000Y-89320000D01*
X78598000Y-89320000D01*
X78602000Y-89320000D01*
X79398000Y-89320000D01*
X79402000Y-89320000D01*
X79407000Y-89320000D01*
X79411000Y-89321000D01*
G37*
X79398000Y-90180000D02*
X78602000Y-90180000D01*
X78598000Y-90180000D01*
X78593000Y-90180000D01*
X78589000Y-90179000D01*
X78585000Y-90178000D01*
X78581000Y-90177000D01*
X78577000Y-90176000D01*
X78573000Y-90175000D01*
X78569000Y-90173000D01*
X78565000Y-90171000D01*
X78561000Y-90169000D01*
X78557000Y-90167000D01*
X78554000Y-90164000D01*
X78550000Y-90162000D01*
X78547000Y-90159000D01*
X78544000Y-90156000D01*
X78541000Y-90153000D01*
X78538000Y-90150000D01*
X78536000Y-90146000D01*
X78533000Y-90143000D01*
X78531000Y-90139000D01*
X78529000Y-90135000D01*
X78527000Y-90131000D01*
X78525000Y-90127000D01*
X78524000Y-90123000D01*
X78523000Y-90119000D01*
X78522000Y-90115000D01*
X78521000Y-90111000D01*
X78520000Y-90107000D01*
X78520000Y-90102000D01*
X78520000Y-90098000D01*
X78520000Y-89902000D01*
X78520000Y-89898000D01*
X78520000Y-89893000D01*
X78521000Y-89889000D01*
X78522000Y-89885000D01*
X78523000Y-89881000D01*
X78524000Y-89877000D01*
X78525000Y-89873000D01*
X78527000Y-89869000D01*
X78529000Y-89865000D01*
X78531000Y-89861000D01*
X78533000Y-89857000D01*
X78536000Y-89854000D01*
X78538000Y-89850000D01*
X78541000Y-89847000D01*
X78544000Y-89844000D01*
X78547000Y-89841000D01*
X78550000Y-89838000D01*
X78554000Y-89836000D01*
X78557000Y-89833000D01*
X78561000Y-89831000D01*
X78565000Y-89829000D01*
X78569000Y-89827000D01*
X78573000Y-89825000D01*
X78577000Y-89824000D01*
X78581000Y-89823000D01*
X78585000Y-89822000D01*
X78589000Y-89821000D01*
X78593000Y-89820000D01*
X78598000Y-89820000D01*
X78602000Y-89820000D01*
X79398000Y-89820000D01*
X79402000Y-89820000D01*
X79407000Y-89820000D01*
X79411000Y-89821000D01*
X79415000Y-89822000D01*
X79419000Y-89823000D01*
X79423000Y-89824000D01*
X79427000Y-89825000D01*
X79431000Y-89827000D01*
X79435000Y-89829000D01*
X79439000Y-89831000D01*
X79443000Y-89833000D01*
X79446000Y-89836000D01*
X79450000Y-89838000D01*
X79453000Y-89841000D01*
X79456000Y-89844000D01*
X79459000Y-89847000D01*
X79462000Y-89850000D01*
X79464000Y-89854000D01*
X79467000Y-89857000D01*
X79469000Y-89861000D01*
X79471000Y-89865000D01*
X79473000Y-89869000D01*
X79475000Y-89873000D01*
X79476000Y-89877000D01*
X79477000Y-89881000D01*
X79478000Y-89885000D01*
X79479000Y-89889000D01*
X79480000Y-89893000D01*
X79480000Y-89898000D01*
X79480000Y-89902000D01*
X79480000Y-90098000D01*
X79480000Y-90102000D01*
X79480000Y-90107000D01*
X79479000Y-90111000D01*
X79478000Y-90115000D01*
X79477000Y-90119000D01*
X79476000Y-90123000D01*
X79475000Y-90127000D01*
X79473000Y-90131000D01*
X79471000Y-90135000D01*
X79469000Y-90139000D01*
X79467000Y-90143000D01*
X79464000Y-90146000D01*
X79462000Y-90150000D01*
X79459000Y-90153000D01*
X79456000Y-90156000D01*
X79453000Y-90159000D01*
X79450000Y-90162000D01*
X79446000Y-90164000D01*
X79443000Y-90167000D01*
X79439000Y-90169000D01*
X79435000Y-90171000D01*
X79431000Y-90173000D01*
X79427000Y-90175000D01*
X79423000Y-90176000D01*
X79419000Y-90177000D01*
X79415000Y-90178000D01*
X79411000Y-90179000D01*
X79407000Y-90180000D01*
X79402000Y-90180000D01*
X79398000Y-90180000D01*
G36*
X79411000Y-89821000D02*
G01*
X79415000Y-89822000D01*
X79419000Y-89823000D01*
X79423000Y-89824000D01*
X79427000Y-89825000D01*
X79431000Y-89827000D01*
X79435000Y-89829000D01*
X79439000Y-89831000D01*
X79443000Y-89833000D01*
X79446000Y-89836000D01*
X79450000Y-89838000D01*
X79453000Y-89841000D01*
X79456000Y-89844000D01*
X79459000Y-89847000D01*
X79462000Y-89850000D01*
X79464000Y-89854000D01*
X79467000Y-89857000D01*
X79469000Y-89861000D01*
X79471000Y-89865000D01*
X79473000Y-89869000D01*
X79475000Y-89873000D01*
X79476000Y-89877000D01*
X79477000Y-89881000D01*
X79478000Y-89885000D01*
X79479000Y-89889000D01*
X79480000Y-89893000D01*
X79480000Y-89898000D01*
X79480000Y-89902000D01*
X79480000Y-90098000D01*
X79480000Y-90102000D01*
X79480000Y-90107000D01*
X79479000Y-90111000D01*
X79478000Y-90115000D01*
X79477000Y-90119000D01*
X79476000Y-90123000D01*
X79475000Y-90127000D01*
X79473000Y-90131000D01*
X79471000Y-90135000D01*
X79469000Y-90139000D01*
X79467000Y-90143000D01*
X79464000Y-90146000D01*
X79462000Y-90150000D01*
X79459000Y-90153000D01*
X79456000Y-90156000D01*
X79453000Y-90159000D01*
X79450000Y-90162000D01*
X79446000Y-90164000D01*
X79443000Y-90167000D01*
X79439000Y-90169000D01*
X79435000Y-90171000D01*
X79431000Y-90173000D01*
X79427000Y-90175000D01*
X79423000Y-90176000D01*
X79419000Y-90177000D01*
X79415000Y-90178000D01*
X79411000Y-90179000D01*
X79407000Y-90180000D01*
X79402000Y-90180000D01*
X79398000Y-90180000D01*
X78602000Y-90180000D01*
X78598000Y-90180000D01*
X78593000Y-90180000D01*
X78589000Y-90179000D01*
X78585000Y-90178000D01*
X78581000Y-90177000D01*
X78577000Y-90176000D01*
X78573000Y-90175000D01*
X78569000Y-90173000D01*
X78565000Y-90171000D01*
X78561000Y-90169000D01*
X78557000Y-90167000D01*
X78554000Y-90164000D01*
X78550000Y-90162000D01*
X78547000Y-90159000D01*
X78544000Y-90156000D01*
X78541000Y-90153000D01*
X78538000Y-90150000D01*
X78536000Y-90146000D01*
X78533000Y-90143000D01*
X78531000Y-90139000D01*
X78529000Y-90135000D01*
X78527000Y-90131000D01*
X78525000Y-90127000D01*
X78524000Y-90123000D01*
X78523000Y-90119000D01*
X78522000Y-90115000D01*
X78521000Y-90111000D01*
X78520000Y-90107000D01*
X78520000Y-90102000D01*
X78520000Y-90098000D01*
X78520000Y-89902000D01*
X78520000Y-89898000D01*
X78520000Y-89893000D01*
X78521000Y-89889000D01*
X78522000Y-89885000D01*
X78523000Y-89881000D01*
X78524000Y-89877000D01*
X78525000Y-89873000D01*
X78527000Y-89869000D01*
X78529000Y-89865000D01*
X78531000Y-89861000D01*
X78533000Y-89857000D01*
X78536000Y-89854000D01*
X78538000Y-89850000D01*
X78541000Y-89847000D01*
X78544000Y-89844000D01*
X78547000Y-89841000D01*
X78550000Y-89838000D01*
X78554000Y-89836000D01*
X78557000Y-89833000D01*
X78561000Y-89831000D01*
X78565000Y-89829000D01*
X78569000Y-89827000D01*
X78573000Y-89825000D01*
X78577000Y-89824000D01*
X78581000Y-89823000D01*
X78585000Y-89822000D01*
X78589000Y-89821000D01*
X78593000Y-89820000D01*
X78598000Y-89820000D01*
X78602000Y-89820000D01*
X79398000Y-89820000D01*
X79402000Y-89820000D01*
X79407000Y-89820000D01*
X79411000Y-89821000D01*
G37*
X79398000Y-90680000D02*
X78602000Y-90680000D01*
X78598000Y-90680000D01*
X78593000Y-90680000D01*
X78589000Y-90679000D01*
X78585000Y-90678000D01*
X78581000Y-90677000D01*
X78577000Y-90676000D01*
X78573000Y-90675000D01*
X78569000Y-90673000D01*
X78565000Y-90671000D01*
X78561000Y-90669000D01*
X78557000Y-90667000D01*
X78554000Y-90664000D01*
X78550000Y-90662000D01*
X78547000Y-90659000D01*
X78544000Y-90656000D01*
X78541000Y-90653000D01*
X78538000Y-90650000D01*
X78536000Y-90646000D01*
X78533000Y-90643000D01*
X78531000Y-90639000D01*
X78529000Y-90635000D01*
X78527000Y-90631000D01*
X78525000Y-90627000D01*
X78524000Y-90623000D01*
X78523000Y-90619000D01*
X78522000Y-90615000D01*
X78521000Y-90611000D01*
X78520000Y-90607000D01*
X78520000Y-90602000D01*
X78520000Y-90598000D01*
X78520000Y-90402000D01*
X78520000Y-90398000D01*
X78520000Y-90393000D01*
X78521000Y-90389000D01*
X78522000Y-90385000D01*
X78523000Y-90381000D01*
X78524000Y-90377000D01*
X78525000Y-90373000D01*
X78527000Y-90369000D01*
X78529000Y-90365000D01*
X78531000Y-90361000D01*
X78533000Y-90357000D01*
X78536000Y-90354000D01*
X78538000Y-90350000D01*
X78541000Y-90347000D01*
X78544000Y-90344000D01*
X78547000Y-90341000D01*
X78550000Y-90338000D01*
X78554000Y-90336000D01*
X78557000Y-90333000D01*
X78561000Y-90331000D01*
X78565000Y-90329000D01*
X78569000Y-90327000D01*
X78573000Y-90325000D01*
X78577000Y-90324000D01*
X78581000Y-90323000D01*
X78585000Y-90322000D01*
X78589000Y-90321000D01*
X78593000Y-90320000D01*
X78598000Y-90320000D01*
X78602000Y-90320000D01*
X79398000Y-90320000D01*
X79402000Y-90320000D01*
X79407000Y-90320000D01*
X79411000Y-90321000D01*
X79415000Y-90322000D01*
X79419000Y-90323000D01*
X79423000Y-90324000D01*
X79427000Y-90325000D01*
X79431000Y-90327000D01*
X79435000Y-90329000D01*
X79439000Y-90331000D01*
X79443000Y-90333000D01*
X79446000Y-90336000D01*
X79450000Y-90338000D01*
X79453000Y-90341000D01*
X79456000Y-90344000D01*
X79459000Y-90347000D01*
X79462000Y-90350000D01*
X79464000Y-90354000D01*
X79467000Y-90357000D01*
X79469000Y-90361000D01*
X79471000Y-90365000D01*
X79473000Y-90369000D01*
X79475000Y-90373000D01*
X79476000Y-90377000D01*
X79477000Y-90381000D01*
X79478000Y-90385000D01*
X79479000Y-90389000D01*
X79480000Y-90393000D01*
X79480000Y-90398000D01*
X79480000Y-90402000D01*
X79480000Y-90598000D01*
X79480000Y-90602000D01*
X79480000Y-90607000D01*
X79479000Y-90611000D01*
X79478000Y-90615000D01*
X79477000Y-90619000D01*
X79476000Y-90623000D01*
X79475000Y-90627000D01*
X79473000Y-90631000D01*
X79471000Y-90635000D01*
X79469000Y-90639000D01*
X79467000Y-90643000D01*
X79464000Y-90646000D01*
X79462000Y-90650000D01*
X79459000Y-90653000D01*
X79456000Y-90656000D01*
X79453000Y-90659000D01*
X79450000Y-90662000D01*
X79446000Y-90664000D01*
X79443000Y-90667000D01*
X79439000Y-90669000D01*
X79435000Y-90671000D01*
X79431000Y-90673000D01*
X79427000Y-90675000D01*
X79423000Y-90676000D01*
X79419000Y-90677000D01*
X79415000Y-90678000D01*
X79411000Y-90679000D01*
X79407000Y-90680000D01*
X79402000Y-90680000D01*
X79398000Y-90680000D01*
G36*
X79411000Y-90321000D02*
G01*
X79415000Y-90322000D01*
X79419000Y-90323000D01*
X79423000Y-90324000D01*
X79427000Y-90325000D01*
X79431000Y-90327000D01*
X79435000Y-90329000D01*
X79439000Y-90331000D01*
X79443000Y-90333000D01*
X79446000Y-90336000D01*
X79450000Y-90338000D01*
X79453000Y-90341000D01*
X79456000Y-90344000D01*
X79459000Y-90347000D01*
X79462000Y-90350000D01*
X79464000Y-90354000D01*
X79467000Y-90357000D01*
X79469000Y-90361000D01*
X79471000Y-90365000D01*
X79473000Y-90369000D01*
X79475000Y-90373000D01*
X79476000Y-90377000D01*
X79477000Y-90381000D01*
X79478000Y-90385000D01*
X79479000Y-90389000D01*
X79480000Y-90393000D01*
X79480000Y-90398000D01*
X79480000Y-90402000D01*
X79480000Y-90598000D01*
X79480000Y-90602000D01*
X79480000Y-90607000D01*
X79479000Y-90611000D01*
X79478000Y-90615000D01*
X79477000Y-90619000D01*
X79476000Y-90623000D01*
X79475000Y-90627000D01*
X79473000Y-90631000D01*
X79471000Y-90635000D01*
X79469000Y-90639000D01*
X79467000Y-90643000D01*
X79464000Y-90646000D01*
X79462000Y-90650000D01*
X79459000Y-90653000D01*
X79456000Y-90656000D01*
X79453000Y-90659000D01*
X79450000Y-90662000D01*
X79446000Y-90664000D01*
X79443000Y-90667000D01*
X79439000Y-90669000D01*
X79435000Y-90671000D01*
X79431000Y-90673000D01*
X79427000Y-90675000D01*
X79423000Y-90676000D01*
X79419000Y-90677000D01*
X79415000Y-90678000D01*
X79411000Y-90679000D01*
X79407000Y-90680000D01*
X79402000Y-90680000D01*
X79398000Y-90680000D01*
X78602000Y-90680000D01*
X78598000Y-90680000D01*
X78593000Y-90680000D01*
X78589000Y-90679000D01*
X78585000Y-90678000D01*
X78581000Y-90677000D01*
X78577000Y-90676000D01*
X78573000Y-90675000D01*
X78569000Y-90673000D01*
X78565000Y-90671000D01*
X78561000Y-90669000D01*
X78557000Y-90667000D01*
X78554000Y-90664000D01*
X78550000Y-90662000D01*
X78547000Y-90659000D01*
X78544000Y-90656000D01*
X78541000Y-90653000D01*
X78538000Y-90650000D01*
X78536000Y-90646000D01*
X78533000Y-90643000D01*
X78531000Y-90639000D01*
X78529000Y-90635000D01*
X78527000Y-90631000D01*
X78525000Y-90627000D01*
X78524000Y-90623000D01*
X78523000Y-90619000D01*
X78522000Y-90615000D01*
X78521000Y-90611000D01*
X78520000Y-90607000D01*
X78520000Y-90602000D01*
X78520000Y-90598000D01*
X78520000Y-90402000D01*
X78520000Y-90398000D01*
X78520000Y-90393000D01*
X78521000Y-90389000D01*
X78522000Y-90385000D01*
X78523000Y-90381000D01*
X78524000Y-90377000D01*
X78525000Y-90373000D01*
X78527000Y-90369000D01*
X78529000Y-90365000D01*
X78531000Y-90361000D01*
X78533000Y-90357000D01*
X78536000Y-90354000D01*
X78538000Y-90350000D01*
X78541000Y-90347000D01*
X78544000Y-90344000D01*
X78547000Y-90341000D01*
X78550000Y-90338000D01*
X78554000Y-90336000D01*
X78557000Y-90333000D01*
X78561000Y-90331000D01*
X78565000Y-90329000D01*
X78569000Y-90327000D01*
X78573000Y-90325000D01*
X78577000Y-90324000D01*
X78581000Y-90323000D01*
X78585000Y-90322000D01*
X78589000Y-90321000D01*
X78593000Y-90320000D01*
X78598000Y-90320000D01*
X78602000Y-90320000D01*
X79398000Y-90320000D01*
X79402000Y-90320000D01*
X79407000Y-90320000D01*
X79411000Y-90321000D01*
G37*
G04 #@! TD*
D11*
G04 #@! TO.C,L1*
X74600000Y-109750000D03*
X83500000Y-109750000D03*
G04 #@! TD*
D12*
G04 #@! TO.C,R21*
X75337500Y-64750000D03*
X77162500Y-64750000D03*
G04 #@! TD*
G04 #@! TO.C,R33*
X82087500Y-99000000D03*
X83912500Y-99000000D03*
G04 #@! TD*
G04 #@! TO.C,R5*
X66250000Y-68250000D03*
X68075000Y-68250000D03*
G04 #@! TD*
D13*
G04 #@! TO.C,R22*
X87000000Y-111700000D03*
X87000000Y-109875000D03*
G04 #@! TD*
D14*
G04 #@! TO.C,C22*
X100700000Y-99500000D03*
X98800000Y-99500000D03*
G04 #@! TD*
D15*
G04 #@! TO.C,R9*
X63912500Y-78000000D03*
X62087500Y-78000000D03*
G04 #@! TD*
D14*
G04 #@! TO.C,C23*
X100700000Y-103000000D03*
X98800000Y-103000000D03*
G04 #@! TD*
D15*
G04 #@! TO.C,R30*
X80000000Y-99000000D03*
X78175000Y-99000000D03*
G04 #@! TD*
D16*
G04 #@! TO.C,D3*
X63937500Y-68250000D03*
X62062500Y-68250000D03*
G04 #@! TD*
D12*
G04 #@! TO.C,R26*
X79337500Y-68250000D03*
X81162500Y-68250000D03*
G04 #@! TD*
D13*
G04 #@! TO.C,R1*
X73390000Y-128412500D03*
X73390000Y-126587500D03*
G04 #@! TD*
D17*
G04 #@! TO.C,IC3*
X94425000Y-94230000D03*
X94425000Y-96770000D03*
X100575000Y-96770000D03*
X100575000Y-94230000D03*
G04 #@! TD*
D18*
G04 #@! TO.C,D1*
X74250000Y-121500000D03*
X74250000Y-120550000D03*
X74250000Y-119600000D03*
X71750000Y-119600000D03*
X71750000Y-120550000D03*
X71750000Y-121500000D03*
G04 #@! TD*
D19*
G04 #@! TO.C,U1*
X72750000Y-41250000D03*
X72750000Y-42520000D03*
X72750000Y-43790000D03*
X72750000Y-45060000D03*
X72750000Y-46330000D03*
X72750000Y-47600000D03*
X72750000Y-48870000D03*
X72750000Y-50140000D03*
X72750000Y-51410000D03*
X72750000Y-52680000D03*
X72750000Y-53950000D03*
X72750000Y-55220000D03*
X72750000Y-56490000D03*
X72750000Y-57760000D03*
X90250000Y-57760000D03*
X90250000Y-56490000D03*
X90250000Y-55220000D03*
X90250000Y-53950000D03*
X90250000Y-52680000D03*
X90250000Y-51410000D03*
X90250000Y-50140000D03*
X90250000Y-48870000D03*
X90250000Y-47600000D03*
X90250000Y-46330000D03*
X90250000Y-45060000D03*
X90250000Y-43790000D03*
X90250000Y-42520000D03*
X90250000Y-41250000D03*
D20*
X78745000Y-45720000D03*
X78745000Y-46970000D03*
X78745000Y-48220000D03*
X79995000Y-45720000D03*
X79995000Y-46970000D03*
X79995000Y-48220000D03*
X81245000Y-45720000D03*
X81245000Y-46970000D03*
X81245000Y-48220000D03*
G04 #@! TD*
D15*
G04 #@! TO.C,R27*
X81162500Y-71500000D03*
X79337500Y-71500000D03*
G04 #@! TD*
D13*
G04 #@! TO.C,R3*
X89500000Y-128412500D03*
X89500000Y-126587500D03*
G04 #@! TD*
D21*
G04 #@! TO.C,C4*
X94300000Y-47250000D03*
X96200000Y-47250000D03*
G04 #@! TD*
D12*
G04 #@! TO.C,R18*
X66500000Y-83000000D03*
X68325000Y-83000000D03*
G04 #@! TD*
D21*
G04 #@! TO.C,C12*
X79300000Y-64750000D03*
X81200000Y-64750000D03*
G04 #@! TD*
D22*
G04 #@! TO.C,U2*
X83887500Y-118700000D03*
X83887500Y-117750000D03*
X83887500Y-116800000D03*
X81612500Y-116800000D03*
X81612500Y-118700000D03*
G04 #@! TD*
D16*
G04 #@! TO.C,D7*
X72937500Y-64750000D03*
X71062500Y-64750000D03*
G04 #@! TD*
D23*
G04 #@! TO.C,REF\u002A\u002A*
X100000000Y-42990000D03*
G04 #@! TD*
D24*
G04 #@! TO.C,C5*
X68750000Y-119200000D03*
X68750000Y-117300000D03*
G04 #@! TD*
D14*
G04 #@! TO.C,C17*
X79200000Y-94500000D03*
X77300000Y-94500000D03*
G04 #@! TD*
D25*
G04 #@! TO.C,D6*
X87000000Y-115350000D03*
X87000000Y-118650000D03*
G04 #@! TD*
D16*
G04 #@! TO.C,D8*
X72937500Y-68250000D03*
X71062500Y-68250000D03*
G04 #@! TD*
D24*
G04 #@! TO.C,C3*
X68800000Y-43200000D03*
X68800000Y-41300000D03*
G04 #@! TD*
D15*
G04 #@! TO.C,R6*
X63912500Y-71500000D03*
X62087500Y-71500000D03*
G04 #@! TD*
D26*
G04 #@! TO.C,D9*
X87650000Y-90250000D03*
X83350000Y-90250000D03*
G04 #@! TD*
D23*
G04 #@! TO.C,REF\u002A\u002A*
X63000000Y-127000000D03*
G04 #@! TD*
D12*
G04 #@! TO.C,R20*
X66587500Y-90000000D03*
X68412500Y-90000000D03*
G04 #@! TD*
D13*
G04 #@! TO.C,R14*
X79000000Y-118662500D03*
X79000000Y-116837500D03*
G04 #@! TD*
D15*
G04 #@! TO.C,R16*
X72412500Y-86500000D03*
X70587500Y-86500000D03*
G04 #@! TD*
D27*
G04 #@! TO.C,J3*
X98250000Y-84250000D03*
X93250000Y-87750003D03*
G04 #@! TD*
D21*
G04 #@! TO.C,C21*
X86550000Y-79750000D03*
X88450000Y-79750000D03*
G04 #@! TD*
D12*
G04 #@! TO.C,R10*
X94337500Y-50750000D03*
X96162500Y-50750000D03*
G04 #@! TD*
D21*
G04 #@! TO.C,C9*
X84300000Y-120750000D03*
X86200000Y-120750000D03*
G04 #@! TD*
D28*
G04 #@! TO.C,S1*
X101250000Y-54000000D03*
X101250000Y-62000000D03*
X96750000Y-54000000D03*
X96750000Y-62000000D03*
G04 #@! TD*
D12*
G04 #@! TO.C,R29*
X86587500Y-86750000D03*
X88412500Y-86750000D03*
G04 #@! TD*
D24*
G04 #@! TO.C,C15*
X90500000Y-107500000D03*
X90500000Y-105600000D03*
G04 #@! TD*
D15*
G04 #@! TO.C,R13*
X72412500Y-90000000D03*
X70587500Y-90000000D03*
G04 #@! TD*
D26*
G04 #@! TO.C,D12*
X90900000Y-101250000D03*
X86600000Y-101250000D03*
G04 #@! TD*
D29*
G04 #@! TO.C,Q1*
X74825000Y-72600000D03*
X74825000Y-73250000D03*
X74825000Y-73900000D03*
X76500000Y-73900000D03*
X76500000Y-73250000D03*
X76500000Y-72600000D03*
G04 #@! TD*
D24*
G04 #@! TO.C,C24*
X94000000Y-111700000D03*
X94000000Y-109800000D03*
G04 #@! TD*
D21*
G04 #@! TO.C,C20*
X79800000Y-81000000D03*
X81700000Y-81000000D03*
G04 #@! TD*
G04 #@! TO.C,C16*
X68300000Y-107000000D03*
X70200000Y-107000000D03*
G04 #@! TD*
D30*
G04 #@! TO.C,U3*
X70650000Y-114300000D03*
X70650000Y-112000000D03*
D31*
X64350000Y-112000000D03*
D30*
X70650000Y-109700000D03*
G04 #@! TD*
D27*
G04 #@! TO.C,J2*
X98250000Y-67250000D03*
X93250000Y-70750003D03*
G04 #@! TD*
D32*
G04 #@! TO.C,IC1*
X63576000Y-92250000D03*
X63576000Y-93520000D03*
X63576000Y-94790000D03*
X63576000Y-96060000D03*
X63576000Y-97330000D03*
X63576000Y-98600000D03*
X63576000Y-99870000D03*
X63576000Y-101140000D03*
X69000000Y-101140000D03*
X69000000Y-99870000D03*
X69000000Y-98600000D03*
X69000000Y-97330000D03*
X69000000Y-96060000D03*
X69000000Y-94790000D03*
X69000000Y-93520000D03*
X69000000Y-92250000D03*
G04 #@! TD*
D33*
G04 #@! TO.C,J1*
X78610000Y-125000000D03*
X84390000Y-125000000D03*
D34*
X78300000Y-123925000D03*
X79100000Y-123925000D03*
D35*
X80250000Y-123925000D03*
X81250000Y-123925000D03*
X81750000Y-123925000D03*
X82750000Y-123925000D03*
D34*
X84700000Y-123925000D03*
X83900000Y-123925000D03*
D35*
X83250000Y-123925000D03*
X82250000Y-123925000D03*
X80750000Y-123925000D03*
X79750000Y-123925000D03*
D36*
X76390000Y-124500000D03*
X86610000Y-124500000D03*
X76390000Y-128430000D03*
X86610000Y-128430000D03*
G04 #@! TD*
D13*
G04 #@! TO.C,R31*
X84000000Y-83162500D03*
X84000000Y-81337500D03*
G04 #@! TD*
D37*
G04 #@! TO.C,D2*
X63562500Y-61250000D03*
X65437500Y-61250000D03*
G04 #@! TD*
D15*
G04 #@! TO.C,R7*
X63912500Y-74750000D03*
X62087500Y-74750000D03*
G04 #@! TD*
G04 #@! TO.C,R15*
X74912500Y-98000000D03*
X73087500Y-98000000D03*
G04 #@! TD*
D14*
G04 #@! TO.C,C1*
X68750000Y-49537500D03*
X66850000Y-49537500D03*
G04 #@! TD*
D26*
G04 #@! TO.C,D10*
X90900000Y-95250000D03*
X86600000Y-95250000D03*
G04 #@! TD*
D21*
G04 #@! TO.C,C18*
X79800000Y-84500000D03*
X81700000Y-84500000D03*
G04 #@! TD*
D15*
G04 #@! TO.C,R28*
X71912500Y-71500000D03*
X70087500Y-71500000D03*
G04 #@! TD*
D14*
G04 #@! TO.C,C7*
X71950000Y-103750000D03*
X70050000Y-103750000D03*
G04 #@! TD*
D12*
G04 #@! TO.C,R19*
X66500000Y-86500000D03*
X68325000Y-86500000D03*
G04 #@! TD*
D23*
G04 #@! TO.C,REF\u002A\u002A*
X63000000Y-42990000D03*
G04 #@! TD*
D13*
G04 #@! TO.C,R23*
X87000000Y-107450000D03*
X87000000Y-105625000D03*
G04 #@! TD*
D12*
G04 #@! TO.C,R11*
X66250000Y-64750000D03*
X68075000Y-64750000D03*
G04 #@! TD*
D14*
G04 #@! TO.C,C6*
X65700000Y-104250000D03*
X63800000Y-104250000D03*
G04 #@! TD*
G04 #@! TO.C,C8*
X65700000Y-120500000D03*
X63800000Y-120500000D03*
G04 #@! TD*
D38*
G04 #@! TO.C,R35*
X94956250Y-126425000D03*
X94956250Y-128250000D03*
G04 #@! TD*
D15*
G04 #@! TO.C,R12*
X74912500Y-101500000D03*
X73087500Y-101500000D03*
G04 #@! TD*
G04 #@! TO.C,R8*
X68712500Y-56037500D03*
X66887500Y-56037500D03*
G04 #@! TD*
D14*
G04 #@! TO.C,C19*
X88450000Y-83250000D03*
X86550000Y-83250000D03*
G04 #@! TD*
D39*
G04 #@! TO.C,D4*
X68750000Y-125400000D03*
X68750000Y-122100000D03*
G04 #@! TD*
D15*
G04 #@! TO.C,R4*
X69662500Y-61250000D03*
X67837500Y-61250000D03*
G04 #@! TD*
D14*
G04 #@! TO.C,C10*
X65700000Y-117250000D03*
X63800000Y-117250000D03*
G04 #@! TD*
D15*
G04 #@! TO.C,R17*
X74912500Y-94500000D03*
X73087500Y-94500000D03*
G04 #@! TD*
D40*
G04 #@! TO.C,C11*
X74500000Y-83700000D03*
X74500000Y-78300000D03*
G04 #@! TD*
D12*
G04 #@! TO.C,R24*
X75337500Y-68250000D03*
X77162500Y-68250000D03*
G04 #@! TD*
D14*
G04 #@! TO.C,C14*
X65700000Y-107000000D03*
X63800000Y-107000000D03*
G04 #@! TD*
D16*
G04 #@! TO.C,D5*
X63937500Y-64750000D03*
X62062500Y-64750000D03*
G04 #@! TD*
D12*
G04 #@! TO.C,R34*
X82087500Y-102500000D03*
X83912500Y-102500000D03*
G04 #@! TD*
D41*
G04 #@! TO.C,D11*
X96250000Y-77000000D03*
X100250000Y-77000000D03*
G04 #@! TD*
D27*
G04 #@! TO.C,J4*
X98250000Y-116250000D03*
X93250000Y-119750003D03*
G04 #@! TD*
D42*
G04 #@! TO.C,IC2*
X85480000Y-74325000D03*
X88020000Y-74325000D03*
X88020000Y-68175000D03*
X85480000Y-68175000D03*
G04 #@! TD*
D15*
G04 #@! TO.C,R2*
X68712500Y-52787500D03*
X66887500Y-52787500D03*
G04 #@! TD*
D14*
G04 #@! TO.C,C2*
X68750000Y-45750000D03*
X66850000Y-45750000D03*
G04 #@! TD*
D23*
G04 #@! TO.C,REF\u002A\u002A*
X100000000Y-127000000D03*
G04 #@! TD*
D15*
G04 #@! TO.C,R32*
X79912500Y-102500000D03*
X78087500Y-102500000D03*
G04 #@! TD*
D38*
G04 #@! TO.C,R36*
X92500000Y-126425000D03*
X92500000Y-128250000D03*
G04 #@! TD*
D12*
G04 #@! TO.C,R25*
X83337500Y-64750000D03*
X85162500Y-64750000D03*
G04 #@! TD*
D24*
G04 #@! TO.C,C13*
X90500000Y-111737500D03*
X90500000Y-109837500D03*
G04 #@! TD*
M02*
