G04 #@! TF.GenerationSoftware,KiCad,Pcbnew,10.0.3*
G04 #@! TF.CreationDate,2026-06-15T00:59:42+02:00*
G04 #@! TF.ProjectId,zHeat_PCB,7a486561-745f-4504-9342-2e6b69636164,rev?*
G04 #@! TF.SameCoordinates,Original*
G04 #@! TF.FileFunction,Copper,L2,Bot*
G04 #@! TF.FilePolarity,Positive*
%FSLAX46Y46*%
G04 Gerber Fmt 4.6, Leading zero omitted, Abs format (unit mm)*
G04 Created by KiCad (PCBNEW 10.0.3) date 2026-06-15 00:59:42*
%MOMM*%
%LPD*%
G01*
G04 APERTURE LIST*
G04 #@! TA.AperFunction,ComponentPad*
%ADD10C,1.800000*%
G04 #@! TD*
G04 #@! TA.AperFunction,ViaPad*
%ADD11C,0.600000*%
G04 #@! TD*
G04 #@! TA.AperFunction,Conductor*
%ADD12C,0.200000*%
G04 #@! TD*
G04 #@! TA.AperFunction,Conductor*
%ADD13C,0.500000*%
G04 #@! TD*
G04 #@! TA.AperFunction,Conductor*
%ADD14C,0.300000*%
G04 #@! TD*
G04 APERTURE END LIST*
D10*
G04 #@! TO.P,J3,1,1_1*
G04 #@! TO.N,/H+*
X98250000Y-84250000D03*
G04 #@! TO.P,J3,2,2_2*
G04 #@! TO.N,/H-*
X93250000Y-87750003D03*
G04 #@! TD*
G04 #@! TO.P,J2,1,1_1*
G04 #@! TO.N,Net-(D11-A2)*
X98250000Y-67250000D03*
G04 #@! TO.P,J2,2,2_2*
G04 #@! TO.N,Net-(D11-A1)*
X93250000Y-70750003D03*
G04 #@! TD*
G04 #@! TO.P,J4,1,1_1*
G04 #@! TO.N,+20V*
X98250000Y-116250000D03*
G04 #@! TO.P,J4,2,2_2*
G04 #@! TO.N,Net-(J4-Pad2)*
X93250000Y-119750003D03*
G04 #@! TD*
D11*
G04 #@! TO.N,Net-(U4-AIO)*
X81500000Y-87750000D03*
X82000000Y-97500000D03*
G04 #@! TO.N,DIN*
X75000000Y-63250000D03*
X69500000Y-68250000D03*
G04 #@! TO.N,+20V*
X92000000Y-111825000D03*
G04 #@! TO.N,DOUT*
X69500000Y-64750000D03*
X64000000Y-76500000D03*
X75250000Y-61750000D03*
X65000000Y-66500000D03*
G04 #@! TO.N,+3.3V*
X63576000Y-90945000D03*
X63576000Y-102500000D03*
X63576000Y-81076000D03*
X96250000Y-42000000D03*
X68750000Y-47750000D03*
X66250000Y-73750000D03*
G04 #@! TO.N,Net-(U4-TERM)*
X80500000Y-87750000D03*
X80750000Y-97500000D03*
G04 #@! TO.N,GND*
X93000000Y-55500000D03*
X72000000Y-124500000D03*
X102000000Y-73000000D03*
X63500000Y-58000000D03*
X100000000Y-122250000D03*
X65500000Y-93500000D03*
X85000000Y-63000000D03*
X102000000Y-106000000D03*
X85000000Y-55500000D03*
X65500000Y-101000000D03*
X101500000Y-47000000D03*
X82250000Y-66000000D03*
X90750000Y-124750000D03*
X78000000Y-73750000D03*
X66000000Y-51000000D03*
X78250000Y-66500000D03*
X74750000Y-116750000D03*
X63500000Y-51000000D03*
X79000000Y-106500000D03*
X73250000Y-72750000D03*
X62500000Y-122750000D03*
G04 #@! TO.N,USB-*
X76250000Y-121500000D03*
X72850000Y-60750000D03*
G04 #@! TO.N,USB+*
X76250000Y-119600000D03*
X71750000Y-61850000D03*
G04 #@! TO.N,VBUS*
X83790000Y-122500000D03*
X78990000Y-122500000D03*
G04 #@! TO.N,A1*
X95750000Y-111700000D03*
X71750000Y-63000000D03*
G04 #@! TO.N,RST*
X66000000Y-70250000D03*
X76000000Y-61000000D03*
G04 #@! TO.N,VCC (5V)*
X71750000Y-92250000D03*
X76315000Y-86185000D03*
X73087500Y-99587500D03*
X71750000Y-101500000D03*
G04 #@! TO.N,/SW*
X83400000Y-115000000D03*
X85250000Y-118700000D03*
G04 #@! TO.N,+5V*
X67250000Y-120500000D03*
X79000000Y-120250000D03*
G04 #@! TO.N,GND_H*
X76250000Y-103000000D03*
X101000000Y-81000000D03*
X71000000Y-84500000D03*
X88750000Y-101250000D03*
X77065000Y-89250000D03*
X84000000Y-95250000D03*
X96250000Y-95500000D03*
X69500000Y-90000000D03*
X70750000Y-93500000D03*
X69500000Y-86500000D03*
X81500000Y-77500000D03*
X69750000Y-79250000D03*
X73750000Y-91500000D03*
X95250000Y-101250000D03*
G04 #@! TO.N,Net-(IC1-INB1)*
X71500000Y-97330000D03*
X74912500Y-95750000D03*
G04 #@! TD*
G04 #@! TO.N,Net-(U4-AIO)*
D12*
X82000000Y-97500000D02*
X81500000Y-97000000D01*
X81500000Y-97000000D02*
X81500000Y-87750000D01*
G04 #@! TO.N,DIN*
X69500000Y-68250000D02*
X69500000Y-68065686D01*
X69500000Y-68065686D02*
X74315686Y-63250000D01*
X74315686Y-63250000D02*
X75000000Y-63250000D01*
G04 #@! TO.N,+20V*
D13*
X92000000Y-115500000D02*
X92750000Y-116250000D01*
X92000000Y-111825000D02*
X92000000Y-115500000D01*
X92750000Y-116250000D02*
X98250000Y-116250000D01*
G04 #@! TO.N,DOUT*
D12*
X65000000Y-76000000D02*
X65000000Y-66500000D01*
X64500000Y-76500000D02*
X65000000Y-76000000D01*
X64000000Y-76500000D02*
X64500000Y-76500000D01*
X72250000Y-64750000D02*
X75250000Y-61750000D01*
X69500000Y-64750000D02*
X72250000Y-64750000D01*
G04 #@! TO.N,+3.3V*
D13*
X95750000Y-41500000D02*
X96250000Y-42000000D01*
X68740000Y-47740000D02*
X68750000Y-47750000D01*
X69050000Y-41500000D02*
X95750000Y-41500000D01*
X63576000Y-81076000D02*
X63576000Y-90945000D01*
X63674000Y-81076000D02*
X66250000Y-78500000D01*
X63576000Y-81076000D02*
X63674000Y-81076000D01*
X68750000Y-41800000D02*
X69050000Y-41500000D01*
X68750000Y-47750000D02*
X68750000Y-41800000D01*
X66250000Y-78500000D02*
X66250000Y-73750000D01*
X63576000Y-90945000D02*
X63576000Y-102500000D01*
G04 #@! TO.N,Net-(U4-TERM)*
D12*
X80750000Y-88000000D02*
X80750000Y-97500000D01*
X80500000Y-87750000D02*
X80750000Y-88000000D01*
G04 #@! TO.N,GND*
D13*
X66000000Y-51000000D02*
X63500000Y-51000000D01*
X102250000Y-73250000D02*
X102250000Y-105750000D01*
X93000000Y-55500000D02*
X85000000Y-55500000D01*
X63500000Y-58000000D02*
X63500000Y-51000000D01*
X102000000Y-73000000D02*
X102250000Y-73250000D01*
X85000000Y-55500000D02*
X85000000Y-63000000D01*
X102250000Y-105750000D02*
X102000000Y-106000000D01*
G04 #@! TO.N,USB-*
D12*
X62684315Y-61250000D02*
X72350000Y-61250000D01*
X76250000Y-121500000D02*
X67250000Y-121500000D01*
X72350000Y-61250000D02*
X72850000Y-60750000D01*
X60600000Y-63334315D02*
X62684315Y-61250000D01*
X67250000Y-121500000D02*
X65750000Y-120000000D01*
X62434314Y-120000000D02*
X60600000Y-118165686D01*
X60600000Y-118165686D02*
X60600000Y-63334315D01*
X65750000Y-120000000D02*
X62434314Y-120000000D01*
G04 #@! TO.N,USB+*
X76250000Y-119600000D02*
X62600000Y-119600000D01*
X62600000Y-119600000D02*
X61000000Y-118000000D01*
X62850000Y-61650000D02*
X71550000Y-61650000D01*
X61000000Y-63500000D02*
X62850000Y-61650000D01*
X61000000Y-118000000D02*
X61000000Y-63500000D01*
X71550000Y-61650000D02*
X71750000Y-61850000D01*
G04 #@! TO.N,VBUS*
D13*
X83790000Y-122500000D02*
X78990000Y-122500000D01*
G04 #@! TO.N,A1*
D12*
X61400000Y-109900000D02*
X61400000Y-63665686D01*
X62500000Y-111000000D02*
X61400000Y-109900000D01*
X95500000Y-111000000D02*
X62500000Y-111000000D01*
X95750000Y-111250000D02*
X95500000Y-111000000D01*
X61400000Y-63665686D02*
X63015686Y-62050000D01*
X63015686Y-62050000D02*
X70800000Y-62050000D01*
X95750000Y-111700000D02*
X95750000Y-111250000D01*
X70800000Y-62050000D02*
X71750000Y-63000000D01*
G04 #@! TO.N,RST*
X76000000Y-63098529D02*
X76000000Y-61000000D01*
X66000000Y-70250000D02*
X68848529Y-70250000D01*
X68848529Y-70250000D02*
X76000000Y-63098529D01*
G04 #@! TO.N,VCC (5V)*
D14*
X71750000Y-101500000D02*
X71750000Y-99750000D01*
X72565000Y-86185000D02*
X76315000Y-86185000D01*
X71750000Y-99000000D02*
X70750000Y-98000000D01*
X72925000Y-99750000D02*
X71750000Y-99750000D01*
X71750000Y-96000000D02*
X70750000Y-97000000D01*
X71750000Y-99750000D02*
X71750000Y-99000000D01*
X71750000Y-92250000D02*
X71750000Y-87000000D01*
X71750000Y-87000000D02*
X72565000Y-86185000D01*
X73087500Y-99587500D02*
X72925000Y-99750000D01*
X71750000Y-92250000D02*
X71750000Y-96000000D01*
X70750000Y-97000000D02*
X70750000Y-98000000D01*
G04 #@! TO.N,/SW*
D13*
X83950000Y-118700000D02*
X85250000Y-118700000D01*
X83400000Y-115000000D02*
X83400000Y-118150000D01*
X83400000Y-118150000D02*
X83950000Y-118700000D01*
G04 #@! TO.N,+5V*
X78750000Y-120500000D02*
X79000000Y-120250000D01*
X67250000Y-120500000D02*
X78750000Y-120500000D01*
G04 #@! TO.N,Net-(IC1-INB1)*
D12*
X71500000Y-97330000D02*
X74170000Y-97330000D01*
X74912500Y-96587500D02*
X74912500Y-95750000D01*
X74170000Y-97330000D02*
X74912500Y-96587500D01*
G04 #@! TD*
G04 #@! TA.AperFunction,Conductor*
G04 #@! TO.N,GND*
G36*
X70566942Y-62670185D02*
G01*
X70587584Y-62686819D01*
X70915425Y-63014660D01*
X70948910Y-63075983D01*
X70949361Y-63078149D01*
X70980261Y-63233491D01*
X70980264Y-63233501D01*
X71040602Y-63379172D01*
X71040609Y-63379185D01*
X71128210Y-63510288D01*
X71128213Y-63510292D01*
X71239707Y-63621786D01*
X71239711Y-63621789D01*
X71370814Y-63709390D01*
X71370827Y-63709397D01*
X71471284Y-63751007D01*
X71516503Y-63769737D01*
X71671153Y-63800499D01*
X71671156Y-63800500D01*
X71671158Y-63800500D01*
X71828844Y-63800500D01*
X71828845Y-63800499D01*
X71983497Y-63769737D01*
X72086189Y-63727200D01*
X72155656Y-63719732D01*
X72218136Y-63751007D01*
X72253788Y-63811096D01*
X72251294Y-63880921D01*
X72221321Y-63929443D01*
X72037584Y-64113181D01*
X71976261Y-64146666D01*
X71949903Y-64149500D01*
X70079766Y-64149500D01*
X70012727Y-64129815D01*
X70010875Y-64128602D01*
X69879185Y-64040609D01*
X69879172Y-64040602D01*
X69733501Y-63980264D01*
X69733489Y-63980261D01*
X69578845Y-63949500D01*
X69578842Y-63949500D01*
X69421158Y-63949500D01*
X69421155Y-63949500D01*
X69266510Y-63980261D01*
X69266498Y-63980264D01*
X69120827Y-64040602D01*
X69120814Y-64040609D01*
X68989711Y-64128210D01*
X68989707Y-64128213D01*
X68878213Y-64239707D01*
X68878210Y-64239711D01*
X68790609Y-64370814D01*
X68790602Y-64370827D01*
X68730264Y-64516498D01*
X68730261Y-64516510D01*
X68699500Y-64671153D01*
X68699500Y-64828846D01*
X68730261Y-64983489D01*
X68730264Y-64983501D01*
X68790602Y-65129172D01*
X68790609Y-65129185D01*
X68878210Y-65260288D01*
X68878213Y-65260292D01*
X68989707Y-65371786D01*
X68989711Y-65371789D01*
X69120814Y-65459390D01*
X69120827Y-65459397D01*
X69199894Y-65492147D01*
X69266503Y-65519737D01*
X69421153Y-65550499D01*
X69421156Y-65550500D01*
X69421158Y-65550500D01*
X69578844Y-65550500D01*
X69578845Y-65550499D01*
X69733497Y-65519737D01*
X69879179Y-65459394D01*
X69933663Y-65422989D01*
X70010875Y-65371398D01*
X70077553Y-65350520D01*
X70079766Y-65350500D01*
X71066589Y-65350500D01*
X71133628Y-65370185D01*
X71179383Y-65422989D01*
X71189327Y-65492147D01*
X71160302Y-65555703D01*
X71154270Y-65562181D01*
X69232193Y-67484256D01*
X69191966Y-67511136D01*
X69120821Y-67540606D01*
X69120814Y-67540609D01*
X68989711Y-67628210D01*
X68989707Y-67628213D01*
X68878213Y-67739707D01*
X68878210Y-67739711D01*
X68790609Y-67870814D01*
X68790602Y-67870827D01*
X68730264Y-68016498D01*
X68730261Y-68016510D01*
X68699500Y-68171153D01*
X68699500Y-68328846D01*
X68730261Y-68483489D01*
X68730264Y-68483501D01*
X68790602Y-68629172D01*
X68790609Y-68629185D01*
X68878210Y-68760288D01*
X68878213Y-68760292D01*
X68989710Y-68871789D01*
X69096546Y-68943174D01*
X69141351Y-68996786D01*
X69150058Y-69066111D01*
X69119904Y-69129138D01*
X69115336Y-69133957D01*
X68636113Y-69613181D01*
X68574790Y-69646666D01*
X68548432Y-69649500D01*
X66579766Y-69649500D01*
X66512727Y-69629815D01*
X66510875Y-69628602D01*
X66379185Y-69540609D01*
X66379172Y-69540602D01*
X66233501Y-69480264D01*
X66233489Y-69480261D01*
X66078845Y-69449500D01*
X66078842Y-69449500D01*
X65921158Y-69449500D01*
X65921155Y-69449500D01*
X65766510Y-69480261D01*
X65760676Y-69482031D01*
X65759873Y-69479385D01*
X65702056Y-69485396D01*
X65639687Y-69453902D01*
X65604245Y-69393689D01*
X65600500Y-69363444D01*
X65600500Y-67079765D01*
X65620185Y-67012726D01*
X65621398Y-67010874D01*
X65709390Y-66879185D01*
X65709390Y-66879184D01*
X65709394Y-66879179D01*
X65769737Y-66733497D01*
X65800500Y-66578842D01*
X65800500Y-66421158D01*
X65800500Y-66421155D01*
X65800499Y-66421153D01*
X65769738Y-66266510D01*
X65769737Y-66266503D01*
X65734634Y-66181756D01*
X65709397Y-66120827D01*
X65709390Y-66120814D01*
X65621789Y-65989711D01*
X65621786Y-65989707D01*
X65510292Y-65878213D01*
X65510288Y-65878210D01*
X65379185Y-65790609D01*
X65379172Y-65790602D01*
X65233501Y-65730264D01*
X65233489Y-65730261D01*
X65078845Y-65699500D01*
X65078842Y-65699500D01*
X64921158Y-65699500D01*
X64921155Y-65699500D01*
X64766510Y-65730261D01*
X64766498Y-65730264D01*
X64620827Y-65790602D01*
X64620814Y-65790609D01*
X64489711Y-65878210D01*
X64489707Y-65878213D01*
X64378213Y-65989707D01*
X64378210Y-65989711D01*
X64290609Y-66120814D01*
X64290602Y-66120827D01*
X64230264Y-66266498D01*
X64230261Y-66266510D01*
X64199500Y-66421153D01*
X64199500Y-66578846D01*
X64230261Y-66733489D01*
X64230264Y-66733501D01*
X64290602Y-66879172D01*
X64290609Y-66879185D01*
X64378602Y-67010874D01*
X64399480Y-67077551D01*
X64399500Y-67079765D01*
X64399500Y-75613444D01*
X64379815Y-75680483D01*
X64327011Y-75726238D01*
X64257853Y-75736182D01*
X64239575Y-75731202D01*
X64239324Y-75732031D01*
X64233500Y-75730264D01*
X64233497Y-75730263D01*
X64233492Y-75730262D01*
X64233489Y-75730261D01*
X64078845Y-75699500D01*
X64078842Y-75699500D01*
X63921158Y-75699500D01*
X63921155Y-75699500D01*
X63766510Y-75730261D01*
X63766498Y-75730264D01*
X63620827Y-75790602D01*
X63620814Y-75790609D01*
X63489711Y-75878210D01*
X63489707Y-75878213D01*
X63378213Y-75989707D01*
X63378210Y-75989711D01*
X63290609Y-76120814D01*
X63290602Y-76120827D01*
X63230264Y-76266498D01*
X63230261Y-76266510D01*
X63199500Y-76421153D01*
X63199500Y-76578846D01*
X63230261Y-76733489D01*
X63230264Y-76733501D01*
X63290602Y-76879172D01*
X63290609Y-76879185D01*
X63378210Y-77010288D01*
X63378213Y-77010292D01*
X63489707Y-77121786D01*
X63489711Y-77121789D01*
X63620814Y-77209390D01*
X63620827Y-77209397D01*
X63758695Y-77266503D01*
X63766503Y-77269737D01*
X63921153Y-77300499D01*
X63921156Y-77300500D01*
X63921158Y-77300500D01*
X64078844Y-77300500D01*
X64078845Y-77300499D01*
X64233497Y-77269737D01*
X64379179Y-77209394D01*
X64510289Y-77121789D01*
X64510288Y-77121789D01*
X64510873Y-77121399D01*
X64571124Y-77102532D01*
X64570997Y-77101562D01*
X64576568Y-77100828D01*
X64577550Y-77100521D01*
X64579002Y-77100507D01*
X64579054Y-77100501D01*
X64579057Y-77100501D01*
X64731785Y-77059577D01*
X64781904Y-77030639D01*
X64868716Y-76980520D01*
X64980520Y-76868716D01*
X64980521Y-76868714D01*
X65287820Y-76561415D01*
X65349142Y-76527931D01*
X65418834Y-76532915D01*
X65474767Y-76574787D01*
X65499184Y-76640251D01*
X65499500Y-76649097D01*
X65499500Y-78137770D01*
X65479815Y-78204809D01*
X65463181Y-78225451D01*
X63418865Y-80269766D01*
X63357542Y-80303251D01*
X63355376Y-80303702D01*
X63342508Y-80306261D01*
X63342498Y-80306264D01*
X63196827Y-80366602D01*
X63196814Y-80366609D01*
X63065711Y-80454210D01*
X63065707Y-80454213D01*
X62954213Y-80565707D01*
X62954210Y-80565711D01*
X62866609Y-80696814D01*
X62866602Y-80696827D01*
X62806264Y-80842498D01*
X62806261Y-80842510D01*
X62775500Y-80997153D01*
X62775500Y-81154846D01*
X62806261Y-81309489D01*
X62806263Y-81309497D01*
X62816061Y-81333151D01*
X62825500Y-81380604D01*
X62825500Y-90640396D01*
X62816062Y-90687844D01*
X62811235Y-90699500D01*
X62806262Y-90711506D01*
X62806260Y-90711511D01*
X62775500Y-90866153D01*
X62775500Y-91023846D01*
X62806261Y-91178489D01*
X62806263Y-91178497D01*
X62816061Y-91202151D01*
X62825500Y-91249604D01*
X62825500Y-102195396D01*
X62816062Y-102242844D01*
X62806263Y-102266503D01*
X62806262Y-102266506D01*
X62806260Y-102266511D01*
X62775500Y-102421153D01*
X62775500Y-102578846D01*
X62806261Y-102733489D01*
X62806264Y-102733501D01*
X62866602Y-102879172D01*
X62866609Y-102879185D01*
X62954210Y-103010288D01*
X62954213Y-103010292D01*
X63065707Y-103121786D01*
X63065711Y-103121789D01*
X63196814Y-103209390D01*
X63196827Y-103209397D01*
X63342498Y-103269735D01*
X63342503Y-103269737D01*
X63497153Y-103300499D01*
X63497156Y-103300500D01*
X63497158Y-103300500D01*
X63654844Y-103300500D01*
X63654845Y-103300499D01*
X63809497Y-103269737D01*
X63955179Y-103209394D01*
X64086289Y-103121789D01*
X64197789Y-103010289D01*
X64285394Y-102879179D01*
X64345737Y-102733497D01*
X64376500Y-102578842D01*
X64376500Y-102421158D01*
X64376500Y-102421155D01*
X64376499Y-102421153D01*
X64345739Y-102266511D01*
X64345738Y-102266508D01*
X64345737Y-102266503D01*
X64335937Y-102242844D01*
X64326500Y-102195396D01*
X64326500Y-91249604D01*
X64335939Y-91202151D01*
X64345737Y-91178497D01*
X64376500Y-91023842D01*
X64376500Y-90866158D01*
X64376500Y-90866155D01*
X64376499Y-90866153D01*
X64345739Y-90711511D01*
X64345738Y-90711508D01*
X64345737Y-90711503D01*
X64335937Y-90687844D01*
X64334311Y-90679670D01*
X64331523Y-90675331D01*
X64326500Y-90640396D01*
X64326500Y-90625862D01*
X64346185Y-90558823D01*
X64398989Y-90513068D01*
X64468147Y-90503124D01*
X64531703Y-90532149D01*
X64538181Y-90538181D01*
X65963681Y-91963681D01*
X65997166Y-92025004D01*
X66000000Y-92051362D01*
X66000000Y-102500000D01*
X69000000Y-105403772D01*
X72500000Y-105500000D01*
X73463681Y-104536319D01*
X73525004Y-104502834D01*
X73551362Y-104500000D01*
X102375500Y-104500000D01*
X102442539Y-104519685D01*
X102488294Y-104572489D01*
X102499500Y-104624000D01*
X102499500Y-129375500D01*
X102479815Y-129442539D01*
X102427011Y-129488294D01*
X102375500Y-129499500D01*
X60624500Y-129499500D01*
X60557461Y-129479815D01*
X60511706Y-129427011D01*
X60500500Y-129375500D01*
X60500500Y-126881902D01*
X61499500Y-126881902D01*
X61499500Y-127118097D01*
X61536446Y-127351368D01*
X61609433Y-127575996D01*
X61716657Y-127786433D01*
X61855483Y-127977510D01*
X62022490Y-128144517D01*
X62213567Y-128283343D01*
X62312991Y-128334002D01*
X62424003Y-128390566D01*
X62424005Y-128390566D01*
X62424008Y-128390568D01*
X62544412Y-128429689D01*
X62648631Y-128463553D01*
X62881903Y-128500500D01*
X62881908Y-128500500D01*
X63118097Y-128500500D01*
X63351368Y-128463553D01*
X63575992Y-128390568D01*
X63786433Y-128283343D01*
X63977510Y-128144517D01*
X64144517Y-127977510D01*
X64283343Y-127786433D01*
X64390568Y-127575992D01*
X64463553Y-127351368D01*
X64500500Y-127118097D01*
X64500500Y-126881902D01*
X98499500Y-126881902D01*
X98499500Y-127118097D01*
X98536446Y-127351368D01*
X98609433Y-127575996D01*
X98716657Y-127786433D01*
X98855483Y-127977510D01*
X99022490Y-128144517D01*
X99213567Y-128283343D01*
X99312991Y-128334002D01*
X99424003Y-128390566D01*
X99424005Y-128390566D01*
X99424008Y-128390568D01*
X99544412Y-128429689D01*
X99648631Y-128463553D01*
X99881903Y-128500500D01*
X99881908Y-128500500D01*
X100118097Y-128500500D01*
X100351368Y-128463553D01*
X100575992Y-128390568D01*
X100786433Y-128283343D01*
X100977510Y-128144517D01*
X101144517Y-127977510D01*
X101283343Y-127786433D01*
X101390568Y-127575992D01*
X101463553Y-127351368D01*
X101500500Y-127118097D01*
X101500500Y-126881902D01*
X101463553Y-126648631D01*
X101390566Y-126424003D01*
X101283342Y-126213566D01*
X101144517Y-126022490D01*
X100977510Y-125855483D01*
X100786433Y-125716657D01*
X100575996Y-125609433D01*
X100351368Y-125536446D01*
X100118097Y-125499500D01*
X100118092Y-125499500D01*
X99881908Y-125499500D01*
X99881903Y-125499500D01*
X99648631Y-125536446D01*
X99424003Y-125609433D01*
X99213566Y-125716657D01*
X99104550Y-125795862D01*
X99022490Y-125855483D01*
X99022488Y-125855485D01*
X99022487Y-125855485D01*
X98855485Y-126022487D01*
X98855485Y-126022488D01*
X98855483Y-126022490D01*
X98795862Y-126104550D01*
X98716657Y-126213566D01*
X98609433Y-126424003D01*
X98536446Y-126648631D01*
X98499500Y-126881902D01*
X64500500Y-126881902D01*
X64463553Y-126648631D01*
X64390566Y-126424003D01*
X64283342Y-126213566D01*
X64144517Y-126022490D01*
X63977510Y-125855483D01*
X63786433Y-125716657D01*
X63575996Y-125609433D01*
X63351368Y-125536446D01*
X63118097Y-125499500D01*
X63118092Y-125499500D01*
X62881908Y-125499500D01*
X62881903Y-125499500D01*
X62648631Y-125536446D01*
X62424003Y-125609433D01*
X62213566Y-125716657D01*
X62104550Y-125795862D01*
X62022490Y-125855483D01*
X62022488Y-125855485D01*
X62022487Y-125855485D01*
X61855485Y-126022487D01*
X61855485Y-126022488D01*
X61855483Y-126022490D01*
X61795862Y-126104550D01*
X61716657Y-126213566D01*
X61609433Y-126424003D01*
X61536446Y-126648631D01*
X61499500Y-126881902D01*
X60500500Y-126881902D01*
X60500500Y-124924234D01*
X78034500Y-124924234D01*
X78034500Y-125075765D01*
X78073719Y-125222136D01*
X78111602Y-125287750D01*
X78149485Y-125353365D01*
X78256635Y-125460515D01*
X78387865Y-125536281D01*
X78534234Y-125575500D01*
X78534236Y-125575500D01*
X78685764Y-125575500D01*
X78685766Y-125575500D01*
X78832135Y-125536281D01*
X78963365Y-125460515D01*
X79070515Y-125353365D01*
X79146281Y-125222135D01*
X79185500Y-125075766D01*
X79185500Y-124924234D01*
X83814500Y-124924234D01*
X83814500Y-125075765D01*
X83853719Y-125222136D01*
X83891602Y-125287750D01*
X83929485Y-125353365D01*
X84036635Y-125460515D01*
X84167865Y-125536281D01*
X84314234Y-125575500D01*
X84314236Y-125575500D01*
X84465764Y-125575500D01*
X84465766Y-125575500D01*
X84612135Y-125536281D01*
X84743365Y-125460515D01*
X84850515Y-125353365D01*
X84926281Y-125222135D01*
X84965500Y-125075766D01*
X84965500Y-124924234D01*
X84926281Y-124777865D01*
X84850515Y-124646635D01*
X84743365Y-124539485D01*
X84677750Y-124501602D01*
X84612136Y-124463719D01*
X84538950Y-124444109D01*
X84465766Y-124424500D01*
X84314234Y-124424500D01*
X84167863Y-124463719D01*
X84036635Y-124539485D01*
X84036632Y-124539487D01*
X83929487Y-124646632D01*
X83929485Y-124646635D01*
X83853719Y-124777863D01*
X83814500Y-124924234D01*
X79185500Y-124924234D01*
X79146281Y-124777865D01*
X79070515Y-124646635D01*
X78963365Y-124539485D01*
X78897750Y-124501602D01*
X78832136Y-124463719D01*
X78758950Y-124444109D01*
X78685766Y-124424500D01*
X78534234Y-124424500D01*
X78387863Y-124463719D01*
X78256635Y-124539485D01*
X78256632Y-124539487D01*
X78149487Y-124646632D01*
X78149485Y-124646635D01*
X78073719Y-124777863D01*
X78034500Y-124924234D01*
X60500500Y-124924234D01*
X60500500Y-122421153D01*
X78189500Y-122421153D01*
X78189500Y-122578846D01*
X78220261Y-122733489D01*
X78220264Y-122733501D01*
X78280602Y-122879172D01*
X78280609Y-122879185D01*
X78368210Y-123010288D01*
X78368213Y-123010292D01*
X78479707Y-123121786D01*
X78479711Y-123121789D01*
X78610814Y-123209390D01*
X78610827Y-123209397D01*
X78710060Y-123250500D01*
X78756503Y-123269737D01*
X78911153Y-123300499D01*
X78911156Y-123300500D01*
X78911158Y-123300500D01*
X79068844Y-123300500D01*
X79068845Y-123300499D01*
X79145152Y-123285320D01*
X79223488Y-123269739D01*
X79223489Y-123269738D01*
X79223497Y-123269737D01*
X79247155Y-123259937D01*
X79294604Y-123250500D01*
X83485396Y-123250500D01*
X83532844Y-123259937D01*
X83556503Y-123269737D01*
X83556508Y-123269738D01*
X83556511Y-123269739D01*
X83711153Y-123300499D01*
X83711156Y-123300500D01*
X83711158Y-123300500D01*
X83868844Y-123300500D01*
X83868845Y-123300499D01*
X84023497Y-123269737D01*
X84169179Y-123209394D01*
X84300289Y-123121789D01*
X84411789Y-123010289D01*
X84499394Y-122879179D01*
X84559737Y-122733497D01*
X84590500Y-122578842D01*
X84590500Y-122421158D01*
X84590500Y-122421155D01*
X84590499Y-122421153D01*
X84559738Y-122266510D01*
X84559737Y-122266503D01*
X84499794Y-122121786D01*
X84499397Y-122120827D01*
X84499390Y-122120814D01*
X84411789Y-121989711D01*
X84411786Y-121989707D01*
X84300292Y-121878213D01*
X84300288Y-121878210D01*
X84169185Y-121790609D01*
X84169172Y-121790602D01*
X84023501Y-121730264D01*
X84023489Y-121730261D01*
X83868845Y-121699500D01*
X83868842Y-121699500D01*
X83711158Y-121699500D01*
X83711155Y-121699500D01*
X83556511Y-121730260D01*
X83556506Y-121730262D01*
X83556504Y-121730262D01*
X83556503Y-121730263D01*
X83532844Y-121740062D01*
X83485396Y-121749500D01*
X79294604Y-121749500D01*
X79247155Y-121740062D01*
X79223497Y-121730263D01*
X79223493Y-121730262D01*
X79223488Y-121730260D01*
X79068845Y-121699500D01*
X79068842Y-121699500D01*
X78911158Y-121699500D01*
X78911155Y-121699500D01*
X78756510Y-121730261D01*
X78756498Y-121730264D01*
X78610827Y-121790602D01*
X78610814Y-121790609D01*
X78479711Y-121878210D01*
X78479707Y-121878213D01*
X78368213Y-121989707D01*
X78368210Y-121989711D01*
X78280609Y-122120814D01*
X78280602Y-122120827D01*
X78220264Y-122266498D01*
X78220261Y-122266510D01*
X78189500Y-122421153D01*
X60500500Y-122421153D01*
X60500500Y-119214783D01*
X60520185Y-119147744D01*
X60572989Y-119101989D01*
X60642147Y-119092045D01*
X60705703Y-119121070D01*
X60712179Y-119127100D01*
X62065598Y-120480520D01*
X62065600Y-120480521D01*
X62065604Y-120480524D01*
X62202523Y-120559573D01*
X62202530Y-120559577D01*
X62355257Y-120600501D01*
X62355259Y-120600501D01*
X62520968Y-120600501D01*
X62520984Y-120600500D01*
X65449903Y-120600500D01*
X65516942Y-120620185D01*
X65537584Y-120636819D01*
X66765139Y-121864374D01*
X66765149Y-121864385D01*
X66769479Y-121868715D01*
X66769480Y-121868716D01*
X66881284Y-121980520D01*
X66881286Y-121980521D01*
X66881290Y-121980524D01*
X67018209Y-122059573D01*
X67018216Y-122059577D01*
X67130019Y-122089534D01*
X67170942Y-122100500D01*
X67170943Y-122100500D01*
X75670234Y-122100500D01*
X75737273Y-122120185D01*
X75739125Y-122121398D01*
X75870814Y-122209390D01*
X75870827Y-122209397D01*
X76008683Y-122266498D01*
X76016503Y-122269737D01*
X76171153Y-122300499D01*
X76171156Y-122300500D01*
X76171158Y-122300500D01*
X76328844Y-122300500D01*
X76328845Y-122300499D01*
X76339179Y-122298443D01*
X76364287Y-122293450D01*
X76364292Y-122293449D01*
X76449800Y-122276439D01*
X76483497Y-122269737D01*
X76629179Y-122209394D01*
X76760289Y-122121789D01*
X76871789Y-122010289D01*
X76959394Y-121879179D01*
X77019737Y-121733497D01*
X77050500Y-121578842D01*
X77050500Y-121421158D01*
X77046031Y-121398690D01*
X77052260Y-121329099D01*
X77095123Y-121273922D01*
X77161013Y-121250678D01*
X77167649Y-121250500D01*
X78823920Y-121250500D01*
X78921462Y-121231096D01*
X78968913Y-121221658D01*
X79105495Y-121165084D01*
X79170291Y-121121789D01*
X79228416Y-121082952D01*
X79318561Y-120992804D01*
X79322030Y-120989816D01*
X79330196Y-120986113D01*
X79355521Y-120969192D01*
X79379179Y-120959394D01*
X79510289Y-120871789D01*
X79621789Y-120760289D01*
X79709394Y-120629179D01*
X79769737Y-120483497D01*
X79800500Y-120328842D01*
X79800500Y-120171158D01*
X79800500Y-120171155D01*
X79800499Y-120171153D01*
X79769737Y-120016503D01*
X79769735Y-120016498D01*
X79709397Y-119870827D01*
X79709390Y-119870814D01*
X79621789Y-119739711D01*
X79621786Y-119739707D01*
X79521860Y-119639781D01*
X91849500Y-119639781D01*
X91849500Y-119860224D01*
X91883985Y-120077955D01*
X91952103Y-120287606D01*
X91952104Y-120287609D01*
X92020122Y-120421099D01*
X92050401Y-120480524D01*
X92052187Y-120484028D01*
X92181752Y-120662361D01*
X92181756Y-120662366D01*
X92337636Y-120818246D01*
X92337641Y-120818250D01*
X92411332Y-120871789D01*
X92515978Y-120947818D01*
X92644375Y-121013240D01*
X92712393Y-121047898D01*
X92712396Y-121047899D01*
X92817221Y-121081958D01*
X92922049Y-121116018D01*
X93139778Y-121150503D01*
X93139779Y-121150503D01*
X93360221Y-121150503D01*
X93360222Y-121150503D01*
X93577951Y-121116018D01*
X93787606Y-121047898D01*
X93984022Y-120947818D01*
X94162365Y-120818245D01*
X94318242Y-120662368D01*
X94447815Y-120484025D01*
X94547895Y-120287609D01*
X94616015Y-120077954D01*
X94650500Y-119860225D01*
X94650500Y-119639781D01*
X94616015Y-119422052D01*
X94550630Y-119220814D01*
X94547896Y-119212399D01*
X94547895Y-119212396D01*
X94513237Y-119144378D01*
X94447815Y-119015981D01*
X94387887Y-118933497D01*
X94318247Y-118837644D01*
X94318243Y-118837639D01*
X94162363Y-118681759D01*
X94162358Y-118681755D01*
X93984025Y-118552190D01*
X93984024Y-118552189D01*
X93984022Y-118552188D01*
X93892369Y-118505488D01*
X93787606Y-118452107D01*
X93787603Y-118452106D01*
X93577952Y-118383988D01*
X93469086Y-118366745D01*
X93360222Y-118349503D01*
X93139778Y-118349503D01*
X93067201Y-118360998D01*
X92922047Y-118383988D01*
X92712396Y-118452106D01*
X92712393Y-118452107D01*
X92515974Y-118552190D01*
X92337641Y-118681755D01*
X92337636Y-118681759D01*
X92181756Y-118837639D01*
X92181752Y-118837644D01*
X92052187Y-119015977D01*
X91952104Y-119212396D01*
X91952103Y-119212399D01*
X91883985Y-119422050D01*
X91849500Y-119639781D01*
X79521860Y-119639781D01*
X79510292Y-119628213D01*
X79510288Y-119628210D01*
X79379185Y-119540609D01*
X79379172Y-119540602D01*
X79233501Y-119480264D01*
X79233489Y-119480261D01*
X79078845Y-119449500D01*
X79078842Y-119449500D01*
X78921158Y-119449500D01*
X78921155Y-119449500D01*
X78766510Y-119480261D01*
X78766498Y-119480264D01*
X78620827Y-119540602D01*
X78620814Y-119540609D01*
X78489712Y-119628209D01*
X78447227Y-119670695D01*
X78404739Y-119713182D01*
X78343419Y-119746666D01*
X78317060Y-119749500D01*
X77174500Y-119749500D01*
X77107461Y-119729815D01*
X77061706Y-119677011D01*
X77050500Y-119625500D01*
X77050500Y-119521155D01*
X77050499Y-119521153D01*
X77040271Y-119469735D01*
X77019737Y-119366503D01*
X77019735Y-119366498D01*
X76959397Y-119220827D01*
X76959390Y-119220814D01*
X76871789Y-119089711D01*
X76871786Y-119089707D01*
X76760292Y-118978213D01*
X76760288Y-118978210D01*
X76629185Y-118890609D01*
X76629172Y-118890602D01*
X76483501Y-118830264D01*
X76483489Y-118830261D01*
X76328845Y-118799500D01*
X76328842Y-118799500D01*
X76171158Y-118799500D01*
X76171155Y-118799500D01*
X76016510Y-118830261D01*
X76016498Y-118830264D01*
X75870827Y-118890602D01*
X75870814Y-118890609D01*
X75739125Y-118978602D01*
X75672447Y-118999480D01*
X75670234Y-118999500D01*
X62900098Y-118999500D01*
X62833059Y-118979815D01*
X62812417Y-118963181D01*
X61636819Y-117787583D01*
X61603334Y-117726260D01*
X61600500Y-117699902D01*
X61600500Y-114921153D01*
X82599500Y-114921153D01*
X82599500Y-115078846D01*
X82630261Y-115233489D01*
X82630263Y-115233497D01*
X82640061Y-115257151D01*
X82649500Y-115304604D01*
X82649500Y-118223918D01*
X82649500Y-118223920D01*
X82649499Y-118223920D01*
X82678340Y-118368907D01*
X82678343Y-118368917D01*
X82734912Y-118505488D01*
X82734916Y-118505495D01*
X82754229Y-118534399D01*
X82754230Y-118534402D01*
X82817046Y-118628414D01*
X82817052Y-118628421D01*
X83267805Y-119079172D01*
X83367048Y-119178415D01*
X83367049Y-119178416D01*
X83471584Y-119282951D01*
X83471585Y-119282952D01*
X83594498Y-119365080D01*
X83594511Y-119365087D01*
X83701469Y-119409390D01*
X83731087Y-119421658D01*
X83731091Y-119421658D01*
X83731092Y-119421659D01*
X83876079Y-119450500D01*
X83876082Y-119450500D01*
X84945396Y-119450500D01*
X84992844Y-119459937D01*
X85016503Y-119469737D01*
X85016508Y-119469738D01*
X85016511Y-119469739D01*
X85171153Y-119500499D01*
X85171156Y-119500500D01*
X85171158Y-119500500D01*
X85328844Y-119500500D01*
X85328845Y-119500499D01*
X85483497Y-119469737D01*
X85629179Y-119409394D01*
X85760289Y-119321789D01*
X85871789Y-119210289D01*
X85959394Y-119079179D01*
X86019737Y-118933497D01*
X86050500Y-118778842D01*
X86050500Y-118621158D01*
X86050500Y-118621155D01*
X86050499Y-118621153D01*
X86027493Y-118505495D01*
X86019737Y-118466503D01*
X86019735Y-118466498D01*
X85959397Y-118320827D01*
X85959390Y-118320814D01*
X85871789Y-118189711D01*
X85871786Y-118189707D01*
X85760292Y-118078213D01*
X85760288Y-118078210D01*
X85629185Y-117990609D01*
X85629172Y-117990602D01*
X85483501Y-117930264D01*
X85483489Y-117930261D01*
X85328845Y-117899500D01*
X85328842Y-117899500D01*
X85171158Y-117899500D01*
X85171155Y-117899500D01*
X85016511Y-117930260D01*
X85016506Y-117930262D01*
X85016504Y-117930262D01*
X85016503Y-117930263D01*
X84992844Y-117940062D01*
X84945396Y-117949500D01*
X84312230Y-117949500D01*
X84282785Y-117940854D01*
X84252802Y-117934331D01*
X84247788Y-117930577D01*
X84245191Y-117929815D01*
X84224548Y-117913180D01*
X84186818Y-117875449D01*
X84153333Y-117814125D01*
X84150500Y-117787769D01*
X84150500Y-115304604D01*
X84159939Y-115257151D01*
X84169737Y-115233497D01*
X84200500Y-115078842D01*
X84200500Y-114921158D01*
X84200500Y-114921155D01*
X84200499Y-114921153D01*
X84169738Y-114766510D01*
X84169737Y-114766503D01*
X84169735Y-114766498D01*
X84109397Y-114620827D01*
X84109390Y-114620814D01*
X84021789Y-114489711D01*
X84021786Y-114489707D01*
X83910292Y-114378213D01*
X83910288Y-114378210D01*
X83779185Y-114290609D01*
X83779172Y-114290602D01*
X83633501Y-114230264D01*
X83633489Y-114230261D01*
X83478845Y-114199500D01*
X83478842Y-114199500D01*
X83321158Y-114199500D01*
X83321155Y-114199500D01*
X83166510Y-114230261D01*
X83166498Y-114230264D01*
X83020827Y-114290602D01*
X83020814Y-114290609D01*
X82889711Y-114378210D01*
X82889707Y-114378213D01*
X82778213Y-114489707D01*
X82778210Y-114489711D01*
X82690609Y-114620814D01*
X82690602Y-114620827D01*
X82630264Y-114766498D01*
X82630261Y-114766510D01*
X82599500Y-114921153D01*
X61600500Y-114921153D01*
X61600500Y-111249097D01*
X61620185Y-111182058D01*
X61672989Y-111136303D01*
X61742147Y-111126359D01*
X61805703Y-111155384D01*
X61812181Y-111161416D01*
X62015139Y-111364374D01*
X62015149Y-111364385D01*
X62019479Y-111368715D01*
X62019480Y-111368716D01*
X62131284Y-111480520D01*
X62131286Y-111480521D01*
X62131290Y-111480524D01*
X62182786Y-111510255D01*
X62182791Y-111510257D01*
X62268209Y-111559574D01*
X62268210Y-111559575D01*
X62268212Y-111559575D01*
X62268215Y-111559577D01*
X62420943Y-111600501D01*
X62420946Y-111600501D01*
X62586653Y-111600501D01*
X62586669Y-111600500D01*
X91077379Y-111600500D01*
X91144418Y-111620185D01*
X91190173Y-111672989D01*
X91199817Y-111740067D01*
X91200097Y-111740095D01*
X91199985Y-111741230D01*
X91200117Y-111742147D01*
X91199594Y-111745197D01*
X91199500Y-111746157D01*
X91199500Y-111903846D01*
X91230261Y-112058489D01*
X91230263Y-112058497D01*
X91240061Y-112082151D01*
X91249500Y-112129604D01*
X91249500Y-115573918D01*
X91249500Y-115573920D01*
X91249499Y-115573920D01*
X91278340Y-115718907D01*
X91278343Y-115718917D01*
X91334913Y-115855490D01*
X91334914Y-115855492D01*
X91360982Y-115894505D01*
X91360983Y-115894507D01*
X91417045Y-115978414D01*
X91417049Y-115978418D01*
X92167049Y-116728416D01*
X92226236Y-116787603D01*
X92271585Y-116832952D01*
X92394498Y-116915080D01*
X92394511Y-116915087D01*
X92531082Y-116971656D01*
X92531087Y-116971658D01*
X92531091Y-116971658D01*
X92531092Y-116971659D01*
X92676079Y-117000500D01*
X92676082Y-117000500D01*
X97000976Y-117000500D01*
X97068015Y-117020185D01*
X97101295Y-117051616D01*
X97181754Y-117162361D01*
X97337636Y-117318243D01*
X97337641Y-117318247D01*
X97493192Y-117431260D01*
X97515978Y-117447815D01*
X97644375Y-117513237D01*
X97712393Y-117547895D01*
X97712396Y-117547896D01*
X97817221Y-117581955D01*
X97922049Y-117616015D01*
X98139778Y-117650500D01*
X98139779Y-117650500D01*
X98360221Y-117650500D01*
X98360222Y-117650500D01*
X98577951Y-117616015D01*
X98787606Y-117547895D01*
X98984022Y-117447815D01*
X99162365Y-117318242D01*
X99318242Y-117162365D01*
X99447815Y-116984022D01*
X99547895Y-116787606D01*
X99616015Y-116577951D01*
X99650500Y-116360222D01*
X99650500Y-116139778D01*
X99616015Y-115922049D01*
X99581955Y-115817221D01*
X99547896Y-115712396D01*
X99547895Y-115712393D01*
X99477337Y-115573918D01*
X99447815Y-115515978D01*
X99409456Y-115463181D01*
X99318247Y-115337641D01*
X99318243Y-115337636D01*
X99162363Y-115181756D01*
X99162358Y-115181752D01*
X98984025Y-115052187D01*
X98984024Y-115052186D01*
X98984022Y-115052185D01*
X98921096Y-115020122D01*
X98787606Y-114952104D01*
X98787603Y-114952103D01*
X98577952Y-114883985D01*
X98469086Y-114866742D01*
X98360222Y-114849500D01*
X98139778Y-114849500D01*
X98067201Y-114860995D01*
X97922047Y-114883985D01*
X97712396Y-114952103D01*
X97712393Y-114952104D01*
X97515974Y-115052187D01*
X97337641Y-115181752D01*
X97337636Y-115181756D01*
X97181754Y-115337638D01*
X97101295Y-115448384D01*
X97045965Y-115491051D01*
X97000976Y-115499500D01*
X93112229Y-115499500D01*
X93045190Y-115479815D01*
X93024548Y-115463181D01*
X92786819Y-115225451D01*
X92753334Y-115164128D01*
X92750500Y-115137770D01*
X92750500Y-112129604D01*
X92759939Y-112082151D01*
X92769737Y-112058497D01*
X92800500Y-111903842D01*
X92800500Y-111746158D01*
X92800500Y-111746157D01*
X92799903Y-111740095D01*
X92801792Y-111739908D01*
X92807227Y-111679111D01*
X92850085Y-111623929D01*
X92915972Y-111600678D01*
X92922621Y-111600500D01*
X94825500Y-111600500D01*
X94892539Y-111620185D01*
X94938294Y-111672989D01*
X94949500Y-111724500D01*
X94949500Y-111778846D01*
X94980261Y-111933489D01*
X94980264Y-111933501D01*
X95040602Y-112079172D01*
X95040609Y-112079185D01*
X95128210Y-112210288D01*
X95128213Y-112210292D01*
X95239707Y-112321786D01*
X95239711Y-112321789D01*
X95370814Y-112409390D01*
X95370827Y-112409397D01*
X95516498Y-112469735D01*
X95516503Y-112469737D01*
X95671153Y-112500499D01*
X95671156Y-112500500D01*
X95671158Y-112500500D01*
X95828844Y-112500500D01*
X95828845Y-112500499D01*
X95983497Y-112469737D01*
X96129179Y-112409394D01*
X96260289Y-112321789D01*
X96371789Y-112210289D01*
X96459394Y-112079179D01*
X96519737Y-111933497D01*
X96550500Y-111778842D01*
X96550500Y-111621158D01*
X96550500Y-111621155D01*
X96550499Y-111621153D01*
X96519738Y-111466510D01*
X96519737Y-111466503D01*
X96479233Y-111368716D01*
X96459397Y-111320827D01*
X96459390Y-111320814D01*
X96371789Y-111189711D01*
X96367924Y-111185001D01*
X96369069Y-111184061D01*
X96340977Y-111135404D01*
X96337797Y-111123535D01*
X96309577Y-111018216D01*
X96270040Y-110949735D01*
X96230524Y-110881290D01*
X96230521Y-110881286D01*
X96230520Y-110881284D01*
X96118716Y-110769480D01*
X96118715Y-110769479D01*
X96114385Y-110765149D01*
X96114374Y-110765139D01*
X95987590Y-110638355D01*
X95987588Y-110638352D01*
X95868717Y-110519481D01*
X95868716Y-110519480D01*
X95764960Y-110459577D01*
X95764959Y-110459576D01*
X95731783Y-110440422D01*
X95675881Y-110425443D01*
X95579057Y-110399499D01*
X95420943Y-110399499D01*
X95413347Y-110399499D01*
X95413331Y-110399500D01*
X62800097Y-110399500D01*
X62733058Y-110379815D01*
X62712416Y-110363181D01*
X62036819Y-109687584D01*
X62003334Y-109626261D01*
X62000500Y-109599903D01*
X62000500Y-63965783D01*
X62020185Y-63898744D01*
X62036819Y-63878102D01*
X63228102Y-62686819D01*
X63289425Y-62653334D01*
X63315783Y-62650500D01*
X70499903Y-62650500D01*
X70566942Y-62670185D01*
G37*
G04 #@! TD.AperFunction*
G04 #@! TA.AperFunction,Conductor*
G36*
X102442539Y-40520185D02*
G01*
X102488294Y-40572989D01*
X102499500Y-40624500D01*
X102499500Y-78876000D01*
X102479815Y-78943039D01*
X102427011Y-78988794D01*
X102375500Y-79000000D01*
X93557032Y-79000000D01*
X93489993Y-78980315D01*
X93462884Y-78956698D01*
X93246503Y-78704254D01*
X90500000Y-75500000D01*
X90499999Y-75500000D01*
X70499999Y-75500000D01*
X67183872Y-78816127D01*
X67122549Y-78849612D01*
X67052857Y-78844628D01*
X66996924Y-78802756D01*
X66972507Y-78737292D01*
X66974574Y-78704254D01*
X67000500Y-78573920D01*
X67000500Y-74054604D01*
X67009939Y-74007151D01*
X67019737Y-73983497D01*
X67050500Y-73828842D01*
X67050500Y-73671158D01*
X67050500Y-73671155D01*
X67050499Y-73671153D01*
X67019738Y-73516510D01*
X67019737Y-73516503D01*
X67019735Y-73516498D01*
X66959397Y-73370827D01*
X66959390Y-73370814D01*
X66871789Y-73239711D01*
X66871786Y-73239707D01*
X66760292Y-73128213D01*
X66760288Y-73128210D01*
X66629185Y-73040609D01*
X66629172Y-73040602D01*
X66483501Y-72980264D01*
X66483489Y-72980261D01*
X66328845Y-72949500D01*
X66328842Y-72949500D01*
X66171158Y-72949500D01*
X66171155Y-72949500D01*
X66016510Y-72980261D01*
X66016498Y-72980264D01*
X65870827Y-73040602D01*
X65870809Y-73040612D01*
X65793390Y-73092342D01*
X65726713Y-73113220D01*
X65659333Y-73094735D01*
X65612643Y-73042756D01*
X65600500Y-72989240D01*
X65600500Y-71136555D01*
X65620185Y-71069516D01*
X65672989Y-71023761D01*
X65742147Y-71013817D01*
X65760411Y-71018840D01*
X65760676Y-71017969D01*
X65766492Y-71019732D01*
X65766503Y-71019737D01*
X65921153Y-71050499D01*
X65921156Y-71050500D01*
X65921158Y-71050500D01*
X66078844Y-71050500D01*
X66078845Y-71050499D01*
X66233497Y-71019737D01*
X66379179Y-70959394D01*
X66379185Y-70959390D01*
X66510875Y-70871398D01*
X66577553Y-70850520D01*
X66579766Y-70850500D01*
X68761860Y-70850500D01*
X68761876Y-70850501D01*
X68769472Y-70850501D01*
X68927583Y-70850501D01*
X68927586Y-70850501D01*
X69080314Y-70809577D01*
X69130433Y-70780639D01*
X69217245Y-70730520D01*
X69307984Y-70639781D01*
X91849500Y-70639781D01*
X91849500Y-70860224D01*
X91883985Y-71077955D01*
X91952103Y-71287606D01*
X91952104Y-71287609D01*
X92052187Y-71484028D01*
X92181752Y-71662361D01*
X92181756Y-71662366D01*
X92337636Y-71818246D01*
X92337641Y-71818250D01*
X92493192Y-71931263D01*
X92515978Y-71947818D01*
X92644375Y-72013240D01*
X92712393Y-72047898D01*
X92712396Y-72047899D01*
X92817221Y-72081958D01*
X92922049Y-72116018D01*
X93139778Y-72150503D01*
X93139779Y-72150503D01*
X93360221Y-72150503D01*
X93360222Y-72150503D01*
X93577951Y-72116018D01*
X93787606Y-72047898D01*
X93984022Y-71947818D01*
X94162365Y-71818245D01*
X94318242Y-71662368D01*
X94447815Y-71484025D01*
X94547895Y-71287609D01*
X94616015Y-71077954D01*
X94650500Y-70860225D01*
X94650500Y-70639781D01*
X94616015Y-70422052D01*
X94547895Y-70212397D01*
X94547895Y-70212396D01*
X94513237Y-70144378D01*
X94447815Y-70015981D01*
X94431260Y-69993195D01*
X94318247Y-69837644D01*
X94318243Y-69837639D01*
X94162363Y-69681759D01*
X94162358Y-69681755D01*
X93984025Y-69552190D01*
X93984024Y-69552189D01*
X93984022Y-69552188D01*
X93921096Y-69520125D01*
X93787606Y-69452107D01*
X93787603Y-69452106D01*
X93577952Y-69383988D01*
X93448242Y-69363444D01*
X93360222Y-69349503D01*
X93139778Y-69349503D01*
X93067201Y-69360998D01*
X92922047Y-69383988D01*
X92712396Y-69452106D01*
X92712393Y-69452107D01*
X92515974Y-69552190D01*
X92337641Y-69681755D01*
X92337636Y-69681759D01*
X92181756Y-69837639D01*
X92181752Y-69837644D01*
X92052187Y-70015977D01*
X91952104Y-70212396D01*
X91952103Y-70212399D01*
X91883985Y-70422050D01*
X91849500Y-70639781D01*
X69307984Y-70639781D01*
X69329049Y-70618716D01*
X69329049Y-70618714D01*
X69339257Y-70608507D01*
X69339259Y-70608504D01*
X72807985Y-67139778D01*
X96849500Y-67139778D01*
X96849500Y-67360221D01*
X96883985Y-67577952D01*
X96952103Y-67787603D01*
X96952104Y-67787606D01*
X97052187Y-67984025D01*
X97181752Y-68162358D01*
X97181756Y-68162363D01*
X97337636Y-68318243D01*
X97337641Y-68318247D01*
X97493192Y-68431260D01*
X97515978Y-68447815D01*
X97644375Y-68513237D01*
X97712393Y-68547895D01*
X97712396Y-68547896D01*
X97817221Y-68581955D01*
X97922049Y-68616015D01*
X98139778Y-68650500D01*
X98139779Y-68650500D01*
X98360221Y-68650500D01*
X98360222Y-68650500D01*
X98577951Y-68616015D01*
X98787606Y-68547895D01*
X98984022Y-68447815D01*
X99162365Y-68318242D01*
X99318242Y-68162365D01*
X99447815Y-67984022D01*
X99547895Y-67787606D01*
X99616015Y-67577951D01*
X99650500Y-67360222D01*
X99650500Y-67139778D01*
X99616015Y-66922049D01*
X99547895Y-66712394D01*
X99547895Y-66712393D01*
X99479846Y-66578842D01*
X99447815Y-66515978D01*
X99378925Y-66421158D01*
X99318247Y-66337641D01*
X99318243Y-66337636D01*
X99162363Y-66181756D01*
X99162358Y-66181752D01*
X98984025Y-66052187D01*
X98984024Y-66052186D01*
X98984022Y-66052185D01*
X98921096Y-66020122D01*
X98787606Y-65952104D01*
X98787603Y-65952103D01*
X98577952Y-65883985D01*
X98469086Y-65866742D01*
X98360222Y-65849500D01*
X98139778Y-65849500D01*
X98067201Y-65860995D01*
X97922047Y-65883985D01*
X97712396Y-65952103D01*
X97712393Y-65952104D01*
X97515974Y-66052187D01*
X97337641Y-66181752D01*
X97337636Y-66181756D01*
X97181756Y-66337636D01*
X97181752Y-66337641D01*
X97052187Y-66515974D01*
X96952104Y-66712393D01*
X96952103Y-66712396D01*
X96883985Y-66922047D01*
X96849500Y-67139778D01*
X72807985Y-67139778D01*
X76358506Y-63589257D01*
X76358511Y-63589253D01*
X76368714Y-63579049D01*
X76368716Y-63579049D01*
X76480520Y-63467245D01*
X76537405Y-63368716D01*
X76559577Y-63330314D01*
X76600500Y-63177587D01*
X76600500Y-63019472D01*
X76600500Y-61579765D01*
X76620185Y-61512726D01*
X76621398Y-61510874D01*
X76709390Y-61379185D01*
X76709390Y-61379184D01*
X76709394Y-61379179D01*
X76712854Y-61370827D01*
X76767163Y-61239711D01*
X76769737Y-61233497D01*
X76800500Y-61078842D01*
X76800500Y-60921158D01*
X76800500Y-60921155D01*
X76800499Y-60921153D01*
X76769738Y-60766510D01*
X76769738Y-60766508D01*
X76769737Y-60766503D01*
X76730242Y-60671153D01*
X76709397Y-60620827D01*
X76709390Y-60620814D01*
X76621789Y-60489711D01*
X76621786Y-60489707D01*
X76510292Y-60378213D01*
X76510288Y-60378210D01*
X76379185Y-60290609D01*
X76379172Y-60290602D01*
X76233501Y-60230264D01*
X76233489Y-60230261D01*
X76078845Y-60199500D01*
X76078842Y-60199500D01*
X75921158Y-60199500D01*
X75921155Y-60199500D01*
X75766510Y-60230261D01*
X75766498Y-60230264D01*
X75620827Y-60290602D01*
X75620814Y-60290609D01*
X75489711Y-60378210D01*
X75489707Y-60378213D01*
X75378213Y-60489707D01*
X75378210Y-60489711D01*
X75290609Y-60620814D01*
X75290602Y-60620827D01*
X75230264Y-60766498D01*
X75230261Y-60766508D01*
X75210961Y-60863536D01*
X75178576Y-60925447D01*
X75117860Y-60960021D01*
X75113536Y-60960961D01*
X75016508Y-60980261D01*
X75016498Y-60980264D01*
X74870827Y-61040602D01*
X74870814Y-61040609D01*
X74739711Y-61128210D01*
X74739707Y-61128213D01*
X74628213Y-61239707D01*
X74628210Y-61239711D01*
X74540609Y-61370814D01*
X74540602Y-61370827D01*
X74480264Y-61516498D01*
X74480261Y-61516508D01*
X74449362Y-61671848D01*
X74416977Y-61733759D01*
X74415426Y-61735337D01*
X72679443Y-63471320D01*
X72618120Y-63504805D01*
X72548428Y-63499821D01*
X72492495Y-63457949D01*
X72468078Y-63392485D01*
X72477200Y-63336190D01*
X72519737Y-63233497D01*
X72550500Y-63078842D01*
X72550500Y-62921158D01*
X72550500Y-62921155D01*
X72550499Y-62921153D01*
X72519738Y-62766510D01*
X72519737Y-62766503D01*
X72479841Y-62670185D01*
X72459397Y-62620827D01*
X72459390Y-62620814D01*
X72374582Y-62493891D01*
X72353704Y-62427214D01*
X72372188Y-62359834D01*
X72374582Y-62356109D01*
X72459390Y-62229185D01*
X72459390Y-62229184D01*
X72459394Y-62229179D01*
X72519737Y-62083497D01*
X72550500Y-61928842D01*
X72550500Y-61899230D01*
X72553881Y-61887714D01*
X72552740Y-61875765D01*
X72563544Y-61854807D01*
X72570185Y-61832191D01*
X72580054Y-61822780D01*
X72584755Y-61813662D01*
X72612494Y-61791846D01*
X72648328Y-61771158D01*
X72718716Y-61730520D01*
X72830520Y-61618716D01*
X72830521Y-61618714D01*
X72864662Y-61584572D01*
X72925983Y-61551089D01*
X72928150Y-61550638D01*
X72986085Y-61539113D01*
X73083497Y-61519737D01*
X73229179Y-61459394D01*
X73360289Y-61371789D01*
X73471789Y-61260289D01*
X73559394Y-61129179D01*
X73619737Y-60983497D01*
X73650500Y-60828842D01*
X73650500Y-60671158D01*
X73650500Y-60671155D01*
X73650499Y-60671153D01*
X73638653Y-60611602D01*
X73619737Y-60516503D01*
X73619735Y-60516498D01*
X73559397Y-60370827D01*
X73559390Y-60370814D01*
X73471789Y-60239711D01*
X73471786Y-60239707D01*
X73360292Y-60128213D01*
X73360288Y-60128210D01*
X73229185Y-60040609D01*
X73229172Y-60040602D01*
X73083501Y-59980264D01*
X73083489Y-59980261D01*
X72928845Y-59949500D01*
X72928842Y-59949500D01*
X72771158Y-59949500D01*
X72771155Y-59949500D01*
X72616510Y-59980261D01*
X72616498Y-59980264D01*
X72470827Y-60040602D01*
X72470814Y-60040609D01*
X72339711Y-60128210D01*
X72339707Y-60128213D01*
X72228213Y-60239707D01*
X72228210Y-60239711D01*
X72140609Y-60370814D01*
X72140602Y-60370827D01*
X72080264Y-60516498D01*
X72080261Y-60516510D01*
X72073661Y-60549691D01*
X72041276Y-60611602D01*
X71980561Y-60646176D01*
X71952044Y-60649500D01*
X62770985Y-60649500D01*
X62770969Y-60649499D01*
X62763373Y-60649499D01*
X62605258Y-60649499D01*
X62528894Y-60669961D01*
X62452529Y-60690423D01*
X62452524Y-60690426D01*
X62315605Y-60769475D01*
X62315597Y-60769481D01*
X60712181Y-62372898D01*
X60650858Y-62406383D01*
X60581166Y-62401399D01*
X60525233Y-62359527D01*
X60500816Y-62294063D01*
X60500500Y-62285217D01*
X60500500Y-47671158D01*
X67949500Y-47671158D01*
X67949500Y-47679001D01*
X67949500Y-47828846D01*
X67980261Y-47983489D01*
X67980264Y-47983501D01*
X68040602Y-48129172D01*
X68040609Y-48129185D01*
X68128210Y-48260288D01*
X68128213Y-48260292D01*
X68239707Y-48371786D01*
X68239711Y-48371789D01*
X68370814Y-48459390D01*
X68370827Y-48459397D01*
X68516498Y-48519735D01*
X68516503Y-48519737D01*
X68671153Y-48550499D01*
X68671156Y-48550500D01*
X68671158Y-48550500D01*
X68828844Y-48550500D01*
X68828845Y-48550499D01*
X68983497Y-48519737D01*
X69129179Y-48459394D01*
X69260289Y-48371789D01*
X69371789Y-48260289D01*
X69459394Y-48129179D01*
X69519737Y-47983497D01*
X69550500Y-47828842D01*
X69550500Y-47671158D01*
X69550500Y-47671155D01*
X69550499Y-47671153D01*
X69519739Y-47516511D01*
X69519738Y-47516508D01*
X69519737Y-47516503D01*
X69509937Y-47492844D01*
X69500500Y-47445396D01*
X69500500Y-42871902D01*
X98499500Y-42871902D01*
X98499500Y-43108097D01*
X98536446Y-43341368D01*
X98609433Y-43565996D01*
X98716657Y-43776433D01*
X98855483Y-43967510D01*
X99022490Y-44134517D01*
X99213567Y-44273343D01*
X99312991Y-44324002D01*
X99424003Y-44380566D01*
X99424005Y-44380566D01*
X99424008Y-44380568D01*
X99544412Y-44419689D01*
X99648631Y-44453553D01*
X99881903Y-44490500D01*
X99881908Y-44490500D01*
X100118097Y-44490500D01*
X100351368Y-44453553D01*
X100575992Y-44380568D01*
X100786433Y-44273343D01*
X100977510Y-44134517D01*
X101144517Y-43967510D01*
X101283343Y-43776433D01*
X101390568Y-43565992D01*
X101463553Y-43341368D01*
X101500500Y-43108097D01*
X101500500Y-42871902D01*
X101463553Y-42638631D01*
X101390566Y-42414003D01*
X101325762Y-42286819D01*
X101283343Y-42203567D01*
X101144517Y-42012490D01*
X100977510Y-41845483D01*
X100786433Y-41706657D01*
X100575996Y-41599433D01*
X100351368Y-41526446D01*
X100118097Y-41489500D01*
X100118092Y-41489500D01*
X99881908Y-41489500D01*
X99881903Y-41489500D01*
X99648631Y-41526446D01*
X99424003Y-41599433D01*
X99213566Y-41706657D01*
X99104550Y-41785862D01*
X99022490Y-41845483D01*
X99022488Y-41845485D01*
X99022487Y-41845485D01*
X98855485Y-42012487D01*
X98855485Y-42012488D01*
X98855483Y-42012490D01*
X98807275Y-42078842D01*
X98716657Y-42203566D01*
X98609433Y-42414003D01*
X98536446Y-42638631D01*
X98499500Y-42871902D01*
X69500500Y-42871902D01*
X69500500Y-42374500D01*
X69520185Y-42307461D01*
X69572989Y-42261706D01*
X69624500Y-42250500D01*
X95387770Y-42250500D01*
X95417210Y-42259144D01*
X95447197Y-42265668D01*
X95452212Y-42269422D01*
X95454809Y-42270185D01*
X95475451Y-42286819D01*
X95503927Y-42315295D01*
X95530807Y-42355523D01*
X95540604Y-42379175D01*
X95540609Y-42379185D01*
X95628210Y-42510288D01*
X95628213Y-42510292D01*
X95739707Y-42621786D01*
X95739711Y-42621789D01*
X95870814Y-42709390D01*
X95870827Y-42709397D01*
X96016498Y-42769735D01*
X96016503Y-42769737D01*
X96171153Y-42800499D01*
X96171156Y-42800500D01*
X96171158Y-42800500D01*
X96328844Y-42800500D01*
X96328845Y-42800499D01*
X96483497Y-42769737D01*
X96508957Y-42759190D01*
X96525172Y-42752475D01*
X96629172Y-42709397D01*
X96629172Y-42709396D01*
X96629179Y-42709394D01*
X96760289Y-42621789D01*
X96871789Y-42510289D01*
X96959394Y-42379179D01*
X97019737Y-42233497D01*
X97050500Y-42078842D01*
X97050500Y-41921158D01*
X97050500Y-41921155D01*
X97050499Y-41921153D01*
X97019737Y-41766503D01*
X96994948Y-41706657D01*
X96959397Y-41620827D01*
X96959390Y-41620814D01*
X96871789Y-41489711D01*
X96871786Y-41489707D01*
X96760292Y-41378213D01*
X96760288Y-41378210D01*
X96629185Y-41290609D01*
X96629175Y-41290604D01*
X96605523Y-41280807D01*
X96565295Y-41253927D01*
X96228421Y-40917052D01*
X96228414Y-40917046D01*
X96154729Y-40867812D01*
X96154729Y-40867813D01*
X96105491Y-40834913D01*
X95968917Y-40778343D01*
X95968907Y-40778340D01*
X95823920Y-40749500D01*
X95823918Y-40749500D01*
X68976082Y-40749500D01*
X68976080Y-40749500D01*
X68831092Y-40778340D01*
X68831086Y-40778342D01*
X68694508Y-40834914D01*
X68694496Y-40834921D01*
X68645269Y-40867813D01*
X68571588Y-40917044D01*
X68571580Y-40917050D01*
X68167049Y-41321582D01*
X68167045Y-41321586D01*
X68148395Y-41349501D01*
X68148394Y-41349502D01*
X68084916Y-41444503D01*
X68084914Y-41444506D01*
X68028343Y-41581082D01*
X68028340Y-41581092D01*
X67999500Y-41726079D01*
X67999500Y-47445396D01*
X67998049Y-47452687D01*
X67996408Y-47472916D01*
X67994079Y-47483147D01*
X67980263Y-47516503D01*
X67949500Y-47671158D01*
X60500500Y-47671158D01*
X60500500Y-42871902D01*
X61499500Y-42871902D01*
X61499500Y-43108097D01*
X61536446Y-43341368D01*
X61609433Y-43565996D01*
X61716657Y-43776433D01*
X61855483Y-43967510D01*
X62022490Y-44134517D01*
X62213567Y-44273343D01*
X62312991Y-44324002D01*
X62424003Y-44380566D01*
X62424005Y-44380566D01*
X62424008Y-44380568D01*
X62544412Y-44419689D01*
X62648631Y-44453553D01*
X62881903Y-44490500D01*
X62881908Y-44490500D01*
X63118097Y-44490500D01*
X63351368Y-44453553D01*
X63575992Y-44380568D01*
X63786433Y-44273343D01*
X63977510Y-44134517D01*
X64144517Y-43967510D01*
X64283343Y-43776433D01*
X64390568Y-43565992D01*
X64463553Y-43341368D01*
X64500500Y-43108097D01*
X64500500Y-42871902D01*
X64463553Y-42638631D01*
X64390566Y-42414003D01*
X64325762Y-42286819D01*
X64283343Y-42203567D01*
X64144517Y-42012490D01*
X63977510Y-41845483D01*
X63786433Y-41706657D01*
X63575996Y-41599433D01*
X63351368Y-41526446D01*
X63118097Y-41489500D01*
X63118092Y-41489500D01*
X62881908Y-41489500D01*
X62881903Y-41489500D01*
X62648631Y-41526446D01*
X62424003Y-41599433D01*
X62213566Y-41706657D01*
X62104550Y-41785862D01*
X62022490Y-41845483D01*
X62022488Y-41845485D01*
X62022487Y-41845485D01*
X61855485Y-42012487D01*
X61855485Y-42012488D01*
X61855483Y-42012490D01*
X61807275Y-42078842D01*
X61716657Y-42203566D01*
X61609433Y-42414003D01*
X61536446Y-42638631D01*
X61499500Y-42871902D01*
X60500500Y-42871902D01*
X60500500Y-40624500D01*
X60520185Y-40557461D01*
X60572989Y-40511706D01*
X60624500Y-40500500D01*
X102375500Y-40500500D01*
X102442539Y-40520185D01*
G37*
G04 #@! TD.AperFunction*
G04 #@! TD*
G04 #@! TA.AperFunction,Conductor*
G04 #@! TO.N,GND_H*
G36*
X90277510Y-76025185D02*
G01*
X90304618Y-76048801D01*
X92862699Y-79033229D01*
X93079080Y-79285673D01*
X93130834Y-79337845D01*
X93157943Y-79361462D01*
X93216696Y-79405567D01*
X93216699Y-79405568D01*
X93216701Y-79405570D01*
X93347566Y-79465335D01*
X93347573Y-79465338D01*
X93414612Y-79485023D01*
X93414616Y-79485024D01*
X93497360Y-79496920D01*
X93500000Y-79500000D01*
X93518778Y-79500000D01*
X93557032Y-79505500D01*
X101373618Y-79505500D01*
X101406522Y-79515161D01*
X101440561Y-79525122D01*
X101440621Y-79525174D01*
X101440657Y-79525185D01*
X101467256Y-79548210D01*
X101467493Y-79548483D01*
X101495018Y-79603402D01*
X101496663Y-79610960D01*
X101499500Y-79637331D01*
X101499500Y-103858170D01*
X101494478Y-103893101D01*
X101490858Y-103905431D01*
X101453086Y-103964210D01*
X101389531Y-103993237D01*
X101371880Y-103994500D01*
X73551360Y-103994500D01*
X73497311Y-103997397D01*
X73497310Y-103997397D01*
X73470977Y-104000229D01*
X73470950Y-104000232D01*
X73417554Y-104008885D01*
X73417552Y-104008885D01*
X73282747Y-104059166D01*
X73221422Y-104092651D01*
X73106240Y-104178876D01*
X73106228Y-104178886D01*
X72334142Y-104950972D01*
X72272819Y-104984457D01*
X72243053Y-104987244D01*
X69596505Y-104914480D01*
X69258543Y-104905188D01*
X69192071Y-104883670D01*
X69175716Y-104870339D01*
X67850295Y-103587432D01*
X66543259Y-102322319D01*
X66508779Y-102261549D01*
X66505500Y-102233220D01*
X66505500Y-96935923D01*
X70099500Y-96935923D01*
X70099500Y-96935928D01*
X70099500Y-98064070D01*
X70099960Y-98066380D01*
X70116693Y-98150500D01*
X70119720Y-98165718D01*
X70124499Y-98189743D01*
X70124500Y-98189748D01*
X70173531Y-98308121D01*
X70173534Y-98308125D01*
X70244726Y-98414673D01*
X70244727Y-98414674D01*
X71050575Y-99220521D01*
X71071723Y-99248771D01*
X71084331Y-99271860D01*
X71099500Y-99331289D01*
X71099500Y-100977234D01*
X71094476Y-101012173D01*
X71085135Y-101043981D01*
X71069262Y-101077931D01*
X71040612Y-101120809D01*
X71040597Y-101120836D01*
X70980264Y-101266496D01*
X70980257Y-101266527D01*
X70949500Y-101421150D01*
X70949500Y-101421153D01*
X70949500Y-101578846D01*
X70949500Y-101578848D01*
X70949499Y-101578848D01*
X70980257Y-101733471D01*
X70980264Y-101733502D01*
X71040598Y-101879165D01*
X71040603Y-101879174D01*
X71040613Y-101879191D01*
X71128211Y-102010290D01*
X71128212Y-102010291D01*
X71128217Y-102010297D01*
X71239701Y-102121781D01*
X71239707Y-102121786D01*
X71239711Y-102121789D01*
X71370814Y-102209390D01*
X71370827Y-102209397D01*
X71516498Y-102269735D01*
X71516503Y-102269737D01*
X71671153Y-102300499D01*
X71671156Y-102300500D01*
X71671158Y-102300500D01*
X71828844Y-102300500D01*
X71828845Y-102300499D01*
X71983497Y-102269737D01*
X72129179Y-102209394D01*
X72260289Y-102121789D01*
X72371789Y-102010289D01*
X72459394Y-101879179D01*
X72519737Y-101733497D01*
X72550500Y-101578842D01*
X72550500Y-101421158D01*
X72550500Y-101421155D01*
X72550500Y-101420973D01*
X72550065Y-101418972D01*
X72520398Y-101269830D01*
X72519983Y-101267403D01*
X72519737Y-101266504D01*
X72459397Y-101120827D01*
X72459389Y-101120813D01*
X72431303Y-101078780D01*
X72431300Y-101078775D01*
X72431298Y-101078773D01*
X72416069Y-101046939D01*
X72406163Y-101015299D01*
X72400500Y-100978252D01*
X72400500Y-100542329D01*
X72405523Y-100507393D01*
X72409927Y-100492395D01*
X72447672Y-100433644D01*
X72449041Y-100432457D01*
X72503920Y-100404977D01*
X72511479Y-100403333D01*
X72537832Y-100400500D01*
X72989070Y-100400500D01*
X73033963Y-100391569D01*
X73045991Y-100389786D01*
X73058065Y-100388597D01*
X73070217Y-100388000D01*
X73170464Y-100388000D01*
X73178314Y-100385618D01*
X73320997Y-100357237D01*
X73466679Y-100296894D01*
X73597789Y-100209289D01*
X73709289Y-100097789D01*
X73796894Y-99966679D01*
X73857237Y-99820997D01*
X73888000Y-99666342D01*
X73888000Y-99508658D01*
X73888000Y-99508655D01*
X73888000Y-99508473D01*
X73887565Y-99506472D01*
X73857898Y-99357330D01*
X73857483Y-99354903D01*
X73857238Y-99354007D01*
X73857237Y-99354005D01*
X73857237Y-99354003D01*
X73807169Y-99233127D01*
X73796897Y-99208327D01*
X73796890Y-99208314D01*
X73709289Y-99077211D01*
X73709286Y-99077207D01*
X73709281Y-99077201D01*
X73597797Y-98965717D01*
X73597791Y-98965712D01*
X73597790Y-98965711D01*
X73466691Y-98878113D01*
X73466690Y-98878112D01*
X73466685Y-98878109D01*
X73466672Y-98878102D01*
X73466665Y-98878098D01*
X73321002Y-98817764D01*
X73320971Y-98817757D01*
X73166347Y-98787000D01*
X73166345Y-98787000D01*
X73166342Y-98787000D01*
X73008658Y-98787000D01*
X73008655Y-98787000D01*
X73008653Y-98787000D01*
X72854027Y-98817757D01*
X72853996Y-98817764D01*
X72708329Y-98878100D01*
X72708325Y-98878102D01*
X72595586Y-98953431D01*
X72564050Y-98968568D01*
X72563663Y-98968690D01*
X72554206Y-98971651D01*
X72554005Y-98971741D01*
X72550407Y-98972878D01*
X72518822Y-98973522D01*
X72487329Y-98975940D01*
X72484154Y-98974229D01*
X72480551Y-98974303D01*
X72453790Y-98957866D01*
X72432059Y-98946155D01*
X72430903Y-98947475D01*
X72428545Y-98945409D01*
X72427437Y-98943664D01*
X72425881Y-98942826D01*
X72425447Y-98942397D01*
X72426168Y-98941666D01*
X72425371Y-98940410D01*
X72421015Y-98937735D01*
X72412669Y-98920405D01*
X72391094Y-98886424D01*
X72388648Y-98876354D01*
X72375501Y-98810256D01*
X72355189Y-98761221D01*
X72326466Y-98691874D01*
X72255277Y-98585331D01*
X72255272Y-98585325D01*
X72255259Y-98585311D01*
X71896812Y-98226866D01*
X71877799Y-98202370D01*
X71876702Y-98200518D01*
X71874110Y-98195771D01*
X71873467Y-98195055D01*
X71870201Y-98189540D01*
X71862780Y-98160366D01*
X71853019Y-98131890D01*
X71854256Y-98126853D01*
X71852978Y-98121826D01*
X71862507Y-98093272D01*
X71867290Y-98073808D01*
X71865446Y-98073006D01*
X71865905Y-98071951D01*
X71868514Y-98068827D01*
X71869691Y-98064039D01*
X71869705Y-98064014D01*
X71871961Y-98060135D01*
X71873306Y-98060917D01*
X71875098Y-98055550D01*
X71888848Y-98044487D01*
X71910701Y-98018331D01*
X71910719Y-98018319D01*
X71922744Y-98010284D01*
X71996059Y-97961297D01*
X72027887Y-97946070D01*
X72059528Y-97936164D01*
X72096576Y-97930500D01*
X74081380Y-97930500D01*
X74081443Y-97930501D01*
X74083347Y-97930501D01*
X74090943Y-97930501D01*
X74249054Y-97930501D01*
X74249057Y-97930501D01*
X74401785Y-97889577D01*
X74451904Y-97860639D01*
X74538716Y-97810520D01*
X74650520Y-97698716D01*
X74650520Y-97698714D01*
X74660728Y-97688507D01*
X74660728Y-97688505D01*
X74661233Y-97688001D01*
X74664415Y-97684817D01*
X74670931Y-97678301D01*
X74670934Y-97678300D01*
X74670937Y-97678295D01*
X75393020Y-96956216D01*
X75472077Y-96819284D01*
X75513001Y-96666557D01*
X75513001Y-96508442D01*
X75513001Y-96500847D01*
X75513001Y-96499163D01*
X75513000Y-96499089D01*
X75513000Y-96347594D01*
X75518021Y-96312664D01*
X75527364Y-96280845D01*
X75543243Y-96246888D01*
X75550873Y-96235471D01*
X75621887Y-96129189D01*
X75621894Y-96129179D01*
X75682237Y-95983497D01*
X75713000Y-95828842D01*
X75713000Y-95671158D01*
X75713000Y-95671155D01*
X75713000Y-95670973D01*
X75712565Y-95668972D01*
X75682897Y-95519824D01*
X75682494Y-95517467D01*
X75682238Y-95516508D01*
X75682237Y-95516506D01*
X75682237Y-95516503D01*
X75682235Y-95516498D01*
X75621897Y-95370827D01*
X75621890Y-95370814D01*
X75534289Y-95239711D01*
X75534286Y-95239707D01*
X75534281Y-95239701D01*
X75422797Y-95128217D01*
X75422791Y-95128212D01*
X75422790Y-95128211D01*
X75291691Y-95040613D01*
X75291690Y-95040612D01*
X75291685Y-95040609D01*
X75291672Y-95040602D01*
X75291665Y-95040598D01*
X75146002Y-94980264D01*
X75145971Y-94980257D01*
X74991347Y-94949500D01*
X74991345Y-94949500D01*
X74991342Y-94949500D01*
X74833658Y-94949500D01*
X74833655Y-94949500D01*
X74833653Y-94949500D01*
X74679027Y-94980257D01*
X74678996Y-94980264D01*
X74533333Y-95040598D01*
X74533324Y-95040603D01*
X74533307Y-95040613D01*
X74402208Y-95128211D01*
X74402207Y-95128212D01*
X74402201Y-95128217D01*
X74290717Y-95239701D01*
X74290712Y-95239707D01*
X74290711Y-95239708D01*
X74203113Y-95370807D01*
X74203103Y-95370824D01*
X74203098Y-95370833D01*
X74142764Y-95516496D01*
X74142757Y-95516527D01*
X74112000Y-95671150D01*
X74112000Y-95671153D01*
X74112000Y-95828846D01*
X74112000Y-95828848D01*
X74111999Y-95828848D01*
X74142757Y-95983471D01*
X74142764Y-95983502D01*
X74203098Y-96129165D01*
X74203102Y-96129172D01*
X74203109Y-96129185D01*
X74203112Y-96129189D01*
X74203119Y-96129201D01*
X74264226Y-96220654D01*
X74279459Y-96252492D01*
X74284131Y-96267413D01*
X74285380Y-96337262D01*
X74283438Y-96344343D01*
X74251535Y-96399227D01*
X73970188Y-96680574D01*
X73941940Y-96701722D01*
X73930170Y-96708150D01*
X73918853Y-96714329D01*
X73859422Y-96729500D01*
X72257638Y-96729500D01*
X72222703Y-96724477D01*
X72211849Y-96721290D01*
X72153071Y-96683516D01*
X72124046Y-96619960D01*
X72124910Y-96613950D01*
X72133986Y-96550811D01*
X72137176Y-96543824D01*
X72162289Y-96507656D01*
X72255274Y-96414672D01*
X72255275Y-96414671D01*
X72255275Y-96414670D01*
X72255277Y-96414669D01*
X72326466Y-96308126D01*
X72375501Y-96189743D01*
X72400500Y-96064069D01*
X72400500Y-95935931D01*
X72400500Y-92772764D01*
X72405522Y-92737831D01*
X72406444Y-92734692D01*
X72414865Y-92706013D01*
X72430738Y-92672063D01*
X72459394Y-92629179D01*
X72519737Y-92483497D01*
X72550500Y-92328842D01*
X72550500Y-92171158D01*
X72550500Y-92171155D01*
X72550500Y-92170973D01*
X72550065Y-92168972D01*
X72520395Y-92019815D01*
X72519983Y-92017403D01*
X72519737Y-92016504D01*
X72459397Y-91870827D01*
X72459389Y-91870813D01*
X72431303Y-91828780D01*
X72431300Y-91828775D01*
X72431298Y-91828773D01*
X72416069Y-91796939D01*
X72406163Y-91765299D01*
X72400500Y-91728252D01*
X72400500Y-87828848D01*
X79699499Y-87828848D01*
X79730257Y-87983471D01*
X79730264Y-87983502D01*
X79790598Y-88129165D01*
X79790602Y-88129172D01*
X79790608Y-88129184D01*
X79790613Y-88129191D01*
X79878211Y-88260290D01*
X79878212Y-88260291D01*
X79878217Y-88260297D01*
X79989707Y-88371787D01*
X79989710Y-88371789D01*
X80079573Y-88431833D01*
X80105824Y-88455414D01*
X80119075Y-88471270D01*
X80119279Y-88471514D01*
X80145522Y-88525735D01*
X80146893Y-88532315D01*
X80149500Y-88557608D01*
X80149500Y-96902404D01*
X80144476Y-96937341D01*
X80135136Y-96969148D01*
X80119262Y-97003102D01*
X80040613Y-97120807D01*
X80040603Y-97120824D01*
X80040598Y-97120833D01*
X79980264Y-97266496D01*
X79980257Y-97266527D01*
X79949500Y-97421150D01*
X79949500Y-97421153D01*
X79949500Y-97578846D01*
X79949500Y-97578848D01*
X79949499Y-97578848D01*
X79980257Y-97733471D01*
X79980264Y-97733502D01*
X80040598Y-97879165D01*
X80040603Y-97879174D01*
X80040613Y-97879191D01*
X80128211Y-98010290D01*
X80128212Y-98010291D01*
X80128217Y-98010297D01*
X80239701Y-98121781D01*
X80239707Y-98121786D01*
X80239711Y-98121789D01*
X80370814Y-98209390D01*
X80370827Y-98209397D01*
X80516498Y-98269735D01*
X80516503Y-98269737D01*
X80671153Y-98300499D01*
X80671156Y-98300500D01*
X80671158Y-98300500D01*
X80828844Y-98300500D01*
X80828845Y-98300499D01*
X80983497Y-98269737D01*
X81129179Y-98209394D01*
X81260289Y-98121789D01*
X81270953Y-98111125D01*
X81274725Y-98107352D01*
X81274751Y-98107338D01*
X81302965Y-98086216D01*
X81316690Y-98078721D01*
X81334124Y-98074928D01*
X81336051Y-98073877D01*
X81338238Y-98074033D01*
X81384946Y-98063871D01*
X81386756Y-98064000D01*
X81444953Y-98083366D01*
X81451471Y-98087555D01*
X81472108Y-98104187D01*
X81489707Y-98121786D01*
X81489711Y-98121789D01*
X81620814Y-98209390D01*
X81620827Y-98209397D01*
X81766498Y-98269735D01*
X81766503Y-98269737D01*
X81921153Y-98300499D01*
X81921156Y-98300500D01*
X81921158Y-98300500D01*
X82078844Y-98300500D01*
X82078845Y-98300499D01*
X82233497Y-98269737D01*
X82379179Y-98209394D01*
X82510289Y-98121789D01*
X82621789Y-98010289D01*
X82675102Y-97930500D01*
X82709393Y-97879181D01*
X82709393Y-97879180D01*
X82709394Y-97879179D01*
X82717074Y-97860639D01*
X82768060Y-97737544D01*
X82769222Y-97734997D01*
X82769730Y-97733510D01*
X82769735Y-97733501D01*
X82769737Y-97733497D01*
X82800499Y-97578848D01*
X82800500Y-97578844D01*
X82800500Y-97420973D01*
X82800065Y-97418972D01*
X82770397Y-97269824D01*
X82769994Y-97267467D01*
X82769738Y-97266508D01*
X82769737Y-97266506D01*
X82769737Y-97266503D01*
X82769735Y-97266498D01*
X82709397Y-97120827D01*
X82709390Y-97120814D01*
X82621789Y-96989711D01*
X82621786Y-96989707D01*
X82621781Y-96989701D01*
X82510297Y-96878217D01*
X82510291Y-96878212D01*
X82510290Y-96878211D01*
X82379191Y-96790613D01*
X82379190Y-96790612D01*
X82379185Y-96790609D01*
X82379172Y-96790602D01*
X82379165Y-96790598D01*
X82233502Y-96730264D01*
X82233485Y-96730260D01*
X82217794Y-96727139D01*
X82184512Y-96715397D01*
X82170658Y-96708150D01*
X82120380Y-96659635D01*
X82116743Y-96653248D01*
X82100500Y-96591893D01*
X82100500Y-88347594D01*
X82105522Y-88312661D01*
X82114864Y-88280845D01*
X82130733Y-88246902D01*
X82209390Y-88129185D01*
X82209390Y-88129184D01*
X82209394Y-88129179D01*
X82209397Y-88129172D01*
X82210074Y-88128159D01*
X82211710Y-88123585D01*
X82269737Y-87983497D01*
X82300500Y-87828842D01*
X82300500Y-87671158D01*
X82300499Y-87671150D01*
X82298102Y-87659101D01*
X82294258Y-87639775D01*
X91849500Y-87639775D01*
X91849500Y-87860229D01*
X91883985Y-88077958D01*
X91952078Y-88287533D01*
X91952104Y-88287609D01*
X91994996Y-88371787D01*
X91994996Y-88371788D01*
X92030636Y-88441734D01*
X92045687Y-88471273D01*
X92045810Y-88471514D01*
X92052186Y-88484026D01*
X92052192Y-88484036D01*
X92087269Y-88532315D01*
X92181752Y-88662361D01*
X92181756Y-88662366D01*
X92181761Y-88662372D01*
X92337627Y-88818238D01*
X92337636Y-88818246D01*
X92337660Y-88818264D01*
X92486851Y-88926657D01*
X92486856Y-88926659D01*
X92493192Y-88931263D01*
X92515978Y-88947818D01*
X92644375Y-89013240D01*
X92712393Y-89047898D01*
X92712396Y-89047899D01*
X92712433Y-89047911D01*
X92712468Y-89047923D01*
X92817221Y-89081958D01*
X92922049Y-89116018D01*
X93139778Y-89150503D01*
X93139779Y-89150503D01*
X93360221Y-89150503D01*
X93360222Y-89150503D01*
X93577951Y-89116018D01*
X93787606Y-89047898D01*
X93984022Y-88947818D01*
X94162365Y-88818245D01*
X94318242Y-88662368D01*
X94447815Y-88484025D01*
X94547895Y-88287609D01*
X94616015Y-88077954D01*
X94650500Y-87860225D01*
X94650500Y-87639781D01*
X94616015Y-87422052D01*
X94566431Y-87269446D01*
X94547896Y-87212399D01*
X94547895Y-87212396D01*
X94504999Y-87128210D01*
X94447815Y-87015981D01*
X94403319Y-86954737D01*
X94403317Y-86954734D01*
X94403317Y-86954733D01*
X94318261Y-86837663D01*
X94318243Y-86837639D01*
X94318235Y-86837630D01*
X94162369Y-86681764D01*
X94162364Y-86681760D01*
X94162363Y-86681759D01*
X94162358Y-86681755D01*
X94148940Y-86672006D01*
X93994630Y-86559894D01*
X93994618Y-86559886D01*
X93984025Y-86552190D01*
X93984024Y-86552189D01*
X93984022Y-86552188D01*
X93977909Y-86549073D01*
X93977898Y-86549066D01*
X93921098Y-86520126D01*
X93921096Y-86520125D01*
X93787606Y-86452107D01*
X93787602Y-86452105D01*
X93787579Y-86452097D01*
X93577954Y-86383988D01*
X93577955Y-86383988D01*
X93469086Y-86366745D01*
X93360227Y-86349503D01*
X93360222Y-86349503D01*
X93139778Y-86349503D01*
X93139774Y-86349503D01*
X93081716Y-86358699D01*
X93067201Y-86360998D01*
X92922043Y-86383988D01*
X92712419Y-86452097D01*
X92712396Y-86452105D01*
X92712392Y-86452107D01*
X92515972Y-86552190D01*
X92337658Y-86681742D01*
X92337629Y-86681764D01*
X92181761Y-86837632D01*
X92181739Y-86837661D01*
X92052187Y-87015975D01*
X91952104Y-87212395D01*
X91952102Y-87212399D01*
X91952094Y-87212422D01*
X91883985Y-87422046D01*
X91849500Y-87639775D01*
X82294258Y-87639775D01*
X82270397Y-87519824D01*
X82269994Y-87517467D01*
X82269738Y-87516508D01*
X82269737Y-87516506D01*
X82269737Y-87516503D01*
X82269735Y-87516498D01*
X82209397Y-87370827D01*
X82209390Y-87370814D01*
X82121789Y-87239711D01*
X82121786Y-87239707D01*
X82121781Y-87239701D01*
X82010297Y-87128217D01*
X82010291Y-87128212D01*
X82010287Y-87128209D01*
X81879191Y-87040613D01*
X81879190Y-87040612D01*
X81879185Y-87040609D01*
X81879172Y-87040602D01*
X81879165Y-87040598D01*
X81733502Y-86980264D01*
X81733471Y-86980257D01*
X81578847Y-86949500D01*
X81578845Y-86949500D01*
X81578842Y-86949500D01*
X81421158Y-86949500D01*
X81421155Y-86949500D01*
X81421153Y-86949500D01*
X81266527Y-86980257D01*
X81266496Y-86980264D01*
X81120833Y-87040598D01*
X81120815Y-87040608D01*
X81083716Y-87065398D01*
X81083712Y-87065399D01*
X81083712Y-87065400D01*
X81051874Y-87080632D01*
X81036955Y-87085303D01*
X80967106Y-87086551D01*
X80962556Y-87085303D01*
X80953974Y-87082948D01*
X80917885Y-87066468D01*
X80879191Y-87040613D01*
X80879190Y-87040612D01*
X80879185Y-87040609D01*
X80879172Y-87040602D01*
X80879165Y-87040598D01*
X80733502Y-86980264D01*
X80733471Y-86980257D01*
X80578847Y-86949500D01*
X80578845Y-86949500D01*
X80578842Y-86949500D01*
X80421158Y-86949500D01*
X80421155Y-86949500D01*
X80421153Y-86949500D01*
X80266527Y-86980257D01*
X80266496Y-86980264D01*
X80120833Y-87040598D01*
X80120824Y-87040603D01*
X80120807Y-87040613D01*
X79989712Y-87128209D01*
X79989707Y-87128212D01*
X79989701Y-87128217D01*
X79878217Y-87239701D01*
X79878212Y-87239707D01*
X79878211Y-87239708D01*
X79790613Y-87370807D01*
X79790603Y-87370824D01*
X79790598Y-87370833D01*
X79730264Y-87516496D01*
X79730257Y-87516527D01*
X79699500Y-87671150D01*
X79699500Y-87671153D01*
X79699500Y-87828846D01*
X79699500Y-87828848D01*
X79699499Y-87828848D01*
X72400500Y-87828848D01*
X72400500Y-87338637D01*
X72405522Y-87303704D01*
X72412934Y-87278459D01*
X72444228Y-87225717D01*
X72785522Y-86884423D01*
X72813772Y-86863275D01*
X72836864Y-86850667D01*
X72896289Y-86835500D01*
X75792235Y-86835500D01*
X75827170Y-86840523D01*
X75858979Y-86849863D01*
X75892934Y-86865737D01*
X75935821Y-86894394D01*
X75935823Y-86894395D01*
X75935827Y-86894397D01*
X76081498Y-86954735D01*
X76081503Y-86954737D01*
X76209820Y-86980261D01*
X76236153Y-86985499D01*
X76236156Y-86985500D01*
X76236158Y-86985500D01*
X76393844Y-86985500D01*
X76393845Y-86985499D01*
X76548497Y-86954737D01*
X76694179Y-86894394D01*
X76825289Y-86806789D01*
X76936789Y-86695289D01*
X77024394Y-86564179D01*
X77084737Y-86418497D01*
X77115500Y-86263842D01*
X77115500Y-86106158D01*
X77115500Y-86106155D01*
X77115500Y-86105973D01*
X77115065Y-86103972D01*
X77085397Y-85954824D01*
X77084994Y-85952467D01*
X77084738Y-85951508D01*
X77084737Y-85951506D01*
X77084737Y-85951503D01*
X77084735Y-85951498D01*
X77024397Y-85805827D01*
X77024390Y-85805814D01*
X76936789Y-85674711D01*
X76936786Y-85674707D01*
X76936781Y-85674701D01*
X76825297Y-85563217D01*
X76825291Y-85563212D01*
X76825290Y-85563211D01*
X76694191Y-85475613D01*
X76694190Y-85475612D01*
X76694185Y-85475609D01*
X76694172Y-85475602D01*
X76694165Y-85475598D01*
X76548502Y-85415264D01*
X76548471Y-85415257D01*
X76393847Y-85384500D01*
X76393845Y-85384500D01*
X76393842Y-85384500D01*
X76236158Y-85384500D01*
X76236155Y-85384500D01*
X76236153Y-85384500D01*
X76081527Y-85415257D01*
X76081496Y-85415264D01*
X75935836Y-85475597D01*
X75935823Y-85475603D01*
X75906928Y-85494911D01*
X75906925Y-85494913D01*
X75893775Y-85503699D01*
X75861942Y-85518929D01*
X75848486Y-85523142D01*
X75830309Y-85528834D01*
X75793256Y-85534500D01*
X72500926Y-85534500D01*
X72375273Y-85559493D01*
X72375265Y-85559495D01*
X72375245Y-85559502D01*
X72256875Y-85608533D01*
X72150321Y-85679729D01*
X72150320Y-85679730D01*
X71244725Y-86585326D01*
X71244721Y-86585331D01*
X71183681Y-86676688D01*
X71183676Y-86676697D01*
X71173530Y-86691878D01*
X71124501Y-86810248D01*
X71124495Y-86810267D01*
X71099500Y-86935925D01*
X71099500Y-91727234D01*
X71099499Y-91727237D01*
X71099500Y-91727239D01*
X71094476Y-91762173D01*
X71085135Y-91793981D01*
X71069262Y-91827931D01*
X71040612Y-91870809D01*
X71040597Y-91870836D01*
X70980264Y-92016496D01*
X70980257Y-92016527D01*
X70949500Y-92171150D01*
X70949500Y-92171153D01*
X70949500Y-92328846D01*
X70949500Y-92328848D01*
X70949499Y-92328848D01*
X70980257Y-92483471D01*
X70980264Y-92483502D01*
X71040597Y-92629162D01*
X71040603Y-92629175D01*
X71068696Y-92671218D01*
X71083928Y-92703056D01*
X71093834Y-92734692D01*
X71099500Y-92771745D01*
X71099500Y-95661361D01*
X71094476Y-95696298D01*
X71087064Y-95721539D01*
X71055769Y-95774283D01*
X70249512Y-96580539D01*
X70249507Y-96580544D01*
X70244727Y-96585325D01*
X70244726Y-96585326D01*
X70244723Y-96585331D01*
X70240047Y-96592328D01*
X70240035Y-96592344D01*
X70181806Y-96679494D01*
X70181799Y-96679505D01*
X70173539Y-96691863D01*
X70173533Y-96691874D01*
X70173529Y-96691882D01*
X70124502Y-96810245D01*
X70124495Y-96810265D01*
X70124493Y-96810273D01*
X70099500Y-96935923D01*
X66505500Y-96935923D01*
X66505500Y-92051359D01*
X66504683Y-92036139D01*
X66502603Y-91997322D01*
X66499769Y-91970964D01*
X66491114Y-91917552D01*
X66440832Y-91782743D01*
X66407347Y-91721420D01*
X66321123Y-91606239D01*
X66321118Y-91606234D01*
X66321113Y-91606228D01*
X65036319Y-90321434D01*
X65002834Y-90260111D01*
X65000000Y-90233753D01*
X65000000Y-84139772D01*
X96849500Y-84139772D01*
X96849500Y-84360226D01*
X96883985Y-84577955D01*
X96952094Y-84787579D01*
X96952102Y-84787602D01*
X96952104Y-84787606D01*
X97052187Y-84984026D01*
X97169235Y-85145129D01*
X97181752Y-85162358D01*
X97181756Y-85162363D01*
X97181761Y-85162369D01*
X97337627Y-85318235D01*
X97337636Y-85318243D01*
X97337660Y-85318261D01*
X97465619Y-85411228D01*
X97465623Y-85411230D01*
X97471171Y-85415261D01*
X97515978Y-85447815D01*
X97644375Y-85513237D01*
X97712393Y-85547895D01*
X97712396Y-85547896D01*
X97712433Y-85547908D01*
X97712468Y-85547920D01*
X97817221Y-85581955D01*
X97922049Y-85616015D01*
X98139778Y-85650500D01*
X98139779Y-85650500D01*
X98360221Y-85650500D01*
X98360222Y-85650500D01*
X98577951Y-85616015D01*
X98787606Y-85547895D01*
X98984022Y-85447815D01*
X99162365Y-85318242D01*
X99318242Y-85162365D01*
X99447815Y-84984022D01*
X99547895Y-84787606D01*
X99616015Y-84577951D01*
X99650500Y-84360222D01*
X99650500Y-84139778D01*
X99616015Y-83922049D01*
X99547895Y-83712394D01*
X99547895Y-83712393D01*
X99513237Y-83644375D01*
X99447815Y-83515978D01*
X99447812Y-83515974D01*
X99431261Y-83493194D01*
X99431259Y-83493190D01*
X99318261Y-83337660D01*
X99318243Y-83337636D01*
X99318235Y-83337627D01*
X99162369Y-83181761D01*
X99162364Y-83181757D01*
X99162363Y-83181756D01*
X99162358Y-83181752D01*
X99148940Y-83172003D01*
X98994630Y-83059891D01*
X98994618Y-83059883D01*
X98984025Y-83052187D01*
X98984024Y-83052186D01*
X98984022Y-83052185D01*
X98977909Y-83049070D01*
X98977898Y-83049063D01*
X98921098Y-83020123D01*
X98921096Y-83020122D01*
X98787606Y-82952104D01*
X98787602Y-82952102D01*
X98787579Y-82952094D01*
X98577954Y-82883985D01*
X98577955Y-82883985D01*
X98469086Y-82866742D01*
X98360227Y-82849500D01*
X98360222Y-82849500D01*
X98139778Y-82849500D01*
X98139774Y-82849500D01*
X98081716Y-82858696D01*
X98067201Y-82860995D01*
X97922043Y-82883985D01*
X97712419Y-82952094D01*
X97712396Y-82952102D01*
X97712392Y-82952104D01*
X97515972Y-83052187D01*
X97337658Y-83181739D01*
X97337629Y-83181761D01*
X97181761Y-83337629D01*
X97181739Y-83337658D01*
X97052187Y-83515972D01*
X96952104Y-83712392D01*
X96952102Y-83712396D01*
X96952094Y-83712419D01*
X96883985Y-83922043D01*
X96849500Y-84139772D01*
X65000000Y-84139772D01*
X65000000Y-81569191D01*
X65005022Y-81534258D01*
X65012434Y-81509013D01*
X65043728Y-81456271D01*
X67118071Y-79381927D01*
X67179392Y-79348444D01*
X67196895Y-79345927D01*
X67230001Y-79343560D01*
X67364810Y-79293278D01*
X67426133Y-79259793D01*
X67541314Y-79173569D01*
X70673064Y-76041819D01*
X70734387Y-76008334D01*
X70760745Y-76005500D01*
X90210471Y-76005500D01*
X90277510Y-76025185D01*
G37*
G04 #@! TD.AperFunction*
G04 #@! TD*
M02*
