G04 #@! TF.GenerationSoftware,KiCad,Pcbnew,10.0.3*
G04 #@! TF.CreationDate,2026-06-15T00:59:42+02:00*
G04 #@! TF.ProjectId,zHeat_PCB,7a486561-745f-4504-9342-2e6b69636164,rev?*
G04 #@! TF.SameCoordinates,Original*
G04 #@! TF.FileFunction,Paste,Top*
G04 #@! TF.FilePolarity,Positive*
%FSLAX46Y46*%
G04 Gerber Fmt 4.6, Leading zero omitted, Abs format (unit mm)*
G04 Created by KiCad (PCBNEW 10.0.3) date 2026-06-15 00:59:42*
%MOMM*%
%LPD*%
G01*
G04 APERTURE LIST*
G04 Aperture macros list*
%AMRoundRect*
0 Rectangle with rounded corners*
0 $1 Rounding radius*
0 $2 $3 $4 $5 $6 $7 $8 $9 X,Y pos of 4 corners*
0 Add a 4 corners polygon primitive as box body*
4,1,4,$2,$3,$4,$5,$6,$7,$8,$9,$2,$3,0*
0 Add four circle primitives for the rounded corners*
1,1,$1+$1,$2,$3*
1,1,$1+$1,$4,$5*
1,1,$1+$1,$6,$7*
1,1,$1+$1,$8,$9*
0 Add four rect primitives between the rounded corners*
20,1,$1+$1,$2,$3,$4,$5,0*
20,1,$1+$1,$4,$5,$6,$7,0*
20,1,$1+$1,$6,$7,$8,$9,0*
20,1,$1+$1,$8,$9,$2,$3,0*%
G04 Aperture macros list end*
%ADD10C,0.010000*%
%ADD11R,1.600000X3.200000*%
%ADD12RoundRect,0.250000X-0.262500X-0.450000X0.262500X-0.450000X0.262500X0.450000X-0.262500X0.450000X0*%
%ADD13RoundRect,0.250000X0.450000X-0.262500X0.450000X0.262500X-0.450000X0.262500X-0.450000X-0.262500X0*%
%ADD14RoundRect,0.250000X0.250000X0.475000X-0.250000X0.475000X-0.250000X-0.475000X0.250000X-0.475000X0*%
%ADD15RoundRect,0.250000X0.262500X0.450000X-0.262500X0.450000X-0.262500X-0.450000X0.262500X-0.450000X0*%
%ADD16RoundRect,0.243750X0.243750X0.456250X-0.243750X0.456250X-0.243750X-0.456250X0.243750X-0.456250X0*%
%ADD17RoundRect,0.200000X-0.300000X-0.200000X0.300000X-0.200000X0.300000X0.200000X-0.300000X0.200000X0*%
%ADD18R,1.250000X0.500000*%
%ADD19R,1.500000X0.900000*%
%ADD20R,0.800000X0.800000*%
%ADD21RoundRect,0.250000X-0.250000X-0.475000X0.250000X-0.475000X0.250000X0.475000X-0.250000X0.475000X0*%
%ADD22RoundRect,0.150000X0.512500X0.150000X-0.512500X0.150000X-0.512500X-0.150000X0.512500X-0.150000X0*%
%ADD23RoundRect,0.250000X0.475000X-0.250000X0.475000X0.250000X-0.475000X0.250000X-0.475000X-0.250000X0*%
%ADD24RoundRect,0.225000X-0.375000X0.225000X-0.375000X-0.225000X0.375000X-0.225000X0.375000X0.225000X0*%
%ADD25RoundRect,0.250000X1.000000X0.900000X-1.000000X0.900000X-1.000000X-0.900000X1.000000X-0.900000X0*%
%ADD26R,1.400000X1.600000*%
%ADD27RoundRect,0.087500X-0.425000X-0.087500X0.425000X-0.087500X0.425000X0.087500X-0.425000X0.087500X0*%
%ADD28RoundRect,0.375000X0.625000X0.375000X-0.625000X0.375000X-0.625000X-0.375000X0.625000X-0.375000X0*%
%ADD29RoundRect,0.500000X0.500000X1.400000X-0.500000X1.400000X-0.500000X-1.400000X0.500000X-1.400000X0*%
%ADD30R,1.525000X0.650000*%
%ADD31R,0.600000X1.150000*%
%ADD32R,0.300000X1.150000*%
%ADD33R,2.180000X2.000000*%
%ADD34RoundRect,0.243750X-0.243750X-0.456250X0.243750X-0.456250X0.243750X0.456250X-0.243750X0.456250X0*%
%ADD35RoundRect,0.032500X0.097500X-0.397500X0.097500X0.397500X-0.097500X0.397500X-0.097500X-0.397500X0*%
%ADD36RoundRect,0.032500X0.397500X-0.097500X0.397500X0.097500X-0.397500X0.097500X-0.397500X-0.097500X0*%
%ADD37RoundRect,0.250000X-0.450000X0.262500X-0.450000X-0.262500X0.450000X-0.262500X0.450000X0.262500X0*%
%ADD38RoundRect,0.225000X0.375000X-0.225000X0.375000X0.225000X-0.375000X0.225000X-0.375000X-0.225000X0*%
%ADD39RoundRect,0.250000X0.550000X-1.500000X0.550000X1.500000X-0.550000X1.500000X-0.550000X-1.500000X0*%
%ADD40RoundRect,0.250000X-1.000000X-0.650000X1.000000X-0.650000X1.000000X0.650000X-1.000000X0.650000X0*%
%ADD41RoundRect,0.200000X0.200000X-0.300000X0.200000X0.300000X-0.200000X0.300000X-0.200000X-0.300000X0*%
G04 APERTURE END LIST*
D10*
G04 #@! TO.C,U4*
X76243000Y-90072000D02*
X76243000Y-88428000D01*
X77887000Y-88428000D01*
X77887000Y-90072000D01*
X76243000Y-90072000D01*
G36*
X77887000Y-90072000D02*
G01*
X76243000Y-90072000D01*
X76243000Y-88428000D01*
X77887000Y-88428000D01*
X77887000Y-90072000D01*
G37*
G04 #@! TD*
D11*
G04 #@! TO.C,L1*
X74600000Y-109750000D03*
X83500000Y-109750000D03*
G04 #@! TD*
D12*
G04 #@! TO.C,R21*
X75337500Y-64750000D03*
X77162500Y-64750000D03*
G04 #@! TD*
G04 #@! TO.C,R33*
X82087500Y-99000000D03*
X83912500Y-99000000D03*
G04 #@! TD*
G04 #@! TO.C,R5*
X66250000Y-68250000D03*
X68075000Y-68250000D03*
G04 #@! TD*
D13*
G04 #@! TO.C,R22*
X87000000Y-111700000D03*
X87000000Y-109875000D03*
G04 #@! TD*
D14*
G04 #@! TO.C,C22*
X100700000Y-99500000D03*
X98800000Y-99500000D03*
G04 #@! TD*
D15*
G04 #@! TO.C,R9*
X63912500Y-78000000D03*
X62087500Y-78000000D03*
G04 #@! TD*
D14*
G04 #@! TO.C,C23*
X100700000Y-103000000D03*
X98800000Y-103000000D03*
G04 #@! TD*
D15*
G04 #@! TO.C,R30*
X80000000Y-99000000D03*
X78175000Y-99000000D03*
G04 #@! TD*
D16*
G04 #@! TO.C,D3*
X63937500Y-68250000D03*
X62062500Y-68250000D03*
G04 #@! TD*
D12*
G04 #@! TO.C,R26*
X79337500Y-68250000D03*
X81162500Y-68250000D03*
G04 #@! TD*
D13*
G04 #@! TO.C,R1*
X73390000Y-128412500D03*
X73390000Y-126587500D03*
G04 #@! TD*
D17*
G04 #@! TO.C,IC3*
X94425000Y-94230000D03*
X94425000Y-96770000D03*
X100575000Y-96770000D03*
X100575000Y-94230000D03*
G04 #@! TD*
D18*
G04 #@! TO.C,D1*
X74250000Y-121500000D03*
X74250000Y-120550000D03*
X74250000Y-119600000D03*
X71750000Y-119600000D03*
X71750000Y-120550000D03*
X71750000Y-121500000D03*
G04 #@! TD*
D19*
G04 #@! TO.C,U1*
X72750000Y-41250000D03*
X72750000Y-42520000D03*
X72750000Y-43790000D03*
X72750000Y-45060000D03*
X72750000Y-46330000D03*
X72750000Y-47600000D03*
X72750000Y-48870000D03*
X72750000Y-50140000D03*
X72750000Y-51410000D03*
X72750000Y-52680000D03*
X72750000Y-53950000D03*
X72750000Y-55220000D03*
X72750000Y-56490000D03*
X72750000Y-57760000D03*
X90250000Y-57760000D03*
X90250000Y-56490000D03*
X90250000Y-55220000D03*
X90250000Y-53950000D03*
X90250000Y-52680000D03*
X90250000Y-51410000D03*
X90250000Y-50140000D03*
X90250000Y-48870000D03*
X90250000Y-47600000D03*
X90250000Y-46330000D03*
X90250000Y-45060000D03*
X90250000Y-43790000D03*
X90250000Y-42520000D03*
X90250000Y-41250000D03*
D20*
X78745000Y-45720000D03*
X78745000Y-46970000D03*
X78745000Y-48220000D03*
X79995000Y-45720000D03*
X79995000Y-46970000D03*
X79995000Y-48220000D03*
X81245000Y-45720000D03*
X81245000Y-46970000D03*
X81245000Y-48220000D03*
G04 #@! TD*
D15*
G04 #@! TO.C,R27*
X81162500Y-71500000D03*
X79337500Y-71500000D03*
G04 #@! TD*
D13*
G04 #@! TO.C,R3*
X89500000Y-128412500D03*
X89500000Y-126587500D03*
G04 #@! TD*
D21*
G04 #@! TO.C,C4*
X94300000Y-47250000D03*
X96200000Y-47250000D03*
G04 #@! TD*
D12*
G04 #@! TO.C,R18*
X66500000Y-83000000D03*
X68325000Y-83000000D03*
G04 #@! TD*
D21*
G04 #@! TO.C,C12*
X79300000Y-64750000D03*
X81200000Y-64750000D03*
G04 #@! TD*
D22*
G04 #@! TO.C,U2*
X83887500Y-118700000D03*
X83887500Y-117750000D03*
X83887500Y-116800000D03*
X81612500Y-116800000D03*
X81612500Y-118700000D03*
G04 #@! TD*
D16*
G04 #@! TO.C,D7*
X72937500Y-64750000D03*
X71062500Y-64750000D03*
G04 #@! TD*
D23*
G04 #@! TO.C,C5*
X68750000Y-119200000D03*
X68750000Y-117300000D03*
G04 #@! TD*
D14*
G04 #@! TO.C,C17*
X79200000Y-94500000D03*
X77300000Y-94500000D03*
G04 #@! TD*
D24*
G04 #@! TO.C,D6*
X87000000Y-115350000D03*
X87000000Y-118650000D03*
G04 #@! TD*
D16*
G04 #@! TO.C,D8*
X72937500Y-68250000D03*
X71062500Y-68250000D03*
G04 #@! TD*
D23*
G04 #@! TO.C,C3*
X68800000Y-43200000D03*
X68800000Y-41300000D03*
G04 #@! TD*
D15*
G04 #@! TO.C,R6*
X63912500Y-71500000D03*
X62087500Y-71500000D03*
G04 #@! TD*
D25*
G04 #@! TO.C,D9*
X87650000Y-90250000D03*
X83350000Y-90250000D03*
G04 #@! TD*
D12*
G04 #@! TO.C,R20*
X66587500Y-90000000D03*
X68412500Y-90000000D03*
G04 #@! TD*
D13*
G04 #@! TO.C,R14*
X79000000Y-118662500D03*
X79000000Y-116837500D03*
G04 #@! TD*
D15*
G04 #@! TO.C,R16*
X72412500Y-86500000D03*
X70587500Y-86500000D03*
G04 #@! TD*
D21*
G04 #@! TO.C,C21*
X86550000Y-79750000D03*
X88450000Y-79750000D03*
G04 #@! TD*
D12*
G04 #@! TO.C,R10*
X94337500Y-50750000D03*
X96162500Y-50750000D03*
G04 #@! TD*
D21*
G04 #@! TO.C,C9*
X84300000Y-120750000D03*
X86200000Y-120750000D03*
G04 #@! TD*
D26*
G04 #@! TO.C,S1*
X101250000Y-54000000D03*
X101250000Y-62000000D03*
X96750000Y-54000000D03*
X96750000Y-62000000D03*
G04 #@! TD*
D12*
G04 #@! TO.C,R29*
X86587500Y-86750000D03*
X88412500Y-86750000D03*
G04 #@! TD*
D23*
G04 #@! TO.C,C15*
X90500000Y-107500000D03*
X90500000Y-105600000D03*
G04 #@! TD*
D15*
G04 #@! TO.C,R13*
X72412500Y-90000000D03*
X70587500Y-90000000D03*
G04 #@! TD*
D25*
G04 #@! TO.C,D12*
X90900000Y-101250000D03*
X86600000Y-101250000D03*
G04 #@! TD*
D27*
G04 #@! TO.C,Q1*
X74825000Y-72600000D03*
X74825000Y-73250000D03*
X74825000Y-73900000D03*
X76500000Y-73900000D03*
X76500000Y-73250000D03*
X76500000Y-72600000D03*
G04 #@! TD*
D23*
G04 #@! TO.C,C24*
X94000000Y-111700000D03*
X94000000Y-109800000D03*
G04 #@! TD*
D21*
G04 #@! TO.C,C20*
X79800000Y-81000000D03*
X81700000Y-81000000D03*
G04 #@! TD*
G04 #@! TO.C,C16*
X68300000Y-107000000D03*
X70200000Y-107000000D03*
G04 #@! TD*
D28*
G04 #@! TO.C,U3*
X70650000Y-114300000D03*
X70650000Y-112000000D03*
D29*
X64350000Y-112000000D03*
D28*
X70650000Y-109700000D03*
G04 #@! TD*
D30*
G04 #@! TO.C,IC1*
X63576000Y-92250000D03*
X63576000Y-93520000D03*
X63576000Y-94790000D03*
X63576000Y-96060000D03*
X63576000Y-97330000D03*
X63576000Y-98600000D03*
X63576000Y-99870000D03*
X63576000Y-101140000D03*
X69000000Y-101140000D03*
X69000000Y-99870000D03*
X69000000Y-98600000D03*
X69000000Y-97330000D03*
X69000000Y-96060000D03*
X69000000Y-94790000D03*
X69000000Y-93520000D03*
X69000000Y-92250000D03*
G04 #@! TD*
D31*
G04 #@! TO.C,J1*
X78300000Y-123925000D03*
X79100000Y-123925000D03*
D32*
X80250000Y-123925000D03*
X81250000Y-123925000D03*
X81750000Y-123925000D03*
X82750000Y-123925000D03*
D31*
X84700000Y-123925000D03*
X83900000Y-123925000D03*
D32*
X83250000Y-123925000D03*
X82250000Y-123925000D03*
X80750000Y-123925000D03*
X79750000Y-123925000D03*
D33*
X76390000Y-124500000D03*
X86610000Y-124500000D03*
X76390000Y-128430000D03*
X86610000Y-128430000D03*
G04 #@! TD*
D13*
G04 #@! TO.C,R31*
X84000000Y-83162500D03*
X84000000Y-81337500D03*
G04 #@! TD*
D34*
G04 #@! TO.C,D2*
X63562500Y-61250000D03*
X65437500Y-61250000D03*
G04 #@! TD*
D35*
G04 #@! TO.C,U4*
X75815000Y-91185000D03*
X76315000Y-91185000D03*
X76815000Y-91185000D03*
X77315000Y-91185000D03*
X77815000Y-91185000D03*
X78315000Y-91185000D03*
D36*
X79000000Y-90500000D03*
X79000000Y-90000000D03*
X79000000Y-89500000D03*
X79000000Y-89000000D03*
X79000000Y-88500000D03*
X79000000Y-88000000D03*
D35*
X78315000Y-87315000D03*
X77815000Y-87315000D03*
X77315000Y-87315000D03*
X76815000Y-87315000D03*
X76315000Y-87315000D03*
X75815000Y-87315000D03*
D36*
X75130000Y-88000000D03*
X75130000Y-88500000D03*
X75130000Y-89000000D03*
X75130000Y-89500000D03*
X75130000Y-90000000D03*
X75130000Y-90500000D03*
G04 #@! TD*
D15*
G04 #@! TO.C,R7*
X63912500Y-74750000D03*
X62087500Y-74750000D03*
G04 #@! TD*
G04 #@! TO.C,R15*
X74912500Y-98000000D03*
X73087500Y-98000000D03*
G04 #@! TD*
D14*
G04 #@! TO.C,C1*
X68750000Y-49537500D03*
X66850000Y-49537500D03*
G04 #@! TD*
D25*
G04 #@! TO.C,D10*
X90900000Y-95250000D03*
X86600000Y-95250000D03*
G04 #@! TD*
D21*
G04 #@! TO.C,C18*
X79800000Y-84500000D03*
X81700000Y-84500000D03*
G04 #@! TD*
D15*
G04 #@! TO.C,R28*
X71912500Y-71500000D03*
X70087500Y-71500000D03*
G04 #@! TD*
D14*
G04 #@! TO.C,C7*
X71950000Y-103750000D03*
X70050000Y-103750000D03*
G04 #@! TD*
D12*
G04 #@! TO.C,R19*
X66500000Y-86500000D03*
X68325000Y-86500000D03*
G04 #@! TD*
D13*
G04 #@! TO.C,R23*
X87000000Y-107450000D03*
X87000000Y-105625000D03*
G04 #@! TD*
D12*
G04 #@! TO.C,R11*
X66250000Y-64750000D03*
X68075000Y-64750000D03*
G04 #@! TD*
D14*
G04 #@! TO.C,C6*
X65700000Y-104250000D03*
X63800000Y-104250000D03*
G04 #@! TD*
G04 #@! TO.C,C8*
X65700000Y-120500000D03*
X63800000Y-120500000D03*
G04 #@! TD*
D37*
G04 #@! TO.C,R35*
X94956250Y-126425000D03*
X94956250Y-128250000D03*
G04 #@! TD*
D15*
G04 #@! TO.C,R12*
X74912500Y-101500000D03*
X73087500Y-101500000D03*
G04 #@! TD*
G04 #@! TO.C,R8*
X68712500Y-56037500D03*
X66887500Y-56037500D03*
G04 #@! TD*
D14*
G04 #@! TO.C,C19*
X88450000Y-83250000D03*
X86550000Y-83250000D03*
G04 #@! TD*
D38*
G04 #@! TO.C,D4*
X68750000Y-125400000D03*
X68750000Y-122100000D03*
G04 #@! TD*
D15*
G04 #@! TO.C,R4*
X69662500Y-61250000D03*
X67837500Y-61250000D03*
G04 #@! TD*
D14*
G04 #@! TO.C,C10*
X65700000Y-117250000D03*
X63800000Y-117250000D03*
G04 #@! TD*
D15*
G04 #@! TO.C,R17*
X74912500Y-94500000D03*
X73087500Y-94500000D03*
G04 #@! TD*
D39*
G04 #@! TO.C,C11*
X74500000Y-83700000D03*
X74500000Y-78300000D03*
G04 #@! TD*
D12*
G04 #@! TO.C,R24*
X75337500Y-68250000D03*
X77162500Y-68250000D03*
G04 #@! TD*
D14*
G04 #@! TO.C,C14*
X65700000Y-107000000D03*
X63800000Y-107000000D03*
G04 #@! TD*
D16*
G04 #@! TO.C,D5*
X63937500Y-64750000D03*
X62062500Y-64750000D03*
G04 #@! TD*
D12*
G04 #@! TO.C,R34*
X82087500Y-102500000D03*
X83912500Y-102500000D03*
G04 #@! TD*
D40*
G04 #@! TO.C,D11*
X96250000Y-77000000D03*
X100250000Y-77000000D03*
G04 #@! TD*
D41*
G04 #@! TO.C,IC2*
X85480000Y-74325000D03*
X88020000Y-74325000D03*
X88020000Y-68175000D03*
X85480000Y-68175000D03*
G04 #@! TD*
D15*
G04 #@! TO.C,R2*
X68712500Y-52787500D03*
X66887500Y-52787500D03*
G04 #@! TD*
D14*
G04 #@! TO.C,C2*
X68750000Y-45750000D03*
X66850000Y-45750000D03*
G04 #@! TD*
D15*
G04 #@! TO.C,R32*
X79912500Y-102500000D03*
X78087500Y-102500000D03*
G04 #@! TD*
D37*
G04 #@! TO.C,R36*
X92500000Y-126425000D03*
X92500000Y-128250000D03*
G04 #@! TD*
D12*
G04 #@! TO.C,R25*
X83337500Y-64750000D03*
X85162500Y-64750000D03*
G04 #@! TD*
D23*
G04 #@! TO.C,C13*
X90500000Y-111737500D03*
X90500000Y-109837500D03*
G04 #@! TD*
M02*
