M48
; DRILL file KiCad 10.0.3 date 2026-06-15T00:59:42
; FORMAT={-:-/ absolute / metric / decimal}
; #@! TF.CreationDate,2026-06-15T00:59:42+02:00
; #@! TF.GenerationSoftware,Kicad,Pcbnew,10.0.3
; #@! TF.FileFunction,Plated,1,2,PTH
FMAT,2
METRIC
; #@! TA.AperFunction,Plated,PTH,ViaDrill
T1C0.300
; #@! TA.AperFunction,Plated,PTH,ComponentDrill
T2C1.100
%
G90
G05
T1
X62.5Y-122.75
X63.5Y-51.0
X63.5Y-58.0
X63.576Y-81.076
X63.576Y-90.945
X63.576Y-102.5
X64.0Y-76.5
X65.0Y-66.5
X65.5Y-93.5
X65.5Y-101.0
X66.0Y-51.0
X66.0Y-70.25
X66.25Y-73.75
X67.25Y-120.5
X68.75Y-47.75
X69.5Y-64.75
X69.5Y-68.25
X69.5Y-86.5
X69.5Y-90.0
X69.75Y-79.25
X70.75Y-93.5
X71.0Y-84.5
X71.5Y-97.33
X71.75Y-61.85
X71.75Y-63.0
X71.75Y-92.25
X71.75Y-101.5
X72.0Y-124.5
X72.85Y-60.75
X73.087Y-99.587
X73.25Y-72.75
X73.75Y-91.5
X74.75Y-116.75
X74.912Y-95.75
X75.0Y-63.25
X75.25Y-61.75
X76.0Y-61.0
X76.25Y-103.0
X76.25Y-119.6
X76.25Y-121.5
X76.315Y-86.185
X77.065Y-89.25
X78.0Y-73.75
X78.25Y-66.5
X78.99Y-122.5
X79.0Y-106.5
X79.0Y-120.25
X80.5Y-87.75
X80.75Y-97.5
X81.5Y-77.5
X81.5Y-87.75
X82.0Y-97.5
X82.25Y-66.0
X83.4Y-115.0
X83.79Y-122.5
X84.0Y-95.25
X85.0Y-55.5
X85.0Y-63.0
X85.25Y-118.7
X88.75Y-101.25
X90.75Y-124.75
X92.0Y-111.825
X93.0Y-55.5
X95.25Y-101.25
X95.75Y-111.7
X96.25Y-42.0
X96.25Y-95.5
X100.0Y-122.25
X101.0Y-81.0
X101.5Y-47.0
X102.0Y-73.0
X102.0Y-106.0
T2
X93.25Y-70.75
X93.25Y-87.75
X93.25Y-119.75
X98.25Y-67.25
X98.25Y-84.25
X98.25Y-116.25
M30
